<svg xmlns="http://www.w3.org/2000/svg" xmlns:xlink="http://www.w3.org/1999/xlink" width="1080" zoomAndPan="magnify" viewBox="0 0 810 809.999993" height="1080" preserveAspectRatio="xMidYMid meet" version="1.0"><defs><clipPath id="6af6eec91e"><path d="M 405 0 C 181.324219 0 0 181.324219 0 405 C 0 628.675781 181.324219 810 405 810 C 628.675781 810 810 628.675781 810 405 C 810 181.324219 628.675781 0 405 0 Z M 405 0 " clip-rule="nonzero"/></clipPath><radialGradient gradientTransform="matrix(1, 0, 0, 1, 0.0000035, 0.00002)" gradientUnits="userSpaceOnUse" r="1145.514014" cx="0" id="16cc384ab1" cy="0" fx="0" fy="0"><stop stop-opacity="1" stop-color="rgb(0%, 63.88855%, 0.952148%)" offset="0"/><stop stop-opacity="1" stop-color="rgb(0%, 63.867188%, 1.257324%)" offset="0.00390625"/><stop stop-opacity="1" stop-color="rgb(0%, 63.845825%, 1.564026%)" offset="0.0078125"/><stop stop-opacity="1" stop-color="rgb(0%, 63.825989%, 1.870728%)" offset="0.0117188"/><stop stop-opacity="1" stop-color="rgb(0%, 63.804626%, 2.177429%)" offset="0.015625"/><stop stop-opacity="1" stop-color="rgb(0%, 63.783264%, 2.482605%)" offset="0.0195312"/><stop stop-opacity="1" stop-color="rgb(0%, 63.761902%, 2.789307%)" offset="0.0234375"/><stop stop-opacity="1" stop-color="rgb(0%, 63.74054%, 3.096008%)" offset="0.0273438"/><stop stop-opacity="1" stop-color="rgb(0%, 63.719177%, 3.401184%)" offset="0.03125"/><stop stop-opacity="1" stop-color="rgb(0%, 63.699341%, 3.707886%)" offset="0.0351562"/><stop stop-opacity="1" stop-color="rgb(0%, 63.677979%, 4.014587%)" offset="0.0390625"/><stop stop-opacity="1" stop-color="rgb(0%, 63.656616%, 4.321289%)" offset="0.0429688"/><stop stop-opacity="1" stop-color="rgb(0%, 63.635254%, 4.626465%)" offset="0.046875"/><stop stop-opacity="1" stop-color="rgb(0%, 63.613892%, 4.933167%)" offset="0.0507812"/><stop stop-opacity="1" stop-color="rgb(0%, 63.592529%, 5.239868%)" offset="0.0546875"/><stop stop-opacity="1" stop-color="rgb(0%, 63.572693%, 5.545044%)" offset="0.0585938"/><stop stop-opacity="1" stop-color="rgb(0%, 63.551331%, 5.851746%)" offset="0.0625"/><stop stop-opacity="1" stop-color="rgb(0%, 63.529968%, 6.158447%)" offset="0.0664062"/><stop stop-opacity="1" stop-color="rgb(0%, 63.508606%, 6.463623%)" offset="0.0703125"/><stop stop-opacity="1" stop-color="rgb(0%, 63.487244%, 6.770325%)" offset="0.0742188"/><stop stop-opacity="1" stop-color="rgb(0%, 63.467407%, 7.077026%)" offset="0.078125"/><stop stop-opacity="1" stop-color="rgb(0%, 63.446045%, 7.383728%)" offset="0.0820312"/><stop stop-opacity="1" stop-color="rgb(0%, 63.424683%, 7.688904%)" offset="0.0859375"/><stop stop-opacity="1" stop-color="rgb(0%, 63.40332%, 7.995605%)" offset="0.0898438"/><stop stop-opacity="1" stop-color="rgb(0%, 63.381958%, 8.302307%)" offset="0.09375"/><stop stop-opacity="1" stop-color="rgb(0%, 63.360596%, 8.607483%)" offset="0.0976562"/><stop stop-opacity="1" stop-color="rgb(0%, 63.340759%, 8.914185%)" offset="0.101562"/><stop stop-opacity="1" stop-color="rgb(0%, 63.319397%, 9.220886%)" offset="0.105469"/><stop stop-opacity="1" stop-color="rgb(0%, 63.298035%, 9.527588%)" offset="0.109375"/><stop stop-opacity="1" stop-color="rgb(0%, 63.276672%, 9.832764%)" offset="0.113281"/><stop stop-opacity="1" stop-color="rgb(0%, 63.25531%, 10.139465%)" offset="0.117188"/><stop stop-opacity="1" stop-color="rgb(0%, 63.233948%, 10.446167%)" offset="0.121094"/><stop stop-opacity="1" stop-color="rgb(0%, 63.214111%, 10.751343%)" offset="0.125"/><stop stop-opacity="1" stop-color="rgb(0%, 63.192749%, 11.058044%)" offset="0.128906"/><stop stop-opacity="1" stop-color="rgb(0%, 63.171387%, 11.364746%)" offset="0.132812"/><stop stop-opacity="1" stop-color="rgb(0%, 63.150024%, 11.669922%)" offset="0.136719"/><stop stop-opacity="1" stop-color="rgb(0%, 63.128662%, 11.976624%)" offset="0.140625"/><stop stop-opacity="1" stop-color="rgb(0%, 63.108826%, 12.283325%)" offset="0.144531"/><stop stop-opacity="1" stop-color="rgb(0%, 63.087463%, 12.590027%)" offset="0.148438"/><stop stop-opacity="1" stop-color="rgb(0%, 63.066101%, 12.895203%)" offset="0.152344"/><stop stop-opacity="1" stop-color="rgb(0%, 63.044739%, 13.201904%)" offset="0.15625"/><stop stop-opacity="1" stop-color="rgb(0%, 63.023376%, 13.508606%)" offset="0.160156"/><stop stop-opacity="1" stop-color="rgb(0%, 63.002014%, 13.813782%)" offset="0.164062"/><stop stop-opacity="1" stop-color="rgb(0%, 62.982178%, 14.120483%)" offset="0.167969"/><stop stop-opacity="1" stop-color="rgb(0%, 62.960815%, 14.427185%)" offset="0.171875"/><stop stop-opacity="1" stop-color="rgb(0%, 62.939453%, 14.732361%)" offset="0.175781"/><stop stop-opacity="1" stop-color="rgb(0%, 62.918091%, 15.039062%)" offset="0.179688"/><stop stop-opacity="1" stop-color="rgb(0%, 62.896729%, 15.345764%)" offset="0.183594"/><stop stop-opacity="1" stop-color="rgb(0%, 62.875366%, 15.652466%)" offset="0.1875"/><stop stop-opacity="1" stop-color="rgb(0%, 62.85553%, 15.957642%)" offset="0.191406"/><stop stop-opacity="1" stop-color="rgb(0%, 62.834167%, 16.264343%)" offset="0.195312"/><stop stop-opacity="1" stop-color="rgb(0%, 62.812805%, 16.571045%)" offset="0.199219"/><stop stop-opacity="1" stop-color="rgb(0%, 62.791443%, 16.876221%)" offset="0.203125"/><stop stop-opacity="1" stop-color="rgb(0%, 62.770081%, 17.182922%)" offset="0.207031"/><stop stop-opacity="1" stop-color="rgb(0%, 62.750244%, 17.489624%)" offset="0.210938"/><stop stop-opacity="1" stop-color="rgb(0%, 62.728882%, 17.796326%)" offset="0.214844"/><stop stop-opacity="1" stop-color="rgb(0%, 62.70752%, 18.101501%)" offset="0.21875"/><stop stop-opacity="1" stop-color="rgb(0%, 62.686157%, 18.408203%)" offset="0.222656"/><stop stop-opacity="1" stop-color="rgb(0%, 62.664795%, 18.714905%)" offset="0.226562"/><stop stop-opacity="1" stop-color="rgb(0%, 62.643433%, 19.020081%)" offset="0.230469"/><stop stop-opacity="1" stop-color="rgb(0%, 62.623596%, 19.326782%)" offset="0.234375"/><stop stop-opacity="1" stop-color="rgb(0%, 62.602234%, 19.633484%)" offset="0.238281"/><stop stop-opacity="1" stop-color="rgb(0%, 62.580872%, 19.93866%)" offset="0.242188"/><stop stop-opacity="1" stop-color="rgb(0%, 62.559509%, 20.245361%)" offset="0.246094"/><stop stop-opacity="1" stop-color="rgb(0%, 62.538147%, 20.552063%)" offset="0.25"/><stop stop-opacity="1" stop-color="rgb(0%, 62.516785%, 20.858765%)" offset="0.253906"/><stop stop-opacity="1" stop-color="rgb(0%, 62.496948%, 21.16394%)" offset="0.257812"/><stop stop-opacity="1" stop-color="rgb(0%, 62.475586%, 21.470642%)" offset="0.261719"/><stop stop-opacity="1" stop-color="rgb(0%, 62.454224%, 21.777344%)" offset="0.265625"/><stop stop-opacity="1" stop-color="rgb(0%, 62.432861%, 22.08252%)" offset="0.269531"/><stop stop-opacity="1" stop-color="rgb(0%, 62.411499%, 22.389221%)" offset="0.273438"/><stop stop-opacity="1" stop-color="rgb(0%, 62.391663%, 22.695923%)" offset="0.277344"/><stop stop-opacity="1" stop-color="rgb(0%, 62.3703%, 23.001099%)" offset="0.28125"/><stop stop-opacity="1" stop-color="rgb(0%, 62.348938%, 23.3078%)" offset="0.285156"/><stop stop-opacity="1" stop-color="rgb(0%, 62.327576%, 23.614502%)" offset="0.289062"/><stop stop-opacity="1" stop-color="rgb(0%, 62.306213%, 23.921204%)" offset="0.292969"/><stop stop-opacity="1" stop-color="rgb(0%, 62.284851%, 24.226379%)" offset="0.296875"/><stop stop-opacity="1" stop-color="rgb(0%, 62.265015%, 24.533081%)" offset="0.300781"/><stop stop-opacity="1" stop-color="rgb(0%, 62.243652%, 24.839783%)" offset="0.304688"/><stop stop-opacity="1" stop-color="rgb(0%, 62.22229%, 25.144958%)" offset="0.308594"/><stop stop-opacity="1" stop-color="rgb(0%, 62.200928%, 25.45166%)" offset="0.3125"/><stop stop-opacity="1" stop-color="rgb(0%, 62.179565%, 25.758362%)" offset="0.316406"/><stop stop-opacity="1" stop-color="rgb(0%, 62.158203%, 26.065063%)" offset="0.320312"/><stop stop-opacity="1" stop-color="rgb(0%, 62.138367%, 26.370239%)" offset="0.324219"/><stop stop-opacity="1" stop-color="rgb(0%, 62.117004%, 26.676941%)" offset="0.328125"/><stop stop-opacity="1" stop-color="rgb(0%, 62.095642%, 26.983643%)" offset="0.332031"/><stop stop-opacity="1" stop-color="rgb(0%, 62.07428%, 27.288818%)" offset="0.335938"/><stop stop-opacity="1" stop-color="rgb(0%, 62.052917%, 27.59552%)" offset="0.339844"/><stop stop-opacity="1" stop-color="rgb(0%, 62.031555%, 27.902222%)" offset="0.34375"/><stop stop-opacity="1" stop-color="rgb(0%, 62.011719%, 28.207397%)" offset="0.347656"/><stop stop-opacity="1" stop-color="rgb(0%, 61.990356%, 28.514099%)" offset="0.351562"/><stop stop-opacity="1" stop-color="rgb(0%, 61.968994%, 28.820801%)" offset="0.355469"/><stop stop-opacity="1" stop-color="rgb(0%, 61.947632%, 29.127502%)" offset="0.359375"/><stop stop-opacity="1" stop-color="rgb(0%, 61.92627%, 29.432678%)" offset="0.363281"/><stop stop-opacity="1" stop-color="rgb(0%, 61.906433%, 29.73938%)" offset="0.367188"/><stop stop-opacity="1" stop-color="rgb(0%, 61.885071%, 30.046082%)" offset="0.371094"/><stop stop-opacity="1" stop-color="rgb(0%, 61.863708%, 30.351257%)" offset="0.375"/><stop stop-opacity="1" stop-color="rgb(0%, 61.842346%, 30.657959%)" offset="0.378906"/><stop stop-opacity="1" stop-color="rgb(0%, 61.820984%, 30.964661%)" offset="0.382812"/><stop stop-opacity="1" stop-color="rgb(0%, 61.799622%, 31.269836%)" offset="0.386719"/><stop stop-opacity="1" stop-color="rgb(0%, 61.779785%, 31.576538%)" offset="0.390625"/><stop stop-opacity="1" stop-color="rgb(0%, 61.758423%, 31.88324%)" offset="0.394531"/><stop stop-opacity="1" stop-color="rgb(0%, 61.737061%, 32.189941%)" offset="0.398438"/><stop stop-opacity="1" stop-color="rgb(0%, 61.715698%, 32.495117%)" offset="0.402344"/><stop stop-opacity="1" stop-color="rgb(0%, 61.694336%, 32.801819%)" offset="0.40625"/><stop stop-opacity="1" stop-color="rgb(0%, 61.672974%, 33.108521%)" offset="0.410156"/><stop stop-opacity="1" stop-color="rgb(0%, 61.653137%, 33.413696%)" offset="0.414062"/><stop stop-opacity="1" stop-color="rgb(0%, 61.631775%, 33.720398%)" offset="0.417969"/><stop stop-opacity="1" stop-color="rgb(0%, 61.610413%, 34.0271%)" offset="0.421875"/><stop stop-opacity="1" stop-color="rgb(0%, 61.58905%, 34.333801%)" offset="0.425781"/><stop stop-opacity="1" stop-color="rgb(0%, 61.567688%, 34.638977%)" offset="0.429688"/><stop stop-opacity="1" stop-color="rgb(0%, 61.547852%, 34.945679%)" offset="0.433594"/><stop stop-opacity="1" stop-color="rgb(0%, 61.526489%, 35.25238%)" offset="0.4375"/><stop stop-opacity="1" stop-color="rgb(0%, 61.505127%, 35.557556%)" offset="0.441406"/><stop stop-opacity="1" stop-color="rgb(0%, 61.483765%, 35.864258%)" offset="0.445312"/><stop stop-opacity="1" stop-color="rgb(0%, 61.462402%, 36.170959%)" offset="0.449219"/><stop stop-opacity="1" stop-color="rgb(0%, 61.44104%, 36.476135%)" offset="0.453125"/><stop stop-opacity="1" stop-color="rgb(0%, 61.421204%, 36.782837%)" offset="0.457031"/><stop stop-opacity="1" stop-color="rgb(0%, 61.399841%, 37.089539%)" offset="0.460938"/><stop stop-opacity="1" stop-color="rgb(0%, 61.378479%, 37.39624%)" offset="0.464844"/><stop stop-opacity="1" stop-color="rgb(0%, 61.357117%, 37.701416%)" offset="0.46875"/><stop stop-opacity="1" stop-color="rgb(0%, 61.335754%, 38.008118%)" offset="0.472656"/><stop stop-opacity="1" stop-color="rgb(0%, 61.314392%, 38.314819%)" offset="0.476562"/><stop stop-opacity="1" stop-color="rgb(0%, 61.294556%, 38.619995%)" offset="0.480469"/><stop stop-opacity="1" stop-color="rgb(0%, 61.273193%, 38.926697%)" offset="0.484375"/><stop stop-opacity="1" stop-color="rgb(0%, 61.251831%, 39.233398%)" offset="0.488281"/><stop stop-opacity="1" stop-color="rgb(0%, 61.230469%, 39.538574%)" offset="0.492188"/><stop stop-opacity="1" stop-color="rgb(0.0350952%, 61.123657%, 39.691162%)" offset="0.496094"/><stop stop-opacity="1" stop-color="rgb(0.105286%, 60.940552%, 39.533997%)" offset="0.503906"/><stop stop-opacity="1" stop-color="rgb(0.175476%, 60.769653%, 39.225769%)" offset="0.507812"/><stop stop-opacity="1" stop-color="rgb(0.245667%, 60.597229%, 38.916016%)" offset="0.511719"/><stop stop-opacity="1" stop-color="rgb(0.315857%, 60.424805%, 38.606262%)" offset="0.515625"/><stop stop-opacity="1" stop-color="rgb(0.386047%, 60.253906%, 38.296509%)" offset="0.519531"/><stop stop-opacity="1" stop-color="rgb(0.456238%, 60.081482%, 37.988281%)" offset="0.523438"/><stop stop-opacity="1" stop-color="rgb(0.526428%, 59.909058%, 37.678528%)" offset="0.527344"/><stop stop-opacity="1" stop-color="rgb(0.596619%, 59.738159%, 37.368774%)" offset="0.53125"/><stop stop-opacity="1" stop-color="rgb(0.666809%, 59.565735%, 37.059021%)" offset="0.535156"/><stop stop-opacity="1" stop-color="rgb(0.737%, 59.393311%, 36.750793%)" offset="0.539062"/><stop stop-opacity="1" stop-color="rgb(0.80719%, 59.222412%, 36.44104%)" offset="0.542969"/><stop stop-opacity="1" stop-color="rgb(0.87738%, 59.049988%, 36.131287%)" offset="0.546875"/><stop stop-opacity="1" stop-color="rgb(0.949097%, 58.879089%, 35.821533%)" offset="0.550781"/><stop stop-opacity="1" stop-color="rgb(1.019287%, 58.706665%, 35.513306%)" offset="0.554688"/><stop stop-opacity="1" stop-color="rgb(1.089478%, 58.534241%, 35.203552%)" offset="0.558594"/><stop stop-opacity="1" stop-color="rgb(1.159668%, 58.363342%, 34.893799%)" offset="0.5625"/><stop stop-opacity="1" stop-color="rgb(1.229858%, 58.190918%, 34.584045%)" offset="0.566406"/><stop stop-opacity="1" stop-color="rgb(1.300049%, 58.018494%, 34.275818%)" offset="0.570312"/><stop stop-opacity="1" stop-color="rgb(1.370239%, 57.847595%, 33.966064%)" offset="0.574219"/><stop stop-opacity="1" stop-color="rgb(1.44043%, 57.675171%, 33.656311%)" offset="0.578125"/><stop stop-opacity="1" stop-color="rgb(1.51062%, 57.502747%, 33.346558%)" offset="0.582031"/><stop stop-opacity="1" stop-color="rgb(1.580811%, 57.331848%, 33.03833%)" offset="0.585938"/><stop stop-opacity="1" stop-color="rgb(1.651001%, 57.159424%, 32.728577%)" offset="0.589844"/><stop stop-opacity="1" stop-color="rgb(1.721191%, 56.988525%, 32.418823%)" offset="0.59375"/><stop stop-opacity="1" stop-color="rgb(1.792908%, 56.816101%, 32.10907%)" offset="0.597656"/><stop stop-opacity="1" stop-color="rgb(1.863098%, 56.643677%, 31.800842%)" offset="0.601562"/><stop stop-opacity="1" stop-color="rgb(1.933289%, 56.472778%, 31.491089%)" offset="0.605469"/><stop stop-opacity="1" stop-color="rgb(2.003479%, 56.300354%, 31.181335%)" offset="0.609375"/><stop stop-opacity="1" stop-color="rgb(2.073669%, 56.12793%, 30.871582%)" offset="0.613281"/><stop stop-opacity="1" stop-color="rgb(2.14386%, 55.957031%, 30.563354%)" offset="0.617188"/><stop stop-opacity="1" stop-color="rgb(2.21405%, 55.784607%, 30.253601%)" offset="0.621094"/><stop stop-opacity="1" stop-color="rgb(2.284241%, 55.612183%, 29.943848%)" offset="0.625"/><stop stop-opacity="1" stop-color="rgb(2.354431%, 55.441284%, 29.634094%)" offset="0.628906"/><stop stop-opacity="1" stop-color="rgb(2.424622%, 55.26886%, 29.325867%)" offset="0.632812"/><stop stop-opacity="1" stop-color="rgb(2.494812%, 55.096436%, 29.016113%)" offset="0.636719"/><stop stop-opacity="1" stop-color="rgb(2.565002%, 54.925537%, 28.70636%)" offset="0.640625"/><stop stop-opacity="1" stop-color="rgb(2.635193%, 54.753113%, 28.396606%)" offset="0.644531"/><stop stop-opacity="1" stop-color="rgb(2.706909%, 54.582214%, 28.088379%)" offset="0.648438"/><stop stop-opacity="1" stop-color="rgb(2.7771%, 54.40979%, 27.778625%)" offset="0.652344"/><stop stop-opacity="1" stop-color="rgb(2.84729%, 54.237366%, 27.468872%)" offset="0.65625"/><stop stop-opacity="1" stop-color="rgb(2.91748%, 54.066467%, 27.159119%)" offset="0.660156"/><stop stop-opacity="1" stop-color="rgb(2.987671%, 53.894043%, 26.850891%)" offset="0.664062"/><stop stop-opacity="1" stop-color="rgb(3.057861%, 53.721619%, 26.541138%)" offset="0.667969"/><stop stop-opacity="1" stop-color="rgb(3.128052%, 53.55072%, 26.231384%)" offset="0.671875"/><stop stop-opacity="1" stop-color="rgb(3.198242%, 53.378296%, 25.921631%)" offset="0.675781"/><stop stop-opacity="1" stop-color="rgb(3.268433%, 53.205872%, 25.613403%)" offset="0.679688"/><stop stop-opacity="1" stop-color="rgb(3.338623%, 53.034973%, 25.30365%)" offset="0.683594"/><stop stop-opacity="1" stop-color="rgb(3.408813%, 52.862549%, 24.993896%)" offset="0.6875"/><stop stop-opacity="1" stop-color="rgb(3.479004%, 52.69165%, 24.684143%)" offset="0.691406"/><stop stop-opacity="1" stop-color="rgb(3.55072%, 52.519226%, 24.375916%)" offset="0.695312"/><stop stop-opacity="1" stop-color="rgb(3.620911%, 52.346802%, 24.066162%)" offset="0.699219"/><stop stop-opacity="1" stop-color="rgb(3.691101%, 52.175903%, 23.756409%)" offset="0.703125"/><stop stop-opacity="1" stop-color="rgb(3.761292%, 52.003479%, 23.446655%)" offset="0.707031"/><stop stop-opacity="1" stop-color="rgb(3.831482%, 51.831055%, 23.138428%)" offset="0.710938"/><stop stop-opacity="1" stop-color="rgb(3.901672%, 51.660156%, 22.828674%)" offset="0.714844"/><stop stop-opacity="1" stop-color="rgb(3.971863%, 51.487732%, 22.518921%)" offset="0.71875"/><stop stop-opacity="1" stop-color="rgb(4.042053%, 51.315308%, 22.209167%)" offset="0.722656"/><stop stop-opacity="1" stop-color="rgb(4.112244%, 51.144409%, 21.90094%)" offset="0.726562"/><stop stop-opacity="1" stop-color="rgb(4.182434%, 50.971985%, 21.591187%)" offset="0.730469"/><stop stop-opacity="1" stop-color="rgb(4.252625%, 50.799561%, 21.281433%)" offset="0.734375"/><stop stop-opacity="1" stop-color="rgb(4.322815%, 50.628662%, 20.97168%)" offset="0.738281"/><stop stop-opacity="1" stop-color="rgb(4.393005%, 50.456238%, 20.663452%)" offset="0.742188"/><stop stop-opacity="1" stop-color="rgb(4.464722%, 50.285339%, 20.353699%)" offset="0.746094"/><stop stop-opacity="1" stop-color="rgb(4.534912%, 50.112915%, 20.043945%)" offset="0.75"/><stop stop-opacity="1" stop-color="rgb(4.605103%, 49.940491%, 19.734192%)" offset="0.753906"/><stop stop-opacity="1" stop-color="rgb(4.675293%, 49.769592%, 19.425964%)" offset="0.757812"/><stop stop-opacity="1" stop-color="rgb(4.745483%, 49.597168%, 19.116211%)" offset="0.761719"/><stop stop-opacity="1" stop-color="rgb(4.815674%, 49.424744%, 18.806458%)" offset="0.765625"/><stop stop-opacity="1" stop-color="rgb(4.885864%, 49.253845%, 18.496704%)" offset="0.769531"/><stop stop-opacity="1" stop-color="rgb(4.956055%, 49.081421%, 18.188477%)" offset="0.773438"/><stop stop-opacity="1" stop-color="rgb(5.026245%, 48.908997%, 17.878723%)" offset="0.777344"/><stop stop-opacity="1" stop-color="rgb(5.096436%, 48.738098%, 17.56897%)" offset="0.78125"/><stop stop-opacity="1" stop-color="rgb(5.166626%, 48.565674%, 17.259216%)" offset="0.785156"/><stop stop-opacity="1" stop-color="rgb(5.236816%, 48.394775%, 16.950989%)" offset="0.789062"/><stop stop-opacity="1" stop-color="rgb(5.308533%, 48.222351%, 16.641235%)" offset="0.792969"/><stop stop-opacity="1" stop-color="rgb(5.378723%, 48.049927%, 16.331482%)" offset="0.796875"/><stop stop-opacity="1" stop-color="rgb(5.448914%, 47.879028%, 16.021729%)" offset="0.800781"/><stop stop-opacity="1" stop-color="rgb(5.519104%, 47.706604%, 15.711975%)" offset="0.804688"/><stop stop-opacity="1" stop-color="rgb(5.589294%, 47.53418%, 15.403748%)" offset="0.808594"/><stop stop-opacity="1" stop-color="rgb(5.659485%, 47.363281%, 15.093994%)" offset="0.8125"/><stop stop-opacity="1" stop-color="rgb(5.729675%, 47.190857%, 14.784241%)" offset="0.816406"/><stop stop-opacity="1" stop-color="rgb(5.799866%, 47.018433%, 14.474487%)" offset="0.820312"/><stop stop-opacity="1" stop-color="rgb(5.870056%, 46.847534%, 14.16626%)" offset="0.824219"/><stop stop-opacity="1" stop-color="rgb(5.940247%, 46.67511%, 13.856506%)" offset="0.828125"/><stop stop-opacity="1" stop-color="rgb(6.010437%, 46.502686%, 13.546753%)" offset="0.832031"/><stop stop-opacity="1" stop-color="rgb(6.080627%, 46.331787%, 13.237%)" offset="0.835938"/><stop stop-opacity="1" stop-color="rgb(6.150818%, 46.159363%, 12.928772%)" offset="0.839844"/><stop stop-opacity="1" stop-color="rgb(6.222534%, 45.988464%, 12.619019%)" offset="0.84375"/><stop stop-opacity="1" stop-color="rgb(6.292725%, 45.81604%, 12.309265%)" offset="0.847656"/><stop stop-opacity="1" stop-color="rgb(6.362915%, 45.643616%, 11.999512%)" offset="0.851562"/><stop stop-opacity="1" stop-color="rgb(6.433105%, 45.472717%, 11.691284%)" offset="0.855469"/><stop stop-opacity="1" stop-color="rgb(6.503296%, 45.300293%, 11.381531%)" offset="0.859375"/><stop stop-opacity="1" stop-color="rgb(6.573486%, 45.127869%, 11.071777%)" offset="0.863281"/><stop stop-opacity="1" stop-color="rgb(6.643677%, 44.95697%, 10.762024%)" offset="0.867188"/><stop stop-opacity="1" stop-color="rgb(6.713867%, 44.784546%, 10.453796%)" offset="0.871094"/><stop stop-opacity="1" stop-color="rgb(6.784058%, 44.612122%, 10.144043%)" offset="0.875"/><stop stop-opacity="1" stop-color="rgb(6.854248%, 44.441223%, 9.83429%)" offset="0.878906"/><stop stop-opacity="1" stop-color="rgb(6.924438%, 44.268799%, 9.524536%)" offset="0.882812"/><stop stop-opacity="1" stop-color="rgb(6.994629%, 44.0979%, 9.216309%)" offset="0.886719"/><stop stop-opacity="1" stop-color="rgb(7.066345%, 43.925476%, 8.906555%)" offset="0.890625"/><stop stop-opacity="1" stop-color="rgb(7.136536%, 43.753052%, 8.596802%)" offset="0.894531"/><stop stop-opacity="1" stop-color="rgb(7.206726%, 43.582153%, 8.287048%)" offset="0.898438"/><stop stop-opacity="1" stop-color="rgb(7.276917%, 43.409729%, 7.978821%)" offset="0.902344"/><stop stop-opacity="1" stop-color="rgb(7.347107%, 43.237305%, 7.669067%)" offset="0.90625"/><stop stop-opacity="1" stop-color="rgb(7.417297%, 43.066406%, 7.359314%)" offset="0.910156"/><stop stop-opacity="1" stop-color="rgb(7.487488%, 42.893982%, 7.049561%)" offset="0.914062"/><stop stop-opacity="1" stop-color="rgb(7.557678%, 42.721558%, 6.741333%)" offset="0.917969"/><stop stop-opacity="1" stop-color="rgb(7.627869%, 42.550659%, 6.43158%)" offset="0.921875"/><stop stop-opacity="1" stop-color="rgb(7.698059%, 42.378235%, 6.121826%)" offset="0.925781"/><stop stop-opacity="1" stop-color="rgb(7.76825%, 42.205811%, 5.812073%)" offset="0.929688"/><stop stop-opacity="1" stop-color="rgb(7.83844%, 42.034912%, 5.503845%)" offset="0.933594"/><stop stop-opacity="1" stop-color="rgb(7.90863%, 41.862488%, 5.194092%)" offset="0.9375"/><stop stop-opacity="1" stop-color="rgb(7.980347%, 41.691589%, 4.884338%)" offset="0.941406"/><stop stop-opacity="1" stop-color="rgb(8.050537%, 41.519165%, 4.574585%)" offset="0.945312"/><stop stop-opacity="1" stop-color="rgb(8.120728%, 41.346741%, 4.266357%)" offset="0.949219"/><stop stop-opacity="1" stop-color="rgb(8.190918%, 41.175842%, 3.956604%)" offset="0.953125"/><stop stop-opacity="1" stop-color="rgb(8.261108%, 41.003418%, 3.646851%)" offset="0.957031"/><stop stop-opacity="1" stop-color="rgb(8.331299%, 40.830994%, 3.337097%)" offset="0.960938"/><stop stop-opacity="1" stop-color="rgb(8.401489%, 40.660095%, 3.02887%)" offset="0.964844"/><stop stop-opacity="1" stop-color="rgb(8.47168%, 40.487671%, 2.719116%)" offset="0.96875"/><stop stop-opacity="1" stop-color="rgb(8.54187%, 40.315247%, 2.409363%)" offset="0.972656"/><stop stop-opacity="1" stop-color="rgb(8.612061%, 40.144348%, 2.099609%)" offset="0.976562"/><stop stop-opacity="1" stop-color="rgb(8.682251%, 39.971924%, 1.791382%)" offset="0.980469"/><stop stop-opacity="1" stop-color="rgb(8.752441%, 39.801025%, 1.481628%)" offset="0.984375"/><stop stop-opacity="1" stop-color="rgb(8.824158%, 39.628601%, 1.171875%)" offset="0.988281"/><stop stop-opacity="1" stop-color="rgb(8.894348%, 39.456177%, 0.862122%)" offset="0.992188"/><stop stop-opacity="1" stop-color="rgb(8.964539%, 39.285278%, 0.553894%)" offset="0.996094"/><stop stop-opacity="1" stop-color="rgb(8.999634%, 39.199829%, 0.39978%)" offset="1"/></radialGradient><clipPath id="3c1f80c67b"><path d="M 392 100.875 L 417 100.875 L 417 125 L 392 125 Z M 392 100.875 " clip-rule="nonzero"/></clipPath></defs><g clip-path="url(#6af6eec91e)"><rect x="-81" fill="url(#16cc384ab1)" width="972" y="-80.999999" height="971.999992"/></g><path fill="#ffffff" d="M 404.65625 206.601562 C 295.347656 206.601562 206.601562 295.347656 206.601562 404.65625 C 206.601562 513.964844 295.347656 602.714844 404.65625 602.714844 C 513.964844 602.714844 602.714844 513.96875 602.714844 404.65625 C 602.714844 295.347656 513.964844 206.601562 404.65625 206.601562 Z M 404.65625 241.644531 C 494.625 241.644531 567.671875 314.691406 567.671875 404.65625 C 567.671875 494.625 494.625 567.671875 404.65625 567.671875 C 314.691406 567.671875 241.644531 494.625 241.644531 404.65625 C 241.644531 314.691406 314.691406 241.644531 404.65625 241.644531 Z M 404.65625 241.644531 " fill-opacity="1" fill-rule="evenodd"/><path fill="#ffffff" d="M 375.71875 394.800781 C 372.296875 434.082031 363.289062 472.183594 349.242188 509.226562 C 345.816406 518.265625 350.375 528.390625 359.417969 531.816406 C 368.464844 535.25 378.585938 530.6875 382.011719 521.648438 C 391.957031 495.425781 399.554688 468.714844 404.65625 441.476562 C 409.757812 468.714844 417.359375 495.425781 427.304688 521.648438 C 430.730469 530.6875 440.851562 535.25 449.894531 531.816406 C 458.941406 528.390625 463.496094 518.265625 460.070312 509.226562 C 446.035156 472.203125 437.023438 434.128906 433.605469 394.878906 C 454.59375 393.847656 475.59375 391.648438 496.589844 388.238281 C 506.132812 386.683594 512.625 377.671875 511.078125 368.132812 C 509.527344 358.582031 500.515625 352.089844 490.972656 353.644531 C 433.394531 362.996094 375.820312 362.632812 318.242188 353.628906 C 308.691406 352.132812 299.714844 358.675781 298.222656 368.234375 C 296.730469 377.789062 303.277344 386.757812 312.824219 388.25 C 333.789062 391.535156 354.746094 393.726562 375.71875 394.800781 Z M 375.71875 394.800781 " fill-opacity="1" fill-rule="evenodd"/><path fill="#ffffff" d="M 436.289062 314.316406 C 436.289062 315.355469 436.238281 316.386719 436.136719 317.417969 C 436.035156 318.449219 435.882812 319.472656 435.679688 320.488281 C 435.476562 321.503906 435.226562 322.507812 434.925781 323.5 C 434.625 324.492188 434.277344 325.464844 433.878906 326.421875 C 433.484375 327.378906 433.039062 328.3125 432.550781 329.226562 C 432.0625 330.140625 431.53125 331.027344 430.957031 331.890625 C 430.382812 332.75 429.765625 333.582031 429.109375 334.382812 C 428.449219 335.183594 427.753906 335.949219 427.023438 336.683594 C 426.289062 337.414062 425.523438 338.109375 424.722656 338.769531 C 423.921875 339.425781 423.089844 340.042969 422.230469 340.617188 C 421.367188 341.191406 420.480469 341.722656 419.566406 342.210938 C 418.652344 342.699219 417.71875 343.144531 416.761719 343.539062 C 415.804688 343.9375 414.832031 344.285156 413.839844 344.585938 C 412.847656 344.886719 411.84375 345.136719 410.828125 345.339844 C 409.8125 345.542969 408.789062 345.695312 407.757812 345.796875 C 406.726562 345.898438 405.695312 345.949219 404.65625 345.949219 C 403.621094 345.949219 402.589844 345.898438 401.558594 345.796875 C 400.527344 345.695312 399.503906 345.542969 398.488281 345.339844 C 397.472656 345.136719 396.46875 344.886719 395.476562 344.585938 C 394.484375 344.285156 393.511719 343.9375 392.554688 343.539062 C 391.597656 343.144531 390.660156 342.699219 389.746094 342.210938 C 388.832031 341.722656 387.945312 341.191406 387.085938 340.617188 C 386.222656 340.042969 385.390625 339.425781 384.589844 338.769531 C 383.789062 338.109375 383.023438 337.414062 382.292969 336.683594 C 381.558594 335.949219 380.863281 335.183594 380.207031 334.382812 C 379.550781 333.582031 378.933594 332.75 378.359375 331.890625 C 377.78125 331.027344 377.25 330.140625 376.761719 329.226562 C 376.273438 328.3125 375.832031 327.378906 375.433594 326.421875 C 375.039062 325.464844 374.691406 324.492188 374.390625 323.5 C 374.089844 322.507812 373.835938 321.503906 373.636719 320.488281 C 373.433594 319.472656 373.28125 318.449219 373.179688 317.417969 C 373.078125 316.386719 373.027344 315.355469 373.027344 314.316406 C 373.027344 313.28125 373.078125 312.25 373.179688 311.21875 C 373.28125 310.1875 373.433594 309.164062 373.636719 308.148438 C 373.835938 307.132812 374.089844 306.128906 374.390625 305.136719 C 374.691406 304.144531 375.039062 303.171875 375.433594 302.214844 C 375.832031 301.257812 376.273438 300.320312 376.761719 299.40625 C 377.25 298.492188 377.78125 297.605469 378.359375 296.746094 C 378.933594 295.882812 379.550781 295.050781 380.207031 294.25 C 380.863281 293.449219 381.558594 292.683594 382.292969 291.953125 C 383.023438 291.21875 383.789062 290.523438 384.589844 289.867188 C 385.390625 289.210938 386.222656 288.59375 387.085938 288.019531 C 387.945312 287.441406 388.832031 286.910156 389.746094 286.421875 C 390.660156 285.933594 391.597656 285.492188 392.554688 285.09375 C 393.511719 284.699219 394.484375 284.351562 395.476562 284.050781 C 396.46875 283.75 397.472656 283.496094 398.488281 283.296875 C 399.503906 283.09375 400.527344 282.941406 401.558594 282.839844 C 402.589844 282.738281 403.621094 282.6875 404.65625 282.6875 C 405.695312 282.6875 406.726562 282.738281 407.757812 282.839844 C 408.789062 282.941406 409.8125 283.09375 410.828125 283.296875 C 411.84375 283.496094 412.847656 283.75 413.839844 284.050781 C 414.832031 284.351562 415.804688 284.699219 416.761719 285.09375 C 417.71875 285.492188 418.652344 285.933594 419.566406 286.421875 C 420.480469 286.910156 421.367188 287.441406 422.230469 288.019531 C 423.089844 288.59375 423.921875 289.210938 424.722656 289.867188 C 425.523438 290.523438 426.289062 291.21875 427.023438 291.953125 C 427.753906 292.683594 428.449219 293.449219 429.109375 294.25 C 429.765625 295.050781 430.382812 295.882812 430.957031 296.746094 C 431.53125 297.605469 432.0625 298.492188 432.550781 299.40625 C 433.039062 300.320312 433.484375 301.257812 433.878906 302.214844 C 434.277344 303.171875 434.625 304.144531 434.925781 305.136719 C 435.226562 306.128906 435.476562 307.132812 435.679688 308.148438 C 435.882812 309.164062 436.035156 310.1875 436.136719 311.21875 C 436.238281 312.25 436.289062 313.28125 436.289062 314.316406 Z M 436.289062 314.316406 " fill-opacity="1" fill-rule="nonzero"/><path fill="#ffffff" d="M 393.683594 143.316406 C 392.382812 158.257812 388.953125 172.757812 383.613281 186.851562 C 382.304688 190.289062 384.039062 194.144531 387.480469 195.445312 C 390.917969 196.753906 394.773438 195.015625 396.074219 191.578125 C 399.863281 181.601562 402.75 171.4375 404.691406 161.070312 C 406.640625 171.4375 409.527344 181.601562 413.308594 191.578125 C 414.613281 195.015625 418.46875 196.753906 421.910156 195.445312 C 425.347656 194.144531 427.085938 190.289062 425.777344 186.851562 C 420.4375 172.765625 417.011719 158.273438 415.710938 143.34375 C 423.695312 142.949219 431.683594 142.109375 439.671875 140.816406 C 443.308594 140.222656 445.773438 136.796875 445.191406 133.160156 C 444.597656 129.53125 441.171875 127.058594 437.535156 127.648438 C 415.628906 131.210938 393.71875 131.070312 371.816406 127.644531 C 368.179688 127.078125 364.765625 129.5625 364.195312 133.199219 C 363.628906 136.839844 366.113281 140.25 369.75 140.824219 C 377.726562 142.070312 385.703125 142.898438 393.683594 143.316406 Z M 393.683594 143.316406 " fill-opacity="1" fill-rule="evenodd"/><g clip-path="url(#3c1f80c67b)"><path fill="#ffffff" d="M 416.726562 112.6875 C 416.726562 113.476562 416.648438 114.257812 416.496094 115.035156 C 416.339844 115.808594 416.113281 116.5625 415.808594 117.292969 C 415.507812 118.023438 415.136719 118.714844 414.699219 119.371094 C 414.257812 120.03125 413.761719 120.636719 413.203125 121.195312 C 412.644531 121.753906 412.035156 122.253906 411.378906 122.691406 C 410.722656 123.132812 410.027344 123.503906 409.296875 123.804688 C 408.566406 124.109375 407.816406 124.335938 407.039062 124.488281 C 406.265625 124.644531 405.480469 124.722656 404.691406 124.722656 C 403.902344 124.722656 403.117188 124.644531 402.34375 124.488281 C 401.570312 124.335938 400.816406 124.109375 400.085938 123.804688 C 399.355469 123.503906 398.664062 123.132812 398.003906 122.691406 C 397.347656 122.253906 396.742188 121.753906 396.179688 121.195312 C 395.621094 120.636719 395.125 120.03125 394.683594 119.371094 C 394.246094 118.714844 393.875 118.023438 393.574219 117.292969 C 393.269531 116.5625 393.042969 115.808594 392.886719 115.035156 C 392.734375 114.257812 392.65625 113.476562 392.65625 112.6875 C 392.65625 111.894531 392.734375 111.113281 392.886719 110.339844 C 393.042969 109.5625 393.269531 108.8125 393.574219 108.082031 C 393.875 107.351562 394.246094 106.65625 394.683594 106 C 395.125 105.34375 395.621094 104.734375 396.179688 104.175781 C 396.742188 103.617188 397.347656 103.117188 398.003906 102.679688 C 398.664062 102.242188 399.355469 101.871094 400.085938 101.566406 C 400.816406 101.265625 401.570312 101.035156 402.34375 100.882812 C 403.117188 100.730469 403.902344 100.652344 404.691406 100.652344 C 405.480469 100.652344 406.265625 100.730469 407.039062 100.882812 C 407.816406 101.035156 408.566406 101.265625 409.296875 101.566406 C 410.027344 101.871094 410.722656 102.242188 411.378906 102.679688 C 412.035156 103.117188 412.644531 103.617188 413.203125 104.175781 C 413.761719 104.734375 414.257812 105.34375 414.699219 106 C 415.136719 106.65625 415.507812 107.351562 415.808594 108.082031 C 416.113281 108.8125 416.339844 109.5625 416.496094 110.339844 C 416.648438 111.113281 416.726562 111.894531 416.726562 112.6875 Z M 416.726562 112.6875 " fill-opacity="1" fill-rule="nonzero"/></g><path fill="#ffffff" d="M 625.589844 264.46875 C 611.996094 270.808594 597.726562 275.09375 582.84375 277.511719 C 579.214844 278.105469 576.742188 281.53125 577.335938 285.160156 C 577.929688 288.796875 581.355469 291.261719 584.984375 290.671875 C 595.519531 288.960938 605.765625 286.386719 615.714844 282.886719 C 607.710938 289.742188 600.347656 297.332031 593.601562 305.601562 C 591.277344 308.445312 591.699219 312.648438 594.546875 314.976562 C 597.398438 317.308594 601.601562 316.878906 603.933594 314.03125 C 613.460938 302.363281 624.296875 292.148438 636.578125 283.550781 C 640.910156 290.273438 645.628906 296.78125 650.75 303.046875 C 653.074219 305.898438 657.28125 306.320312 660.128906 303.992188 C 662.984375 301.667969 663.40625 297.46875 661.074219 294.613281 C 647.039062 277.421875 636.210938 258.378906 628.21875 237.695312 C 626.898438 234.261719 623.03125 232.546875 619.597656 233.875 C 616.164062 235.203125 614.453125 239.0625 615.78125 242.496094 C 618.691406 250.027344 621.953125 257.351562 625.589844 264.46875 Z M 625.589844 264.46875 " fill-opacity="1" fill-rule="evenodd"/><path fill="#ffffff" d="M 668.035156 252.671875 C 671.359375 258.425781 669.386719 265.789062 663.628906 269.113281 C 657.882812 272.429688 650.511719 270.460938 647.195312 264.707031 C 643.871094 258.953125 645.847656 251.589844 651.601562 248.265625 C 657.351562 244.949219 664.71875 246.921875 668.035156 252.671875 Z M 668.035156 252.671875 " fill-opacity="1" fill-rule="evenodd"/><path fill="#ffffff" d="M 245.078125 611.976562 C 255.683594 601.363281 267.628906 592.464844 280.78125 585.101562 C 283.988281 583.300781 285.140625 579.234375 283.339844 576.019531 C 281.542969 572.8125 277.476562 571.664062 274.261719 573.460938 C 264.953125 578.675781 256.207031 584.601562 248.054688 591.292969 C 253.230469 582.105469 257.546875 572.460938 261.0625 562.386719 C 262.273438 558.914062 260.441406 555.105469 256.96875 553.890625 C 253.488281 552.679688 249.6875 554.519531 248.476562 557.992188 C 243.511719 572.214844 236.824219 585.515625 228.21875 597.796875 C 221.851562 592.960938 215.191406 588.464844 208.238281 584.324219 C 205.078125 582.445312 200.984375 583.484375 199.097656 586.644531 C 197.214844 589.808594 198.25 593.898438 201.414062 595.785156 C 220.484375 607.140625 237.175781 621.328125 251.757812 638.035156 C 254.175781 640.808594 258.390625 641.09375 261.164062 638.675781 C 263.9375 636.257812 264.222656 632.042969 261.804688 629.269531 C 256.5 623.1875 250.929688 617.417969 245.078125 611.976562 Z M 245.078125 611.976562 " fill-opacity="1" fill-rule="evenodd"/><path fill="#ffffff" d="M 209.21875 637.578125 C 204.128906 633.308594 203.46875 625.707031 207.738281 620.621094 C 212.003906 615.53125 219.605469 614.871094 224.691406 619.140625 C 229.78125 623.40625 230.441406 631.007812 226.175781 636.09375 C 221.90625 641.179688 214.304688 641.847656 209.21875 637.578125 Z M 209.21875 637.578125 " fill-opacity="1" fill-rule="evenodd"/><path fill="#ffffff" d="M 145.335938 370.179688 C 159.832031 374.054688 173.515625 379.953125 186.46875 387.664062 C 189.628906 389.542969 193.722656 388.503906 195.609375 385.34375 C 197.488281 382.183594 196.445312 378.082031 193.285156 376.203125 C 184.121094 370.746094 174.609375 366.136719 164.742188 362.421875 C 175.285156 362.308594 185.800781 361.226562 196.285156 359.234375 C 199.894531 358.546875 202.269531 355.054688 201.582031 351.4375 C 200.902344 347.820312 197.40625 345.445312 193.789062 346.132812 C 178.992188 348.945312 164.128906 349.800781 149.191406 348.496094 C 150.195312 340.558594 150.757812 332.542969 150.867188 324.453125 C 150.914062 320.773438 147.964844 317.742188 144.289062 317.695312 C 140.609375 317.648438 137.578125 320.589844 137.53125 324.273438 C 137.234375 346.464844 133.289062 368.015625 126.109375 389 C 124.917969 392.480469 126.777344 396.273438 130.265625 397.464844 C 133.746094 398.65625 137.539062 396.796875 138.730469 393.316406 C 141.347656 385.675781 143.554688 377.964844 145.335938 370.179688 Z M 145.335938 370.179688 " fill-opacity="1" fill-rule="evenodd"/><path fill="#ffffff" d="M 105.242188 351.925781 C 106.394531 345.390625 112.636719 341.015625 119.183594 342.167969 C 125.722656 343.320312 130.09375 349.5625 128.945312 356.109375 C 127.792969 362.648438 121.546875 367.019531 115 365.871094 C 108.464844 364.71875 104.089844 358.472656 105.242188 351.925781 Z M 105.242188 351.925781 " fill-opacity="1" fill-rule="evenodd"/><path fill="#ffffff" d="M 304.945312 162.828125 C 308.835938 177.316406 310.570312 192.117188 310.367188 207.1875 C 310.320312 210.867188 313.269531 213.890625 316.945312 213.945312 C 320.625 213.992188 323.65625 211.042969 323.703125 207.367188 C 323.84375 196.691406 323.082031 186.15625 321.367188 175.75 C 326.734375 184.828125 332.925781 193.390625 339.890625 201.46875 C 342.296875 204.257812 346.511719 204.574219 349.296875 202.167969 C 352.082031 199.765625 352.398438 195.546875 349.992188 192.761719 C 340.15625 181.355469 331.984375 168.910156 325.652344 155.324219 C 333.019531 152.222656 340.246094 148.703125 347.308594 144.753906 C 350.515625 142.953125 351.667969 138.886719 349.871094 135.671875 C 348.070312 132.464844 344.007812 131.3125 340.796875 133.113281 C 321.429688 143.949219 300.789062 151.3125 279.035156 155.589844 C 275.417969 156.296875 273.0625 159.804688 273.777344 163.414062 C 274.488281 167.023438 277.996094 169.378906 281.605469 168.671875 C 289.523438 167.113281 297.304688 165.171875 304.945312 162.828125 Z M 304.945312 162.828125 " fill-opacity="1" fill-rule="evenodd"/><path fill="#ffffff" d="M 300.703125 118.972656 C 306.941406 116.703125 313.855469 119.925781 316.121094 126.171875 C 318.398438 132.410156 315.175781 139.324219 308.929688 141.59375 C 302.691406 143.867188 295.777344 140.644531 293.507812 134.398438 C 291.234375 128.160156 294.457031 121.246094 300.703125 118.972656 Z M 300.703125 118.972656 " fill-opacity="1" fill-rule="evenodd"/><path fill="#ffffff" d="M 581.144531 597.816406 C 572.535156 585.53125 565.84375 572.222656 560.875 557.984375 C 559.660156 554.511719 555.859375 552.679688 552.386719 553.890625 C 548.914062 555.105469 547.074219 558.90625 548.285156 562.386719 C 551.800781 572.460938 556.121094 582.101562 561.296875 591.292969 C 553.144531 584.597656 544.398438 578.671875 535.085938 573.460938 C 531.871094 571.664062 527.804688 572.804688 526.007812 576.019531 C 524.21875 579.230469 525.359375 583.296875 528.574219 585.09375 C 541.722656 592.457031 553.660156 601.351562 564.25 611.949219 C 558.386719 617.382812 552.808594 623.167969 547.515625 629.296875 C 545.121094 632.082031 545.425781 636.292969 548.210938 638.695312 C 551.003906 641.101562 555.214844 640.785156 557.617188 638 C 572.109375 621.191406 588.980469 607.214844 607.972656 595.757812 C 611.117188 593.859375 612.132812 589.757812 610.230469 586.605469 C 608.332031 583.457031 604.230469 582.445312 601.078125 584.34375 C 594.164062 588.511719 587.519531 593 581.144531 597.816406 Z M 581.144531 597.816406 " fill-opacity="1" fill-rule="evenodd"/><path fill="#ffffff" d="M 600.132812 637.570312 C 595.042969 641.84375 587.441406 641.175781 583.179688 636.085938 C 578.910156 631 579.570312 623.40625 584.65625 619.132812 C 589.746094 614.863281 597.347656 615.53125 601.617188 620.621094 C 605.886719 625.707031 605.21875 633.300781 600.132812 637.570312 Z M 600.132812 637.570312 " fill-opacity="1" fill-rule="evenodd"/><path fill="#ffffff" d="M 228.273438 211.574219 C 236.890625 223.863281 243.578125 237.171875 248.542969 251.40625 C 249.757812 254.878906 253.5625 256.71875 257.039062 255.5 C 260.511719 254.285156 262.351562 250.484375 261.136719 247.011719 C 257.621094 236.9375 253.304688 227.289062 248.128906 218.105469 C 256.273438 224.792969 265.027344 230.71875 274.335938 235.929688 C 277.542969 237.730469 281.609375 236.585938 283.410156 233.371094 C 285.207031 230.160156 284.0625 226.09375 280.847656 224.296875 C 267.703125 216.941406 255.761719 208.046875 245.164062 197.441406 C 251.035156 192.007812 256.613281 186.230469 261.898438 180.101562 C 264.304688 177.308594 263.992188 173.097656 261.207031 170.695312 C 258.417969 168.292969 254.203125 168.605469 251.804688 171.390625 C 237.3125 188.199219 220.433594 202.175781 201.453125 213.632812 C 198.300781 215.53125 197.285156 219.632812 199.191406 222.785156 C 201.09375 225.9375 205.191406 226.945312 208.347656 225.046875 C 215.253906 220.878906 221.898438 216.390625 228.273438 211.574219 Z M 228.273438 211.574219 " fill-opacity="1" fill-rule="evenodd"/><path fill="#ffffff" d="M 209.292969 171.820312 C 214.378906 167.546875 221.972656 168.214844 226.246094 173.304688 C 230.515625 178.390625 229.847656 185.984375 224.761719 190.257812 C 219.671875 194.527344 212.078125 193.859375 207.808594 188.773438 C 203.539062 183.683594 204.203125 176.089844 209.292969 171.820312 Z M 209.292969 171.820312 " fill-opacity="1" fill-rule="evenodd"/><path fill="#ffffff" d="M 483.765625 155.351562 C 477.433594 168.953125 469.253906 181.402344 459.410156 192.816406 C 457.007812 195.601562 457.320312 199.820312 460.105469 202.222656 C 462.890625 204.628906 467.105469 204.3125 469.511719 201.527344 C 476.480469 193.445312 482.671875 184.882812 488.035156 175.808594 C 486.320312 186.210938 485.558594 196.746094 485.699219 207.417969 C 485.753906 211.097656 488.78125 214.046875 492.457031 214 C 496.136719 213.953125 499.085938 210.921875 499.035156 207.242188 C 498.839844 192.175781 500.570312 177.390625 504.453125 162.910156 C 512.09375 165.273438 519.890625 167.222656 527.839844 168.734375 C 531.457031 169.421875 534.949219 167.042969 535.640625 163.429688 C 536.328125 159.816406 533.949219 156.324219 530.332031 155.636719 C 508.53125 151.488281 487.988281 143.859375 468.570312 133.148438 C 465.351562 131.367188 461.289062 132.546875 459.511719 135.769531 C 457.734375 138.992188 458.914062 143.050781 462.136719 144.828125 C 469.199219 148.722656 476.410156 152.238281 483.765625 155.351562 Z M 483.765625 155.351562 " fill-opacity="1" fill-rule="evenodd"/><path fill="#ffffff" d="M 508.703125 119.035156 C 514.945312 121.300781 518.167969 128.214844 515.902344 134.453125 C 513.625 140.699219 506.710938 143.921875 500.472656 141.648438 C 494.226562 139.378906 491.007812 132.464844 493.28125 126.226562 C 495.550781 119.980469 502.460938 116.757812 508.703125 119.035156 Z M 508.703125 119.035156 " fill-opacity="1" fill-rule="evenodd"/><path fill="#ffffff" d="M 415.664062 666 C 416.964844 651.058594 420.390625 636.558594 425.738281 622.464844 C 427.039062 619.027344 425.308594 615.171875 421.867188 613.871094 C 418.421875 612.5625 414.574219 614.296875 413.265625 617.738281 C 409.488281 627.714844 406.59375 637.878906 404.652344 648.246094 C 402.710938 637.878906 399.820312 627.714844 396.035156 617.738281 C 394.734375 614.296875 390.878906 612.5625 387.4375 613.871094 C 384 615.171875 382.261719 619.027344 383.5625 622.464844 C 388.910156 636.550781 392.335938 651.042969 393.636719 665.972656 C 385.648438 666.367188 377.660156 667.207031 369.667969 668.5 C 366.039062 669.09375 363.566406 672.519531 364.160156 676.15625 C 364.753906 679.785156 368.179688 682.257812 371.808594 681.664062 C 393.71875 678.105469 415.625 678.246094 437.535156 681.671875 C 441.171875 682.238281 444.582031 679.753906 445.148438 676.113281 C 445.71875 672.476562 443.226562 669.066406 439.589844 668.492188 C 431.617188 667.246094 423.640625 666.417969 415.664062 666 Z M 415.664062 666 " fill-opacity="1" fill-rule="evenodd"/><path fill="#ffffff" d="M 416.6875 696.628906 C 416.6875 697.417969 416.609375 698.203125 416.453125 698.976562 C 416.300781 699.753906 416.070312 700.503906 415.769531 701.234375 C 415.46875 701.964844 415.097656 702.660156 414.65625 703.316406 C 414.21875 703.972656 413.71875 704.582031 413.160156 705.140625 C 412.601562 705.699219 411.992188 706.195312 411.335938 706.636719 C 410.679688 707.074219 409.984375 707.445312 409.257812 707.75 C 408.527344 708.050781 407.773438 708.277344 407 708.433594 C 406.222656 708.585938 405.441406 708.664062 404.652344 708.664062 C 403.859375 708.664062 403.078125 708.585938 402.304688 708.433594 C 401.527344 708.277344 400.773438 708.050781 400.046875 707.75 C 399.316406 707.445312 398.621094 707.074219 397.964844 706.636719 C 397.308594 706.195312 396.699219 705.699219 396.140625 705.140625 C 395.582031 704.582031 395.082031 703.972656 394.644531 703.316406 C 394.203125 702.660156 393.835938 701.964844 393.53125 701.234375 C 393.230469 700.503906 393 699.753906 392.847656 698.976562 C 392.691406 698.203125 392.617188 697.417969 392.617188 696.628906 C 392.617188 695.839844 392.691406 695.054688 392.847656 694.28125 C 393 693.507812 393.230469 692.753906 393.53125 692.023438 C 393.835938 691.292969 394.203125 690.601562 394.644531 689.941406 C 395.082031 689.285156 395.582031 688.679688 396.140625 688.121094 C 396.699219 687.5625 397.308594 687.0625 397.964844 686.621094 C 398.621094 686.183594 399.316406 685.8125 400.046875 685.511719 C 400.773438 685.207031 401.527344 684.980469 402.304688 684.824219 C 403.078125 684.671875 403.859375 684.59375 404.652344 684.59375 C 405.441406 684.59375 406.222656 684.671875 407 684.824219 C 407.773438 684.980469 408.527344 685.207031 409.257812 685.511719 C 409.984375 685.8125 410.679688 686.183594 411.335938 686.621094 C 411.992188 687.0625 412.601562 687.5625 413.160156 688.121094 C 413.71875 688.679688 414.21875 689.285156 414.65625 689.941406 C 415.097656 690.601562 415.46875 691.292969 415.769531 692.023438 C 416.070312 692.753906 416.300781 693.507812 416.453125 694.28125 C 416.609375 695.054688 416.6875 695.839844 416.6875 696.628906 Z M 416.6875 696.628906 " fill-opacity="1" fill-rule="nonzero"/><path fill="#ffffff" d="M 183.847656 544.929688 C 197.441406 538.582031 211.710938 534.304688 226.585938 531.878906 C 230.214844 531.292969 232.6875 527.859375 232.09375 524.230469 C 231.503906 520.601562 228.078125 518.128906 224.445312 518.722656 C 213.917969 520.429688 203.667969 523.011719 193.722656 526.511719 C 201.726562 519.648438 209.082031 512.058594 215.832031 503.796875 C 218.160156 500.945312 217.730469 496.742188 214.882812 494.414062 C 212.03125 492.089844 207.828125 492.511719 205.5 495.359375 C 195.96875 507.035156 185.140625 517.242188 172.855469 525.839844 C 168.523438 519.117188 163.800781 512.617188 158.6875 506.34375 C 156.359375 503.5 152.15625 503.070312 149.300781 505.398438 C 146.453125 507.726562 146.027344 511.929688 148.355469 514.777344 C 162.390625 531.976562 173.222656 551.019531 181.210938 571.703125 C 182.539062 575.136719 186.402344 576.84375 189.832031 575.515625 C 193.265625 574.195312 194.976562 570.335938 193.648438 566.902344 C 190.746094 559.367188 187.476562 552.039062 183.847656 544.929688 Z M 183.847656 544.929688 " fill-opacity="1" fill-rule="evenodd"/><path fill="#ffffff" d="M 141.394531 556.71875 C 138.070312 550.96875 140.046875 543.601562 145.800781 540.285156 C 151.550781 536.960938 158.917969 538.9375 162.242188 544.683594 C 165.558594 550.4375 163.585938 557.800781 157.835938 561.125 C 152.082031 564.449219 144.71875 562.472656 141.394531 556.71875 Z M 141.394531 556.71875 " fill-opacity="1" fill-rule="evenodd"/><path fill="#ffffff" d="M 172.859375 283.546875 C 185.15625 292.148438 195.992188 302.363281 205.527344 314.039062 C 207.855469 316.890625 212.058594 317.316406 214.910156 314.984375 C 217.757812 312.664062 218.1875 308.453125 215.859375 305.605469 C 209.109375 297.34375 201.753906 289.757812 193.742188 282.890625 C 203.695312 286.394531 213.9375 288.96875 224.472656 290.683594 C 228.105469 291.277344 231.53125 288.804688 232.121094 285.171875 C 232.714844 281.535156 230.242188 278.109375 226.613281 277.519531 C 211.746094 275.101562 197.480469 270.828125 183.894531 264.488281 C 187.550781 257.371094 190.820312 250.035156 193.6875 242.46875 C 194.996094 239.03125 193.265625 235.175781 189.820312 233.867188 C 186.378906 232.566406 182.527344 234.296875 181.222656 237.742188 C 173.351562 258.488281 162.277344 277.394531 148.355469 294.65625 C 146.046875 297.523438 146.496094 301.71875 149.363281 304.03125 C 152.222656 306.34375 156.425781 305.890625 158.734375 303.023438 C 163.800781 296.746094 168.515625 290.253906 172.859375 283.546875 Z M 172.859375 283.546875 " fill-opacity="1" fill-rule="evenodd"/><path fill="#ffffff" d="M 141.421875 252.683594 C 144.746094 246.929688 152.109375 244.953125 157.863281 248.277344 C 163.613281 251.59375 165.585938 258.964844 162.261719 264.714844 C 158.945312 270.46875 151.578125 272.445312 145.828125 269.121094 C 140.074219 265.804688 138.097656 258.433594 141.421875 252.683594 Z M 141.421875 252.683594 " fill-opacity="1" fill-rule="evenodd"/><path fill="#ffffff" d="M 663.976562 439.203125 C 649.484375 435.328125 635.800781 429.429688 622.847656 421.71875 C 619.6875 419.839844 615.59375 420.882812 613.707031 424.042969 C 611.824219 427.203125 612.867188 431.296875 616.027344 433.183594 C 625.195312 438.636719 634.703125 443.25 644.574219 446.960938 C 634.03125 447.078125 623.511719 448.160156 613.03125 450.148438 C 609.421875 450.835938 607.042969 454.332031 607.734375 457.945312 C 608.414062 461.5625 611.90625 463.941406 615.523438 463.253906 C 630.324219 460.441406 645.1875 459.574219 660.121094 460.890625 C 659.121094 468.824219 658.554688 476.832031 658.445312 484.933594 C 658.398438 488.609375 661.347656 491.632812 665.027344 491.6875 C 668.703125 491.734375 671.734375 488.785156 671.78125 485.109375 C 672.082031 462.917969 676.027344 441.363281 683.203125 420.382812 C 684.398438 416.902344 682.539062 413.109375 679.050781 411.917969 C 675.570312 410.726562 671.777344 412.585938 670.582031 416.066406 C 667.96875 423.707031 665.761719 431.417969 663.976562 439.203125 Z M 663.976562 439.203125 " fill-opacity="1" fill-rule="evenodd"/><path fill="#ffffff" d="M 704.074219 457.457031 C 702.921875 463.996094 696.675781 468.367188 690.132812 467.214844 C 683.59375 466.066406 679.21875 459.8125 680.371094 453.273438 C 681.523438 446.734375 687.769531 442.355469 694.3125 443.515625 C 700.851562 444.664062 705.222656 450.910156 704.074219 457.457031 Z M 704.074219 457.457031 " fill-opacity="1" fill-rule="evenodd"/><path fill="#ffffff" d="M 564.359375 197.394531 C 553.753906 208.011719 541.808594 216.914062 528.65625 224.277344 C 525.441406 226.066406 524.296875 230.132812 526.097656 233.347656 C 527.886719 236.558594 531.953125 237.707031 535.167969 235.910156 C 544.480469 230.699219 553.226562 224.773438 561.378906 218.078125 C 556.199219 227.265625 551.882812 236.910156 548.367188 246.984375 C 547.15625 250.457031 548.996094 254.265625 552.46875 255.476562 C 555.941406 256.691406 559.75 254.859375 560.960938 251.378906 C 565.921875 237.15625 572.609375 223.855469 581.210938 211.574219 C 587.578125 216.410156 594.238281 220.90625 601.195312 225.046875 C 604.355469 226.925781 608.453125 225.890625 610.335938 222.730469 C 612.222656 219.5625 611.179688 215.46875 608.019531 213.589844 C 588.949219 202.230469 572.253906 188.042969 557.671875 171.335938 C 555.253906 168.5625 551.039062 168.277344 548.265625 170.695312 C 545.496094 173.121094 545.207031 177.335938 547.625 180.109375 C 552.9375 186.191406 558.511719 191.953125 564.359375 197.394531 Z M 564.359375 197.394531 " fill-opacity="1" fill-rule="evenodd"/><path fill="#ffffff" d="M 600.214844 171.796875 C 605.300781 176.070312 605.96875 183.664062 601.699219 188.75 C 597.425781 193.839844 589.828125 194.507812 584.738281 190.234375 C 579.652344 185.964844 578.992188 178.363281 583.261719 173.277344 C 587.53125 168.1875 595.125 167.527344 600.214844 171.796875 Z M 600.214844 171.796875 " fill-opacity="1" fill-rule="evenodd"/><path fill="#ffffff" d="M 325.554688 654.054688 C 331.890625 640.460938 340.070312 628.007812 349.910156 616.585938 C 352.316406 613.800781 352.003906 609.59375 349.214844 607.1875 C 346.425781 604.785156 342.214844 605.097656 339.808594 607.882812 C 332.84375 615.96875 326.652344 624.527344 321.277344 633.601562 C 323 623.199219 323.757812 612.65625 323.613281 601.992188 C 323.566406 598.3125 320.542969 595.363281 316.863281 595.410156 C 313.179688 595.460938 310.238281 598.492188 310.285156 602.167969 C 310.484375 617.234375 308.753906 632.019531 304.863281 646.492188 C 297.226562 644.136719 289.429688 642.191406 281.480469 640.675781 C 277.863281 639.988281 274.371094 642.367188 273.683594 645.976562 C 272.996094 649.59375 275.371094 653.085938 278.988281 653.773438 C 300.789062 657.921875 321.332031 665.550781 340.742188 676.257812 C 343.964844 678.035156 348.023438 676.863281 349.800781 673.640625 C 351.578125 670.421875 350.410156 666.363281 347.1875 664.582031 C 340.117188 660.6875 332.910156 657.171875 325.554688 654.054688 Z M 325.554688 654.054688 " fill-opacity="1" fill-rule="evenodd"/><path fill="#ffffff" d="M 300.613281 690.378906 C 294.375 688.109375 291.152344 681.195312 293.421875 674.949219 C 295.695312 668.710938 302.609375 665.488281 308.847656 667.757812 C 315.085938 670.03125 318.316406 676.945312 316.039062 683.183594 C 313.765625 689.421875 306.859375 692.652344 300.613281 690.378906 Z M 300.613281 690.378906 " fill-opacity="1" fill-rule="evenodd"/><path fill="#ffffff" d="M 149.136719 460.917969 C 164.082031 459.601562 178.949219 460.460938 193.761719 463.28125 C 197.375 463.960938 200.867188 461.582031 201.554688 457.972656 C 202.242188 454.359375 199.867188 450.863281 196.25 450.175781 C 185.765625 448.1875 175.257812 447.105469 164.714844 446.988281 C 174.582031 443.277344 184.09375 438.664062 193.257812 433.210938 C 196.417969 431.324219 197.460938 427.230469 195.574219 424.070312 C 193.695312 420.902344 189.601562 419.867188 186.433594 421.746094 C 173.496094 429.457031 159.816406 435.347656 145.335938 439.222656 C 143.566406 431.425781 141.351562 423.703125 138.691406 416.058594 C 137.476562 412.585938 133.671875 410.746094 130.195312 411.960938 C 126.722656 413.171875 124.882812 416.972656 126.097656 420.445312 C 133.40625 441.402344 137.074219 463.007812 137.503906 485.175781 C 137.574219 488.855469 140.617188 491.785156 144.296875 491.714844 C 147.980469 491.640625 150.910156 488.597656 150.835938 484.917969 C 150.675781 476.847656 150.117188 468.84375 149.136719 460.917969 Z M 149.136719 460.917969 " fill-opacity="1" fill-rule="evenodd"/><path fill="#ffffff" d="M 105.214844 457.484375 C 104.054688 450.9375 108.429688 444.691406 114.972656 443.542969 C 121.511719 442.382812 127.757812 446.757812 128.917969 453.300781 C 130.066406 459.839844 125.695312 466.085938 119.15625 467.242188 C 112.609375 468.394531 106.367188 464.023438 105.214844 457.484375 Z M 105.214844 457.484375 " fill-opacity="1" fill-rule="evenodd"/><path fill="#ffffff" d="M 636.5625 525.871094 C 624.269531 517.269531 613.425781 507.054688 603.890625 495.371094 C 601.570312 492.527344 597.367188 492.105469 594.511719 494.425781 C 591.664062 496.753906 591.238281 500.957031 593.566406 503.8125 C 600.316406 512.074219 607.671875 519.660156 615.675781 526.527344 C 605.730469 523.023438 595.480469 520.445312 584.949219 518.734375 C 581.320312 518.140625 577.886719 520.613281 577.300781 524.246094 C 576.707031 527.875 579.175781 531.308594 582.8125 531.894531 C 597.679688 534.316406 611.941406 538.589844 625.523438 544.929688 C 621.871094 552.039062 618.601562 559.382812 615.730469 566.949219 C 614.429688 570.386719 616.15625 574.242188 619.597656 575.542969 C 623.042969 576.851562 626.890625 575.121094 628.199219 571.675781 C 636.074219 550.921875 647.148438 532.023438 661.070312 514.765625 C 663.378906 511.894531 662.929688 507.699219 660.0625 505.386719 C 657.199219 503.074219 653 503.527344 650.6875 506.394531 C 645.621094 512.671875 640.910156 519.164062 636.5625 525.871094 Z M 636.5625 525.871094 " fill-opacity="1" fill-rule="evenodd"/><path fill="#ffffff" d="M 668.003906 556.734375 C 664.679688 562.488281 657.316406 564.464844 651.5625 561.140625 C 645.8125 557.816406 643.835938 550.453125 647.152344 544.699219 C 650.476562 538.949219 657.839844 536.972656 663.597656 540.296875 C 669.351562 543.613281 671.320312 550.984375 668.003906 556.734375 Z M 668.003906 556.734375 " fill-opacity="1" fill-rule="evenodd"/><path fill="#ffffff" d="M 504.363281 646.507812 C 500.472656 632.019531 498.738281 617.226562 498.933594 602.15625 C 498.988281 598.46875 496.039062 595.445312 492.363281 595.398438 C 488.675781 595.351562 485.652344 598.292969 485.605469 601.976562 C 485.460938 612.644531 486.21875 623.1875 487.941406 633.585938 C 482.574219 624.515625 476.375 615.953125 469.410156 607.871094 C 467.003906 605.082031 462.796875 604.769531 460.011719 607.175781 C 457.21875 609.570312 456.910156 613.789062 459.308594 616.574219 C 469.144531 627.988281 477.324219 640.425781 483.65625 654.011719 C 476.28125 657.121094 469.0625 660.632812 462 664.589844 C 458.785156 666.390625 457.640625 670.453125 459.4375 673.664062 C 461.230469 676.878906 465.296875 678.023438 468.511719 676.222656 C 487.878906 665.386719 508.511719 658.023438 530.273438 653.753906 C 533.882812 653.046875 536.238281 649.539062 535.53125 645.929688 C 534.820312 642.3125 531.3125 639.957031 527.703125 640.671875 C 519.78125 642.222656 511.996094 644.164062 504.363281 646.507812 Z M 504.363281 646.507812 " fill-opacity="1" fill-rule="evenodd"/><path fill="#ffffff" d="M 508.605469 690.363281 C 502.359375 692.632812 495.453125 689.410156 493.179688 683.171875 C 490.910156 676.925781 494.132812 670.019531 500.371094 667.746094 C 506.617188 665.476562 513.523438 668.699219 515.796875 674.9375 C 518.066406 681.183594 514.84375 688.089844 508.605469 690.363281 Z M 508.605469 690.363281 " fill-opacity="1" fill-rule="evenodd"/><path fill="#ffffff" d="M 660.175781 348.46875 C 645.234375 349.78125 630.367188 348.917969 615.550781 346.105469 C 611.941406 345.417969 608.449219 347.792969 607.761719 351.410156 C 607.070312 355.027344 609.449219 358.519531 613.066406 359.207031 C 623.546875 361.199219 634.058594 362.28125 644.601562 362.394531 C 634.730469 366.109375 625.222656 370.71875 616.054688 376.175781 C 612.894531 378.0625 611.851562 382.15625 613.738281 385.316406 C 615.621094 388.476562 619.714844 389.515625 622.878906 387.636719 C 635.820312 379.925781 649.496094 374.035156 663.976562 370.160156 C 665.75 377.960938 667.960938 385.683594 670.625 393.324219 C 671.835938 396.796875 675.644531 398.636719 679.117188 397.425781 C 682.589844 396.210938 684.429688 392.410156 683.21875 388.929688 C 675.910156 367.972656 672.238281 346.375 671.808594 324.207031 C 671.742188 320.527344 668.695312 317.601562 665.019531 317.667969 C 661.335938 317.742188 658.40625 320.789062 658.480469 324.464844 C 658.636719 332.535156 659.195312 340.539062 660.175781 348.46875 Z M 660.175781 348.46875 " fill-opacity="1" fill-rule="evenodd"/><path fill="#ffffff" d="M 704.101562 351.902344 C 705.257812 358.445312 700.886719 364.691406 694.339844 365.84375 C 687.800781 367 681.554688 362.621094 680.398438 356.082031 C 679.246094 349.542969 683.621094 343.292969 690.160156 342.140625 C 696.703125 340.988281 702.949219 345.363281 704.101562 351.902344 Z M 704.101562 351.902344 " fill-opacity="1" fill-rule="evenodd"/></svg>