<svg xmlns="http://www.w3.org/2000/svg" xmlns:xlink="http://www.w3.org/1999/xlink" width="100" zoomAndPan="magnify" viewBox="0 0 75 74.999997" height="100" preserveAspectRatio="xMidYMid meet" version="1.0"><defs><clipPath id="4f4ccb5390"><path d="M 0 2.625 L 75 2.625 L 75 72.375 L 0 72.375 Z M 0 2.625 " clip-rule="nonzero"/></clipPath></defs><g clip-path="url(#4f4ccb5390)"><path fill="#39b54a" d="M 74.714844 42.984375 C 74.464844 42.28125 73.820312 41.820312 73.074219 41.804688 L 65.667969 41.65625 L 62.84375 34.808594 C 62.558594 34.121094 61.894531 33.691406 61.148438 33.710938 C 60.40625 33.730469 59.765625 34.199219 59.523438 34.902344 L 59.074219 36.191406 C 55.617188 32.382812 51.1875 29.734375 46.289062 28.496094 C 50.628906 26.183594 53.589844 21.613281 53.589844 16.363281 C 53.589844 8.792969 47.429688 2.632812 39.855469 2.632812 C 32.285156 2.632812 26.125 8.792969 26.125 16.363281 C 26.125 21.617188 29.089844 26.191406 33.433594 28.5 C 29.445312 29.515625 25.734375 31.46875 22.605469 34.25 C 22.234375 34.21875 21.976562 34.175781 21.769531 34.101562 C 21.394531 33.964844 20.957031 33.632812 20.085938 32.972656 C 19.863281 32.804688 19.617188 32.617188 19.335938 32.410156 C 17.769531 31.234375 15.660156 31.234375 14.089844 32.410156 C 13.8125 32.617188 13.5625 32.804688 13.34375 32.972656 C 12.472656 33.632812 12.035156 33.964844 11.660156 34.101562 C 11.28125 34.238281 10.734375 34.265625 9.644531 34.320312 C 9.363281 34.332031 9.054688 34.347656 8.707031 34.367188 C 6.75 34.476562 5.136719 35.832031 4.6875 37.742188 C 4.609375 38.082031 4.539062 38.382812 4.476562 38.652344 C 4.234375 39.71875 4.113281 40.253906 3.914062 40.601562 C 3.714844 40.945312 3.3125 41.320312 2.507812 42.0625 C 2.304688 42.253906 2.078125 42.464844 1.824219 42.699219 C 0.394531 44.042969 0.03125 46.121094 0.914062 47.871094 C 1.070312 48.179688 1.210938 48.457031 1.339844 48.703125 C 1.835938 49.675781 2.089844 50.164062 2.15625 50.558594 C 2.226562 50.953125 2.160156 51.496094 2.023438 52.582031 C 1.988281 52.855469 1.949219 53.164062 1.910156 53.507812 C 1.675781 55.457031 2.730469 57.28125 4.53125 58.054688 C 4.851562 58.191406 5.136719 58.3125 5.394531 58.417969 C 5.402344 58.421875 5.414062 58.425781 5.421875 58.433594 L 1.421875 67.023438 C 1.234375 67.429688 1.285156 67.90625 1.558594 68.257812 C 1.832031 68.613281 2.277344 68.789062 2.71875 68.710938 L 7.089844 67.949219 L 9.324219 71.785156 C 9.539062 72.15625 9.933594 72.382812 10.359375 72.382812 C 10.378906 72.382812 10.394531 72.382812 10.414062 72.382812 C 10.859375 72.363281 11.257812 72.09375 11.449219 71.691406 L 15.480469 63.03125 C 16.058594 62.859375 16.421875 62.773438 16.714844 62.773438 C 17.113281 62.773438 17.636719 62.933594 18.683594 63.257812 C 18.777344 63.285156 18.878906 63.316406 18.984375 63.347656 L 21.863281 70.035156 C 22.039062 70.445312 22.429688 70.722656 22.875 70.757812 C 22.90625 70.757812 22.9375 70.761719 22.964844 70.761719 C 23.378906 70.761719 23.765625 70.546875 23.984375 70.195312 L 26.328125 66.421875 L 30.675781 67.3125 C 31.113281 67.402344 31.566406 67.238281 31.847656 66.894531 C 32.128906 66.546875 32.195312 66.070312 32.019531 65.660156 L 28.765625 58.109375 C 28.808594 58.089844 28.851562 58.074219 28.894531 58.054688 C 30.699219 57.28125 31.753906 55.457031 31.519531 53.507812 C 31.476562 53.164062 31.441406 52.855469 31.40625 52.582031 C 31.390625 52.453125 31.375 52.332031 31.359375 52.21875 L 54.171875 52.21875 L 52.9375 57.335938 C 52.761719 58.058594 53.046875 58.800781 53.660156 59.21875 C 53.96875 59.429688 54.316406 59.53125 54.664062 59.53125 C 55.019531 59.53125 55.371094 59.425781 55.679688 59.210938 L 61.757812 54.976562 L 68.070312 58.855469 C 68.703125 59.246094 69.496094 59.203125 70.085938 58.75 C 70.675781 58.292969 70.917969 57.539062 70.699219 56.828125 L 68.554688 49.738281 L 74.191406 44.933594 C 74.757812 44.449219 74.964844 43.683594 74.714844 42.984375 Z M 58.164062 38.8125 L 57.089844 41.902344 L 49.707031 42.472656 C 48.964844 42.53125 48.351562 43.03125 48.140625 43.746094 C 47.929688 44.460938 48.179688 45.214844 48.769531 45.660156 L 54.257812 49.820312 L 40.929688 49.820312 L 46.8125 43.179688 C 47.089844 42.863281 47.183594 42.421875 47.058594 42.019531 L 43.347656 30.351562 C 49.152344 31.207031 54.402344 34.179688 58.164062 38.8125 Z M 31.601562 42.699219 C 31.347656 42.460938 31.121094 42.253906 30.917969 42.0625 C 30.117188 41.320312 29.714844 40.945312 29.515625 40.601562 C 29.316406 40.253906 29.191406 39.71875 28.949219 38.652344 C 28.886719 38.382812 28.820312 38.082031 28.738281 37.742188 C 28.390625 36.257812 27.335938 35.109375 25.964844 34.621094 C 29.039062 32.375 32.601562 30.914062 36.367188 30.355469 L 32.65625 42.019531 C 32.527344 42.421875 32.621094 42.863281 32.902344 43.179688 L 38.78125 49.820312 L 31.53125 49.820312 C 31.664062 49.53125 31.847656 49.175781 32.089844 48.703125 C 32.214844 48.457031 32.355469 48.179688 32.515625 47.871094 C 33.398438 46.121094 33.03125 44.042969 31.601562 42.699219 Z M 39.851562 30.097656 C 39.855469 30.097656 39.855469 30.097656 39.855469 30.097656 C 39.859375 30.097656 39.859375 30.097656 39.859375 30.097656 C 40.160156 30.097656 40.457031 30.105469 40.753906 30.117188 L 44.5625 42.097656 L 39.855469 47.410156 L 35.148438 42.097656 L 38.960938 30.117188 C 39.257812 30.105469 39.554688 30.097656 39.851562 30.097656 Z M 28.523438 16.363281 C 28.523438 10.113281 33.605469 5.03125 39.855469 5.03125 C 46.105469 5.03125 51.191406 10.113281 51.191406 16.363281 C 51.191406 22.613281 46.105469 27.695312 39.859375 27.699219 C 39.859375 27.699219 39.855469 27.699219 39.855469 27.699219 C 33.605469 27.695312 28.523438 22.613281 28.523438 16.363281 Z M 10.242188 68.59375 L 8.746094 66.019531 C 8.492188 65.585938 7.996094 65.355469 7.5 65.441406 L 4.570312 65.953125 L 7.511719 59.628906 C 7.738281 59.910156 8.003906 60.324219 8.410156 60.949219 C 8.558594 61.183594 8.726562 61.445312 8.917969 61.734375 C 9.738281 62.988281 11.085938 63.703125 12.511719 63.71875 Z M 25.988281 63.902344 C 25.496094 63.800781 24.992188 64.019531 24.726562 64.445312 L 23.15625 66.976562 L 21.71875 63.632812 C 22.835938 63.410156 23.847656 62.746094 24.507812 61.734375 C 24.699219 61.445312 24.867188 61.183594 25.019531 60.949219 C 25.609375 60.03125 25.910156 59.570312 26.214844 59.3125 C 26.308594 59.234375 26.425781 59.15625 26.570312 59.078125 L 28.90625 64.5 Z M 29.023438 52.878906 C 29.058594 53.152344 29.097656 53.453125 29.136719 53.792969 C 29.242188 54.6875 28.777344 55.492188 27.949219 55.847656 C 27.636719 55.984375 27.355469 56.101562 27.101562 56.207031 C 24.640625 57.246094 24.449219 57.40625 23.003906 59.648438 C 22.851562 59.878906 22.6875 60.136719 22.5 60.421875 C 22.007812 61.175781 21.132812 61.492188 20.269531 61.234375 C 19.941406 61.132812 19.652344 61.042969 19.390625 60.964844 C 16.839844 60.175781 16.589844 60.175781 14.039062 60.964844 C 13.777344 61.042969 13.484375 61.132812 13.15625 61.234375 C 12.292969 61.492188 11.417969 61.175781 10.925781 60.421875 C 10.738281 60.136719 10.574219 59.878906 10.425781 59.648438 C 8.976562 57.40625 8.785156 57.246094 6.324219 56.207031 C 6.074219 56.101562 5.792969 55.984375 5.476562 55.847656 C 4.648438 55.492188 4.183594 54.6875 4.289062 53.792969 C 4.332031 53.453125 4.367188 53.152344 4.402344 52.878906 C 4.734375 50.230469 4.691406 49.984375 3.472656 47.609375 C 3.347656 47.363281 3.210938 47.09375 3.054688 46.789062 C 2.648438 45.984375 2.8125 45.066406 3.46875 44.449219 C 3.71875 44.214844 3.941406 44.007812 4.140625 43.824219 C 6.097656 42.007812 6.222656 41.789062 6.816406 39.1875 C 6.878906 38.921875 6.945312 38.621094 7.023438 38.289062 C 7.230469 37.414062 7.941406 36.8125 8.84375 36.765625 C 9.183594 36.746094 9.488281 36.730469 9.761719 36.714844 C 12.429688 36.582031 12.664062 36.5 14.792969 34.886719 C 15.011719 34.71875 15.253906 34.535156 15.527344 34.332031 C 15.886719 34.0625 16.300781 33.925781 16.714844 33.925781 C 17.125 33.925781 17.539062 34.0625 17.898438 34.332031 C 18.175781 34.535156 18.417969 34.71875 18.636719 34.886719 C 20.761719 36.5 21 36.582031 23.664062 36.714844 C 23.9375 36.730469 24.242188 36.746094 24.585938 36.765625 C 25.484375 36.8125 26.199219 37.414062 26.402344 38.289062 C 26.480469 38.621094 26.550781 38.921875 26.609375 39.1875 C 27.203125 41.789062 27.328125 42.007812 29.285156 43.824219 C 29.488281 44.007812 29.710938 44.214844 29.960938 44.449219 C 30.617188 45.066406 30.777344 45.984375 30.371094 46.789062 C 30.21875 47.09375 30.078125 47.363281 29.953125 47.609375 C 28.734375 49.984375 28.691406 50.230469 29.023438 52.878906 Z M 66.6875 48.175781 C 66.148438 48.632812 65.933594 49.367188 66.140625 50.042969 L 67.929688 55.953125 L 62.667969 52.722656 C 62.066406 52.351562 61.300781 52.371094 60.722656 52.777344 L 55.652344 56.304688 L 57.101562 50.300781 C 57.269531 49.613281 57.011719 48.894531 56.449219 48.46875 L 51.527344 44.738281 L 57.683594 44.261719 C 58.386719 44.207031 58.992188 43.738281 59.226562 43.074219 L 61.25 37.238281 L 63.609375 42.945312 C 63.878906 43.601562 64.507812 44.03125 65.214844 44.046875 L 71.390625 44.171875 Z M 16.714844 36.847656 C 10.769531 36.847656 5.933594 41.679688 5.933594 47.625 C 5.933594 53.566406 10.769531 58.402344 16.714844 58.402344 C 22.65625 58.402344 27.492188 53.566406 27.492188 47.625 C 27.492188 41.679688 22.65625 36.847656 16.714844 36.847656 Z M 16.714844 56.003906 C 12.09375 56.003906 8.335938 52.246094 8.335938 47.625 C 8.335938 43.003906 12.09375 39.246094 16.714844 39.246094 C 21.332031 39.246094 25.09375 43.003906 25.09375 47.625 C 25.09375 52.246094 21.332031 56.003906 16.714844 56.003906 Z M 21.109375 42.148438 C 20.410156 42.148438 19.753906 42.425781 19.261719 42.921875 L 15.453125 46.769531 L 14.164062 45.480469 C 13.667969 44.984375 13.011719 44.714844 12.3125 44.714844 C 11.609375 44.714844 10.953125 44.984375 10.457031 45.480469 C 9.964844 45.976562 9.691406 46.632812 9.691406 47.332031 C 9.691406 48.035156 9.964844 48.691406 10.457031 49.1875 L 13.605469 52.335938 C 14.101562 52.828125 14.757812 53.101562 15.457031 53.101562 C 16.160156 53.101562 16.816406 52.828125 17.3125 52.335938 C 18.507812 51.136719 19.714844 49.914062 20.882812 48.730469 C 21.582031 48.023438 22.277344 47.3125 22.976562 46.609375 C 23.992188 45.585938 23.988281 43.925781 22.964844 42.910156 C 22.472656 42.417969 21.816406 42.148438 21.117188 42.148438 C 21.117188 42.148438 21.113281 42.148438 21.109375 42.148438 Z M 21.273438 44.917969 C 20.570312 45.625 19.875 46.335938 19.175781 47.042969 C 18.011719 48.226562 16.804688 49.445312 15.613281 50.636719 C 15.5625 50.691406 15.5 50.703125 15.457031 50.703125 C 15.417969 50.703125 15.355469 50.691406 15.304688 50.636719 L 12.15625 47.488281 C 12.101562 47.4375 12.089844 47.375 12.089844 47.332031 C 12.089844 47.292969 12.101562 47.230469 12.15625 47.175781 C 12.207031 47.125 12.269531 47.113281 12.3125 47.113281 C 12.351562 47.113281 12.414062 47.125 12.46875 47.175781 L 14.609375 49.316406 C 14.832031 49.542969 15.136719 49.667969 15.457031 49.667969 C 15.777344 49.667969 16.082031 49.539062 16.308594 49.3125 L 20.964844 44.609375 C 21.015625 44.558594 21.078125 44.546875 21.117188 44.546875 C 21.160156 44.542969 21.21875 44.558594 21.273438 44.609375 C 21.359375 44.695312 21.359375 44.832031 21.273438 44.917969 Z M 21.273438 44.917969 " fill-opacity="1" fill-rule="nonzero"/></g></svg>