<svg xmlns="http://www.w3.org/2000/svg" xmlns:xlink="http://www.w3.org/1999/xlink" width="100" zoomAndPan="magnify" viewBox="0 0 75 74.999997" height="100" preserveAspectRatio="xMidYMid meet" version="1.0"><defs><clipPath id="6c15be506c"><path d="M 0 2.015625 L 75 2.015625 L 75 73 L 0 73 Z M 0 2.015625 " clip-rule="nonzero"/></clipPath></defs><g clip-path="url(#6c15be506c)"><path fill="#39b54a" d="M 39.886719 19.75 C 39.886719 19.121094 40.398438 18.609375 41.027344 18.609375 L 45.484375 18.609375 C 46.113281 18.609375 46.621094 19.121094 46.621094 19.75 C 46.621094 20.378906 46.113281 20.890625 45.484375 20.890625 L 41.027344 20.890625 C 40.398438 20.890625 39.886719 20.378906 39.886719 19.75 Z M 39.886719 13.859375 C 39.886719 13.230469 40.398438 12.71875 41.027344 12.71875 L 45.484375 12.71875 C 46.113281 12.71875 46.621094 13.230469 46.621094 13.859375 C 46.621094 14.488281 46.113281 14.996094 45.484375 14.996094 L 41.027344 14.996094 C 40.398438 14.996094 39.886719 14.488281 39.886719 13.859375 Z M 39.886719 9.003906 C 39.886719 8.375 40.398438 7.867188 41.027344 7.867188 L 45.484375 7.867188 C 46.113281 7.867188 46.621094 8.375 46.621094 9.003906 C 46.621094 9.632812 46.113281 10.144531 45.484375 10.144531 L 41.027344 10.144531 C 40.398438 10.144531 39.886719 9.632812 39.886719 9.003906 Z M 43.109375 48.578125 C 43.109375 50.625 41.445312 52.289062 39.398438 52.289062 C 37.351562 52.289062 35.6875 50.625 35.6875 48.578125 C 35.6875 46.53125 37.351562 44.867188 39.398438 44.867188 C 41.445312 44.867188 43.109375 46.53125 43.109375 48.578125 Z M 33.5625 48.578125 C 33.5625 51.796875 36.179688 54.414062 39.398438 54.414062 C 42.617188 54.414062 45.234375 51.796875 45.234375 48.578125 C 45.234375 45.359375 42.617188 42.742188 39.398438 42.742188 C 36.179688 42.742188 33.5625 45.359375 33.5625 48.578125 Z M 54.089844 49.761719 C 54.328125 49.492188 54.445312 49.144531 54.417969 48.78125 C 54.332031 47.566406 52.828125 47.082031 52.046875 47.984375 L 44.441406 56.71875 C 43.640625 57.636719 42.675781 58.289062 41.59375 58.660156 L 43.027344 65.628906 C 43.105469 66 42.976562 66.386719 42.691406 66.636719 L 40.105469 68.9375 C 39.703125 69.292969 39.09375 69.292969 38.695312 68.9375 L 36.105469 66.636719 C 35.820312 66.386719 35.695312 66 35.769531 65.628906 L 37.203125 58.660156 C 36.121094 58.289062 35.15625 57.636719 34.355469 56.71875 L 26.753906 47.984375 C 25.976562 47.09375 24.464844 47.558594 24.378906 48.78125 C 24.351562 49.199219 24.484375 49.476562 24.726562 49.785156 L 32.039062 58.660156 C 33.066406 59.90625 33.566406 61.296875 33.566406 62.910156 L 33.566406 70.101562 C 33.566406 70.515625 33.902344 70.851562 34.316406 70.851562 L 44.480469 70.851562 C 44.886719 70.851562 45.230469 70.507812 45.230469 70.101562 L 45.230469 62.910156 C 45.230469 61.296875 45.730469 59.90625 46.757812 58.660156 L 54.070312 49.785156 C 54.078125 49.777344 54.085938 49.769531 54.089844 49.761719 Z M 40.824219 65.457031 L 39.398438 66.71875 L 37.976562 65.457031 L 39.304688 59.011719 L 39.496094 59.011719 Z M 55.355469 46.246094 C 53.90625 44.988281 51.703125 45.140625 50.441406 46.585938 L 42.835938 55.324219 C 41.933594 56.363281 40.777344 56.890625 39.398438 56.890625 C 38.019531 56.890625 36.867188 56.363281 35.960938 55.324219 L 28.355469 46.585938 C 26.339844 44.269531 22.472656 45.527344 22.261719 48.632812 C 22.195312 49.558594 22.492188 50.449219 23.09375 51.148438 L 30.398438 60.011719 C 31.109375 60.871094 31.441406 61.792969 31.441406 62.910156 L 31.441406 70.101562 C 31.441406 71.6875 32.730469 72.976562 34.316406 72.976562 L 44.480469 72.976562 C 46.066406 72.976562 47.355469 71.6875 47.355469 70.101562 L 47.355469 62.910156 C 47.355469 61.792969 47.6875 60.871094 48.398438 60.011719 L 55.703125 51.148438 C 56.941406 49.679688 56.8125 47.515625 55.355469 46.246094 Z M 53.902344 14.332031 C 54.234375 13.851562 54.898438 13.730469 55.378906 14.066406 C 58.625 16.3125 61.320312 19.15625 63.378906 22.515625 C 63.816406 23.226562 63.300781 24.136719 62.476562 24.136719 C 62.117188 24.136719 61.769531 23.957031 61.566406 23.628906 C 59.6875 20.5625 57.128906 17.859375 54.171875 15.8125 C 53.6875 15.476562 53.566406 14.816406 53.902344 14.332031 Z M 15.417969 22.515625 C 17.480469 19.15625 20.171875 16.3125 23.417969 14.066406 C 23.902344 13.730469 24.5625 13.851562 24.898438 14.332031 C 25.230469 14.816406 25.109375 15.480469 24.628906 15.8125 C 21.667969 17.859375 19.109375 20.5625 17.230469 23.628906 C 16.921875 24.132812 16.261719 24.28125 15.769531 23.980469 C 15.269531 23.671875 15.113281 23.015625 15.417969 22.515625 Z M 72.507812 42.921875 L 56.335938 42.921875 C 56.136719 42.921875 55.96875 42.753906 55.96875 42.554688 L 55.96875 34.28125 L 63.359375 38.179688 L 63.359375 38.492188 C 63.359375 39.078125 63.835938 39.554688 64.421875 39.554688 C 65.011719 39.554688 65.484375 39.078125 65.484375 38.492188 L 65.484375 38.179688 L 72.878906 34.28125 L 72.878906 42.554688 C 72.878906 42.753906 72.710938 42.921875 72.507812 42.921875 Z M 61.800781 28.757812 C 61.800781 28.597656 61.933594 28.46875 62.089844 28.46875 L 66.757812 28.46875 C 66.914062 28.46875 67.046875 28.597656 67.046875 28.757812 L 67.046875 30.027344 L 61.800781 30.027344 Z M 65.457031 35.789062 L 72.363281 32.152344 L 56.484375 32.152344 L 63.390625 35.789062 C 63.648438 34.707031 65.199219 34.707031 65.457031 35.789062 Z M 72.507812 30.027344 C 73.886719 30.027344 75.003906 31.144531 75.003906 32.523438 L 75.003906 42.554688 C 75.003906 43.929688 73.886719 45.046875 72.507812 45.046875 L 56.335938 45.046875 C 54.960938 45.046875 53.839844 43.929688 53.839844 42.554688 L 53.839844 32.523438 C 53.839844 31.144531 54.960938 30.027344 56.335938 30.027344 L 59.675781 30.027344 L 59.675781 28.757812 C 59.675781 27.425781 60.757812 26.34375 62.089844 26.34375 L 66.757812 26.34375 C 68.089844 26.34375 69.171875 27.425781 69.171875 28.757812 L 69.171875 30.027344 Z M 31.527344 20.953125 C 31.113281 20.539062 31.113281 19.863281 31.527344 19.449219 C 31.941406 19.035156 32.617188 19.035156 33.03125 19.449219 L 33.515625 19.9375 L 35.707031 17.308594 C 36.082031 16.859375 36.75 16.796875 37.203125 17.171875 C 37.652344 17.546875 37.714844 18.21875 37.339844 18.667969 L 34.40625 22.191406 C 34.003906 22.671875 33.28125 22.703125 32.835938 22.261719 Z M 31.84375 15.0625 L 33.152344 16.371094 C 33.59375 16.8125 34.320312 16.777344 34.722656 16.300781 L 37.65625 12.777344 C 38.03125 12.328125 37.96875 11.65625 37.519531 11.28125 C 37.066406 10.90625 36.398438 10.96875 36.019531 11.417969 L 33.832031 14.042969 L 33.347656 13.558594 C 32.933594 13.144531 32.257812 13.144531 31.84375 13.558594 C 31.429688 13.972656 31.429688 14.644531 31.84375 15.0625 Z M 32.160156 9.167969 C 31.742188 8.753906 31.742188 8.082031 32.160156 7.667969 C 32.574219 7.25 33.246094 7.25 33.660156 7.667969 L 34.148438 8.152344 L 36.335938 5.527344 C 36.714844 5.074219 37.382812 5.015625 37.835938 5.390625 C 38.285156 5.765625 38.347656 6.4375 37.972656 6.886719 L 35.035156 10.40625 C 34.636719 10.886719 33.910156 10.921875 33.46875 10.480469 Z M 29.921875 4.722656 L 29.921875 23.882812 C 29.921875 24.195312 30.1875 24.460938 30.496094 24.460938 L 47.316406 24.460938 C 47.628906 24.460938 47.890625 24.195312 47.890625 23.882812 L 47.890625 4.722656 C 47.890625 4.410156 47.628906 4.148438 47.316406 4.148438 L 30.496094 4.148438 C 30.1875 4.148438 29.921875 4.410156 29.921875 4.722656 Z M 30.496094 26.585938 L 47.316406 26.585938 C 48.804688 26.585938 50.015625 25.375 50.015625 23.882812 L 50.015625 4.722656 C 50.015625 3.234375 48.804688 2.023438 47.316406 2.023438 L 30.496094 2.023438 C 29.007812 2.023438 27.796875 3.234375 27.796875 4.722656 L 27.796875 23.882812 C 27.796875 25.375 29.007812 26.585938 30.496094 26.585938 Z M 14.34375 37.597656 C 14.90625 38.300781 14.378906 39.324219 13.515625 39.324219 C 13.203125 39.324219 12.894531 39.1875 12.6875 38.925781 L 10.652344 36.382812 C 10.3125 35.960938 10.347656 35.351562 10.726562 34.96875 L 15.578125 30.101562 C 15.992188 29.683594 16.664062 29.683594 17.078125 30.097656 C 17.496094 30.511719 17.496094 31.183594 17.082031 31.601562 L 12.902344 35.796875 Z M 6.441406 35.71875 C 6.441406 36.304688 5.96875 36.78125 5.378906 36.78125 L 3.855469 36.78125 C 3.269531 36.78125 2.792969 36.304688 2.792969 35.71875 C 2.792969 35.132812 3.269531 34.65625 3.855469 34.65625 L 5.378906 34.65625 C 5.96875 34.65625 6.441406 35.132812 6.441406 35.71875 Z M 12.542969 41.820312 L 12.542969 43.34375 C 12.542969 43.929688 12.070312 44.40625 11.480469 44.40625 C 10.894531 44.40625 10.417969 43.929688 10.417969 43.34375 L 10.417969 41.820312 C 10.417969 41.230469 10.894531 40.757812 11.480469 40.757812 C 12.070312 40.757812 12.542969 41.230469 12.542969 41.820312 Z M 20.167969 35.71875 C 20.167969 35.132812 19.695312 34.65625 19.105469 34.65625 L 17.582031 34.65625 C 16.996094 34.65625 16.519531 35.132812 16.519531 35.71875 C 16.519531 36.304688 16.996094 36.78125 17.582031 36.78125 L 19.105469 36.78125 C 19.695312 36.78125 20.167969 36.304688 20.167969 35.71875 Z M 10.417969 29.617188 C 10.417969 30.207031 10.894531 30.679688 11.480469 30.679688 C 12.070312 30.679688 12.542969 30.207031 12.542969 29.617188 L 12.542969 28.09375 C 12.542969 27.507812 12.070312 27.03125 11.480469 27.03125 C 10.894531 27.03125 10.417969 27.507812 10.417969 28.09375 Z M 11.480469 45.078125 C 16.640625 45.078125 20.839844 40.878906 20.839844 35.71875 C 20.839844 30.558594 16.640625 26.359375 11.480469 26.359375 C 6.320312 26.359375 2.121094 30.558594 2.121094 35.71875 C 2.121094 40.878906 6.320312 45.078125 11.480469 45.078125 Z M 11.480469 24.234375 C 17.816406 24.234375 22.964844 29.386719 22.964844 35.71875 C 22.964844 42.050781 17.816406 47.203125 11.480469 47.203125 C 5.148438 47.203125 -0.00390625 42.050781 -0.00390625 35.71875 C -0.00390625 29.386719 5.148438 24.234375 11.480469 24.234375 Z M 11.480469 24.234375 " fill-opacity="1" fill-rule="evenodd"/></g></svg>