<svg xmlns="http://www.w3.org/2000/svg" xmlns:xlink="http://www.w3.org/1999/xlink" width="100" zoomAndPan="magnify" viewBox="0 0 75 74.999997" height="100" preserveAspectRatio="xMidYMid meet" version="1.0"><path fill="#39b54a" d="M 74.660156 35.953125 C 73.46875 35.503906 72.933594 34.964844 72.480469 33.773438 C 72.367188 33.472656 71.9375 33.472656 71.824219 33.773438 C 71.371094 34.964844 70.832031 35.503906 69.644531 35.953125 C 69.339844 36.070312 69.339844 36.496094 69.644531 36.613281 C 70.832031 37.0625 71.371094 37.601562 71.824219 38.792969 C 71.9375 39.09375 72.367188 39.09375 72.480469 38.792969 C 72.933594 37.601562 73.46875 37.0625 74.660156 36.613281 C 74.960938 36.496094 74.960938 36.070312 74.660156 35.953125 Z M 74.660156 35.953125 " fill-opacity="1" fill-rule="nonzero"/><path fill="#39b54a" d="M 35.910156 8.996094 C 37.101562 9.449219 37.636719 9.984375 38.089844 11.175781 C 38.203125 11.476562 38.632812 11.476562 38.746094 11.175781 C 39.199219 9.984375 39.734375 9.449219 40.925781 8.996094 C 41.226562 8.878906 41.226562 8.453125 40.925781 8.339844 C 39.734375 7.886719 39.199219 7.347656 38.746094 6.15625 C 38.632812 5.855469 38.203125 5.855469 38.089844 6.15625 C 37.636719 7.347656 37.101562 7.886719 35.910156 8.339844 C 35.609375 8.453125 35.609375 8.878906 35.910156 8.996094 Z M 35.910156 8.996094 " fill-opacity="1" fill-rule="nonzero"/><path fill="#39b54a" d="M 18.101562 65.378906 L 0.875 65.378906 C 0.402344 65.378906 0.0234375 65.757812 0.0234375 66.226562 L 0.0234375 74.148438 C 0.0234375 74.617188 0.402344 75 0.875 75 L 18.101562 75 C 18.574219 75 18.953125 74.621094 18.953125 74.148438 L 18.953125 66.226562 C 18.953125 65.757812 18.574219 65.378906 18.101562 65.378906 Z M 18.101562 65.378906 " fill-opacity="1" fill-rule="nonzero"/><path fill="#39b54a" d="M 66.238281 45.472656 L 49.007812 45.472656 C 48.539062 45.472656 48.15625 45.851562 48.15625 46.324219 L 48.15625 74.148438 C 48.15625 74.617188 48.539062 75 49.007812 75 L 66.238281 75 C 66.707031 75 67.085938 74.621094 67.085938 74.148438 L 67.085938 46.324219 C 67.085938 45.851562 66.707031 45.472656 66.238281 45.472656 Z M 66.238281 45.472656 " fill-opacity="1" fill-rule="nonzero"/><path fill="#39b54a" d="M 42.171875 56.734375 L 24.941406 56.734375 C 24.472656 56.734375 24.089844 57.113281 24.089844 57.582031 L 24.089844 74.148438 C 24.089844 74.617188 24.472656 75 24.941406 75 L 42.171875 75 C 42.640625 75 43.019531 74.621094 43.019531 74.148438 L 43.019531 57.582031 C 43.019531 57.113281 42.640625 56.734375 42.171875 56.734375 Z M 42.171875 56.734375 " fill-opacity="1" fill-rule="nonzero"/><path fill="#39b54a" d="M 46.433594 21.210938 C 46.347656 20.949219 46.15625 20.742188 45.90625 20.628906 C 45.660156 20.511719 45.375 20.503906 45.121094 20.605469 L 42.628906 21.578125 L 42.132812 21.773438 C 41.996094 21.828125 41.875 21.910156 41.78125 22.015625 C 41.710938 22.089844 41.65625 22.167969 41.613281 22.25 C 41.613281 22.25 41.609375 22.25 41.609375 22.253906 C 41.546875 22.386719 41.507812 22.527344 41.503906 22.679688 C 41.503906 22.785156 41.515625 22.894531 41.546875 22.988281 C 41.574219 23.078125 41.609375 23.160156 41.660156 23.234375 C 41.757812 23.398438 41.90625 23.53125 42.089844 23.609375 L 42.097656 23.617188 L 43.199219 24.113281 C 42.902344 24.742188 42.59375 25.363281 42.277344 25.980469 C 41.980469 26.5625 41.671875 27.132812 41.355469 27.699219 L 43.109375 28.675781 C 43.449219 28.0625 43.785156 27.4375 44.109375 26.804688 C 44.425781 26.1875 44.730469 25.566406 45.027344 24.941406 L 46.058594 25.398438 C 46.089844 25.414062 46.125 25.429688 46.15625 25.4375 C 46.28125 25.488281 46.417969 25.511719 46.542969 25.503906 C 46.777344 25.496094 47.003906 25.40625 47.183594 25.242188 C 47.480469 24.972656 47.589844 24.554688 47.457031 24.175781 Z M 46.433594 21.210938 " fill-opacity="1" fill-rule="nonzero"/><path fill="#39b54a" d="M 15.316406 53.757812 L 14.503906 51.925781 C 12.699219 52.726562 10.839844 53.453125 8.976562 54.074219 L 9.613281 55.976562 C 11.535156 55.332031 13.457031 54.585938 15.316406 53.757812 Z M 15.316406 53.757812 " fill-opacity="1" fill-rule="nonzero"/><path fill="#39b54a" d="M 7.015625 56.785156 L 6.460938 54.855469 C 2.992188 55.851562 0.746094 56.136719 0.722656 56.140625 L 0.96875 58.132812 C 1.066406 58.121094 3.378906 57.828125 7.015625 56.785156 Z M 7.015625 56.785156 " fill-opacity="1" fill-rule="nonzero"/><path fill="#39b54a" d="M 16.886719 50.804688 L 17.777344 52.597656 C 19.609375 51.691406 21.40625 50.6875 23.117188 49.613281 L 22.054688 47.914062 C 20.398438 48.949219 18.65625 49.921875 16.886719 50.804688 Z M 16.886719 50.804688 " fill-opacity="1" fill-rule="nonzero"/><path fill="#39b54a" d="M 36.644531 34.808594 L 38.230469 36.042969 C 39.472656 34.445312 40.648438 32.753906 41.726562 31.019531 L 40.023438 29.960938 C 38.980469 31.636719 37.847656 33.265625 36.644531 34.808594 Z M 36.644531 34.808594 " fill-opacity="1" fill-rule="nonzero"/><path fill="#39b54a" d="M 30.246094 44.390625 L 28.941406 42.863281 C 27.457031 44.132812 25.882812 45.347656 24.253906 46.46875 L 25.394531 48.121094 C 27.078125 46.957031 28.710938 45.703125 30.246094 44.390625 Z M 30.246094 44.390625 " fill-opacity="1" fill-rule="nonzero"/><path fill="#39b54a" d="M 36.503906 38.148438 L 34.984375 36.839844 C 33.707031 38.328125 32.332031 39.765625 30.898438 41.109375 L 32.273438 42.574219 C 33.757812 41.179688 35.179688 39.691406 36.503906 38.148438 Z M 36.503906 38.148438 " fill-opacity="1" fill-rule="nonzero"/><path fill="#39b54a" d="M 67.554688 16.152344 L 67.515625 16.050781 C 66.398438 13.179688 63.820312 11.242188 60.816406 10.949219 C 60.644531 10.933594 60.1875 10.914062 59.894531 10.90625 C 59.746094 10.902344 59.632812 10.78125 59.632812 10.632812 L 59.632812 10.078125 C 59.632812 9.980469 59.683594 9.890625 59.769531 9.839844 C 61.175781 9.027344 62.078125 7.4375 61.890625 5.65625 C 61.679688 3.679688 60.082031 2.074219 58.109375 1.855469 C 55.515625 1.570312 53.320312 3.589844 53.320312 6.125 C 53.320312 7.710938 54.183594 9.097656 55.464844 9.839844 C 55.550781 9.890625 55.605469 9.980469 55.605469 10.078125 L 55.605469 10.601562 C 55.605469 10.761719 55.464844 10.890625 55.304688 10.875 C 53.417969 10.652344 51.8125 9.367188 51.203125 7.53125 L 48.855469 0.433594 C 48.761719 0.148438 48.453125 -0.0078125 48.167969 0.0898438 L 45.382812 1.011719 C 45.097656 1.105469 44.941406 1.410156 45.039062 1.699219 L 47.386719 8.792969 C 48.039062 10.765625 49.324219 12.382812 50.976562 13.464844 C 51.707031 13.941406 52.171875 14.738281 52.171875 15.613281 L 52.148438 43.390625 L 56.214844 43.390625 L 56.492188 30.765625 C 56.503906 30.199219 56.964844 29.75 57.527344 29.75 L 57.53125 29.75 C 58.082031 29.75 58.53125 30.191406 58.546875 30.742188 L 58.863281 43.390625 L 62.933594 43.390625 L 62.886719 17.660156 C 62.886719 17.160156 63.578125 17.027344 63.761719 17.492188 L 63.808594 17.609375 C 64.78125 20.105469 65.292969 22.757812 65.316406 25.4375 L 65.335938 27.429688 C 65.335938 27.730469 65.582031 27.96875 65.882812 27.96875 L 68.816406 27.941406 C 69.117188 27.9375 69.359375 27.691406 69.355469 27.390625 L 69.335938 25.398438 C 69.304688 22.234375 68.703125 19.101562 67.554688 16.152344 Z M 55.859375 6.433594 L 56.898438 6.433594 L 56.898438 6.953125 C 56.898438 7.175781 57.195312 7.421875 57.617188 7.421875 C 58.042969 7.421875 58.335938 7.175781 58.335938 6.953125 L 58.335938 6.433594 L 59.378906 6.433594 L 59.378906 6.953125 C 59.378906 7.785156 58.589844 8.464844 57.617188 8.464844 C 56.648438 8.464844 55.855469 7.785156 55.855469 6.953125 L 55.855469 6.433594 Z M 59.496094 22.132812 L 57.828125 23.449219 C 57.695312 23.554688 57.507812 23.554688 57.375 23.445312 L 55.753906 22.132812 C 55.644531 22.046875 55.597656 21.90625 55.625 21.769531 L 57.042969 15.417969 C 57.113281 15.09375 57.074219 14.753906 56.929688 14.453125 L 56.398438 13.367188 C 56.292969 13.152344 56.449219 12.902344 56.6875 12.902344 L 58.5625 12.902344 C 58.804688 12.902344 58.960938 13.15625 58.851562 13.371094 L 58.304688 14.445312 C 58.144531 14.753906 58.101562 15.105469 58.179688 15.441406 L 59.625 21.765625 C 59.65625 21.902344 59.605469 22.046875 59.496094 22.132812 Z M 59.496094 22.132812 " fill-opacity="1" fill-rule="nonzero"/></svg>