<svg width="32" height="32" viewBox="0 0 32 32" fill="none" xmlns="http://www.w3.org/2000/svg">
<path opacity="0.2" d="M11.5078 21.9866C11.9502 23.2426 12.6657 24.3849 13.6027 25.3311C14.5397 26.2773 15.6749 27.004 16.9265 27.4587C18.1781 27.9134 19.5149 28.0849 20.8408 27.9609C22.1666 27.8368 23.4485 27.4202 24.594 26.7411L24.5939 26.7411L27.7024 27.6292C27.831 27.6659 27.9671 27.6676 28.0965 27.6341C28.226 27.6005 28.3442 27.5329 28.4387 27.4384C28.5333 27.3438 28.6009 27.2256 28.6344 27.0962C28.668 26.9667 28.6663 26.8306 28.6296 26.702L27.7414 23.5936L27.7415 23.5936C28.5306 22.2628 28.9634 20.7511 28.9982 19.2043C29.0329 17.6575 28.6684 16.1279 27.9399 14.7629C27.2113 13.398 26.1433 12.2439 24.8388 11.412C23.5344 10.58 22.0375 10.0983 20.4927 10.0133L20.493 10.0132C20.969 11.3705 21.113 12.8221 20.9129 14.2465C20.7128 15.6709 20.1745 17.0266 19.343 18.2003C18.5114 19.3739 17.4109 20.3314 16.1335 20.9925C14.856 21.6535 13.4388 21.999 12.0004 22C11.8352 22 11.6709 21.9956 11.5078 21.9868V21.9866Z" fill="white"/>
<path d="M4.25894 17.5938C3.14076 15.7088 2.74916 13.4805 3.15768 11.3272C3.56621 9.17389 4.74675 7.2438 6.47764 5.89933C8.20853 4.55486 10.3707 3.8885 12.5581 4.02539C14.7455 4.16227 16.8078 5.09298 18.3575 6.64274C19.9073 8.19251 20.838 10.2547 20.9749 12.4421C21.1118 14.6296 20.4455 16.7917 19.101 18.5226C17.7565 20.2535 15.8264 21.4341 13.6731 21.8426C11.5199 22.2511 9.29149 21.8595 7.40648 20.7414L7.40651 20.7413L4.29808 21.6294C4.16947 21.6661 4.03338 21.6678 3.90391 21.6343C3.77443 21.6007 3.65628 21.5332 3.56171 21.4386C3.46713 21.344 3.39957 21.2259 3.36602 21.0964C3.33247 20.9669 3.33415 20.8308 3.37089 20.7022L4.25902 17.5938L4.25894 17.5938Z" stroke="white" stroke-width="2" stroke-linecap="round" stroke-linejoin="round"/>
<path d="M11.5078 21.9865C11.9502 23.2425 12.6657 24.3848 13.6027 25.331C14.5397 26.2772 15.6749 27.0039 16.9265 27.4586C18.1781 27.9133 19.5149 28.0849 20.8408 27.9608C22.1666 27.8367 23.4485 27.4201 24.594 26.7411L24.5939 26.741L27.7024 27.6291C27.831 27.6658 27.9671 27.6675 28.0965 27.634C28.226 27.6004 28.3442 27.5328 28.4387 27.4383C28.5333 27.3437 28.6009 27.2255 28.6344 27.0961C28.668 26.9666 28.6663 26.8305 28.6296 26.7019L27.7414 23.5935L27.7415 23.5935C28.5306 22.2627 28.9634 20.751 28.9982 19.2042C29.0329 17.6574 28.6684 16.1278 27.9399 14.7629C27.2113 13.3979 26.1433 12.2438 24.8388 11.4119C23.5344 10.5799 22.0375 10.0982 20.4927 10.0132" stroke="white" stroke-width="2" stroke-linecap="round" stroke-linejoin="round"/>
</svg>
