<svg width="26" height="26" viewBox="0 0 26 26" fill="none" xmlns="http://www.w3.org/2000/svg">
<path opacity="0.2" d="M13 13L2.6077 19L2.60599 19.001C1.55345 17.1765 0.999577 15.1071 1 13.0007C1.00042 10.8944 1.55513 8.82521 2.6084 7.00109C3.66166 5.17698 5.1764 3.66215 7.00045 2.60877C8.8245 1.55539 10.8936 1.00055 13 1V13Z" fill="white"/>
<path d="M13 25C19.6274 25 25 19.6274 25 13C25 6.37258 19.6274 1 13 1C6.37258 1 1 6.37258 1 13C1 19.6274 6.37258 25 13 25Z" stroke="white" stroke-width="2" stroke-linecap="round" stroke-linejoin="round"/>
<path d="M13 13V1" stroke="white" stroke-width="2" stroke-linecap="round" stroke-linejoin="round"/>
<path d="M23.392 7L2.60742 19" stroke="white" stroke-width="2" stroke-linecap="round" stroke-linejoin="round"/>
</svg>
