<svg width="30" height="23" viewBox="0 0 30 23" fill="none" xmlns="http://www.w3.org/2000/svg">
<path opacity="0.2" d="M4.20714 20.443C4.23832 20.5744 4.29577 20.6982 4.37602 20.8069C4.45628 20.9155 4.5577 21.0069 4.67417 21.0753C4.79064 21.1438 4.91975 21.188 5.05374 21.2052C5.18773 21.2225 5.32383 21.2125 5.45384 21.1757C11.415 19.5298 17.7106 19.5292 23.6721 21.174C23.8021 21.2107 23.9381 21.2207 24.072 21.2034C24.206 21.1862 24.335 21.142 24.4515 21.0736C24.5679 21.0052 24.6693 20.9139 24.7496 20.8053C24.8298 20.6967 24.8873 20.573 24.9185 20.4416L28.1046 6.90198C28.1472 6.72073 28.1384 6.53116 28.0792 6.35464C28.0199 6.17811 27.9125 6.02164 27.7691 5.90285C27.6257 5.78405 27.452 5.70766 27.2676 5.68226C27.0831 5.65687 26.8952 5.68348 26.725 5.75911L20.4021 8.56932C20.1738 8.67079 19.9157 8.68312 19.6788 8.60388C19.4418 8.52463 19.2431 8.35956 19.1218 8.14115L15.4402 1.51436C15.3536 1.35846 15.2269 1.22857 15.0732 1.13813C14.9195 1.04769 14.7444 1 14.5661 1C14.3877 1 14.2126 1.04769 14.0589 1.13813C13.9052 1.22857 13.7785 1.35846 13.6919 1.51436L10.0104 8.14115C9.88903 8.35956 9.69032 8.52463 9.45337 8.60388C9.21642 8.68312 8.95839 8.67079 8.73007 8.56932L2.40614 5.75868C2.23601 5.68307 2.04816 5.65645 1.86372 5.68182C1.67929 5.7072 1.50559 5.78355 1.3622 5.90229C1.21881 6.02103 1.11142 6.17744 1.0521 6.35391C0.992794 6.53038 0.983923 6.71991 1.02649 6.90115L4.20714 20.443Z" fill="white"/>
<path d="M4.20714 20.443C4.23832 20.5744 4.29577 20.6982 4.37602 20.8069C4.45628 20.9155 4.5577 21.0069 4.67417 21.0753C4.79064 21.1438 4.91975 21.188 5.05374 21.2052C5.18773 21.2225 5.32383 21.2125 5.45384 21.1757C11.415 19.5298 17.7106 19.5292 23.6721 21.174C23.8021 21.2107 23.9381 21.2207 24.072 21.2034C24.206 21.1862 24.335 21.142 24.4515 21.0736C24.5679 21.0052 24.6693 20.9139 24.7496 20.8053C24.8298 20.6967 24.8873 20.573 24.9185 20.4416L28.1046 6.90198C28.1472 6.72073 28.1384 6.53116 28.0792 6.35464C28.0199 6.17811 27.9125 6.02164 27.7691 5.90285C27.6257 5.78405 27.452 5.70766 27.2676 5.68226C27.0831 5.65687 26.8952 5.68348 26.725 5.75911L20.4021 8.56932C20.1738 8.67079 19.9157 8.68312 19.6788 8.60388C19.4418 8.52463 19.2431 8.35956 19.1218 8.14115L15.4402 1.51436C15.3536 1.35846 15.2269 1.22857 15.0732 1.13813C14.9195 1.04769 14.7444 1 14.5661 1C14.3877 1 14.2126 1.04769 14.0589 1.13813C13.9052 1.22857 13.7785 1.35846 13.6919 1.51436L10.0104 8.14115C9.88903 8.35956 9.69032 8.52463 9.45337 8.60388C9.21642 8.68312 8.95839 8.67079 8.73007 8.56932L2.40614 5.75868C2.23601 5.68307 2.04816 5.65645 1.86372 5.68182C1.67929 5.7072 1.50559 5.78355 1.3622 5.90229C1.21881 6.02103 1.11142 6.17744 1.0521 6.35391C0.992794 6.53038 0.983923 6.71991 1.02649 6.90115L4.20714 20.443Z" stroke="white" stroke-width="2" stroke-linecap="round" stroke-linejoin="round"/>
<path d="M10.5654 16.1508C13.2248 15.871 15.9061 15.871 18.5654 16.1508" stroke="white" stroke-width="2" stroke-linecap="round" stroke-linejoin="round"/>
</svg>
