<svg width="24" height="24" viewBox="0 0 24 24" fill="none" xmlns="http://www.w3.org/2000/svg">
<path opacity="0.2" d="M22.7071 6.70709L17.2929 1.29287C17.1054 1.10535 16.851 0.999997 16.5858 1H2C1.86868 0.999999 1.73864 1.02586 1.61732 1.07612C1.49599 1.12637 1.38575 1.20003 1.29289 1.29289C1.20003 1.38575 1.12637 1.49599 1.07612 1.61732C1.02586 1.73864 0.999999 1.86868 1 2V22C1 22.2652 1.10536 22.5196 1.2929 22.7071C1.48043 22.8946 1.73478 23 2 23H22C22.2652 23 22.5196 22.8946 22.7071 22.7071C22.8946 22.5196 23 22.2652 23 22V7.41418C23 7.28286 22.9741 7.15283 22.9239 7.0315C22.8736 6.91018 22.8 6.79994 22.7071 6.70709V6.70709ZM12.0007 19.0011C11.3085 19.0011 10.6318 18.7958 10.0562 18.4112C9.48066 18.0266 9.03206 17.48 8.76715 16.8405C8.50225 16.2009 8.43294 15.4972 8.56798 14.8183C8.70303 14.1393 9.03638 13.5157 9.52586 13.0262C10.0153 12.5367 10.639 12.2034 11.3179 12.0683C11.9968 11.9333 12.7006 12.0026 13.3401 12.2675C13.9797 12.5324 14.5263 12.981 14.9109 13.5566C15.2955 14.1322 15.5007 14.8089 15.5007 15.5011C15.5007 15.9607 15.4102 16.4158 15.2343 16.8405C15.0584 17.2651 14.8006 17.651 14.4756 17.976C14.1506 18.301 13.7648 18.5588 13.3401 18.7347C12.9155 18.9106 12.4604 19.0011 12.0007 19.0011V19.0011Z" fill="white"/>
<path d="M23 7.41421V22C23 22.2652 22.8946 22.5196 22.7071 22.7071C22.5196 22.8946 22.2652 23 22 23H2C1.73478 23 1.48043 22.8946 1.29289 22.7071C1.10536 22.5196 1 22.2652 1 22V2C1 1.73478 1.10536 1.48043 1.29289 1.29289C1.48043 1.10536 1.73478 1 2 1H16.5858C16.7171 1 16.8471 1.02587 16.9685 1.07612C17.0898 1.12638 17.2 1.20004 17.2929 1.29289L22.7071 6.70711C22.8 6.79997 22.8736 6.9102 22.9239 7.03153C22.9741 7.15286 23 7.28289 23 7.41421Z" stroke="white" stroke-width="2" stroke-linecap="round" stroke-linejoin="round"/>
<path d="M12.001 19.001C13.934 19.001 15.501 17.434 15.501 15.501C15.501 13.568 13.934 12.001 12.001 12.001C10.068 12.001 8.50098 13.568 8.50098 15.501C8.50098 17.434 10.068 19.001 12.001 19.001Z" stroke="white" stroke-width="2" stroke-linecap="round" stroke-linejoin="round"/>
<path d="M16 8.00098H8V1.00098" stroke="white" stroke-width="2" stroke-linecap="round" stroke-linejoin="round"/>
</svg>
