<svg width="26" height="26" viewBox="0 0 26 26" fill="none" xmlns="http://www.w3.org/2000/svg">
<path opacity="0.2" d="M13 25C19.6274 25 25 19.6274 25 13C25 6.37258 19.6274 1 13 1C6.37258 1 1 6.37258 1 13C1 19.6274 6.37258 25 13 25Z" fill="white"/>
<path d="M13 6V8" stroke="white" stroke-width="2" stroke-linecap="round" stroke-linejoin="round"/>
<path d="M13 18V20" stroke="white" stroke-width="2" stroke-linecap="round" stroke-linejoin="round"/>
<path d="M13 25C19.6274 25 25 19.6274 25 13C25 6.37258 19.6274 1 13 1C6.37258 1 1 6.37258 1 13C1 19.6274 6.37258 25 13 25Z" stroke="white" stroke-width="2" stroke-linecap="round" stroke-linejoin="round"/>
<path d="M10 18H14.5C15.163 18 15.7989 17.7366 16.2678 17.2678C16.7366 16.7989 17 16.163 17 15.5C17 14.837 16.7366 14.2011 16.2678 13.7322C15.7989 13.2634 15.163 13 14.5 13H11.5C10.837 13 10.2011 12.7366 9.73223 12.2678C9.26339 11.7989 9 11.163 9 10.5C9 9.83696 9.26339 9.20107 9.73223 8.73223C10.2011 8.26339 10.837 8 11.5 8H16" stroke="white" stroke-width="2" stroke-linecap="round" stroke-linejoin="round"/>
</svg>
