<svg width="23" height="22" viewBox="0 0 23 22" fill="none" xmlns="http://www.w3.org/2000/svg">
<path opacity="0.2" d="M11.4991 13.2501C7.81298 13.2559 4.19083 12.2869 1 10.4412V19.3751C0.999999 19.49 1.02263 19.6038 1.0666 19.71C1.11058 19.8161 1.17503 19.9126 1.25628 19.9939C1.33753 20.0751 1.43399 20.1396 1.54015 20.1835C1.64631 20.2275 1.76009 20.2501 1.875 20.2501H21.125C21.2399 20.2501 21.3537 20.2275 21.4598 20.1835C21.566 20.1396 21.6625 20.0751 21.7437 19.9939C21.825 19.9126 21.8894 19.8161 21.9334 19.71C21.9774 19.6038 22 19.49 22 19.3751V10.4402C18.8088 12.2865 15.186 13.2559 11.4991 13.2501V13.2501Z" fill="white"/>
<path d="M21.125 4.5H1.875C1.39175 4.5 1 4.89175 1 5.375V19.375C1 19.8582 1.39175 20.25 1.875 20.25H21.125C21.6082 20.25 22 19.8582 22 19.375V5.375C22 4.89175 21.6082 4.5 21.125 4.5Z" stroke="white" stroke-width="1.75" stroke-linecap="round" stroke-linejoin="round"/>
<path d="M15.874 4.5V2.75C15.874 2.28587 15.6896 1.84075 15.3615 1.51256C15.0333 1.18437 14.5882 1 14.124 1H8.87402C8.40989 1 7.96478 1.18437 7.63659 1.51256C7.3084 1.84075 7.12402 2.28587 7.12402 2.75V4.5" stroke="white" stroke-width="1.75" stroke-linecap="round" stroke-linejoin="round"/>
<path d="M22.0002 10.4402C18.8089 12.2865 15.1861 13.2559 11.4993 13.2501C7.81306 13.2559 4.19086 12.2868 1 10.4411" stroke="white" stroke-width="1.75" stroke-linecap="round" stroke-linejoin="round"/>
<path d="M10.1865 9.75H12.8115" stroke="white" stroke-width="1.75" stroke-linecap="round" stroke-linejoin="round"/>
</svg>
