<svg xmlns="http://www.w3.org/2000/svg" xmlns:xlink="http://www.w3.org/1999/xlink" width="1080" zoomAndPan="magnify" viewBox="0 0 810 809.999993" height="1080" preserveAspectRatio="xMidYMid meet" version="1.0"><path fill="#ffffff" d="M 404.542969 140.800781 C 258.980469 140.800781 140.796875 258.980469 140.796875 404.546875 C 140.796875 550.109375 258.980469 668.292969 404.542969 668.292969 C 550.109375 668.292969 668.292969 550.109375 668.292969 404.546875 C 668.292969 258.980469 550.109375 140.800781 404.542969 140.800781 Z M 404.542969 187.464844 C 524.351562 187.464844 621.625 284.742188 621.625 404.546875 C 621.625 524.351562 524.351562 621.628906 404.542969 621.628906 C 284.738281 621.628906 187.460938 524.351562 187.460938 404.546875 C 187.460938 284.742188 284.738281 187.464844 404.542969 187.464844 Z M 404.542969 187.464844 " fill-opacity="1" fill-rule="evenodd"/><path fill="#ffffff" d="M 366.003906 391.421875 C 361.453125 443.730469 349.453125 494.464844 330.75 543.796875 C 326.1875 555.835938 332.257812 569.320312 344.300781 573.882812 C 356.347656 578.453125 369.824219 572.378906 374.386719 560.34375 C 387.628906 525.421875 397.75 489.851562 404.542969 453.578125 C 411.335938 489.851562 421.460938 525.421875 434.703125 560.34375 C 439.265625 572.378906 452.742188 578.453125 464.789062 573.882812 C 476.832031 569.320312 482.898438 555.835938 478.335938 543.796875 C 459.644531 494.492188 447.644531 443.792969 443.089844 391.523438 C 471.046875 390.152344 499.007812 387.222656 526.972656 382.679688 C 539.679688 380.609375 548.320312 368.609375 546.261719 355.902344 C 544.195312 343.1875 532.195312 334.542969 519.488281 336.613281 C 442.808594 349.066406 366.140625 348.585938 289.464844 336.59375 C 276.746094 334.597656 264.792969 343.316406 262.808594 356.039062 C 260.820312 368.765625 269.535156 380.710938 282.253906 382.695312 C 310.171875 387.070312 338.078125 389.988281 366.003906 391.421875 Z M 366.003906 391.421875 " fill-opacity="1" fill-rule="evenodd"/><path fill="#ffffff" d="M 446.664062 284.242188 C 446.664062 285.621094 446.597656 286.996094 446.460938 288.371094 C 446.328125 289.742188 446.125 291.105469 445.855469 292.460938 C 445.585938 293.8125 445.25 295.148438 444.851562 296.46875 C 444.449219 297.789062 443.988281 299.085938 443.457031 300.359375 C 442.929688 301.636719 442.34375 302.878906 441.691406 304.097656 C 441.042969 305.3125 440.332031 306.496094 439.566406 307.644531 C 438.800781 308.789062 437.980469 309.898438 437.105469 310.964844 C 436.230469 312.03125 435.304688 313.050781 434.328125 314.027344 C 433.351562 315 432.332031 315.925781 431.265625 316.800781 C 430.199219 317.675781 429.09375 318.496094 427.945312 319.265625 C 426.796875 320.03125 425.617188 320.738281 424.398438 321.390625 C 423.183594 322.039062 421.9375 322.628906 420.664062 323.15625 C 419.386719 323.683594 418.089844 324.148438 416.769531 324.550781 C 415.449219 324.949219 414.113281 325.285156 412.761719 325.554688 C 411.410156 325.824219 410.046875 326.023438 408.671875 326.160156 C 407.300781 326.296875 405.921875 326.363281 404.542969 326.363281 C 403.164062 326.363281 401.789062 326.296875 400.414062 326.160156 C 399.042969 326.023438 397.679688 325.824219 396.328125 325.554688 C 394.972656 325.285156 393.636719 324.949219 392.316406 324.550781 C 390.996094 324.148438 389.699219 323.683594 388.425781 323.15625 C 387.152344 322.628906 385.90625 322.039062 384.6875 321.390625 C 383.472656 320.738281 382.289062 320.03125 381.144531 319.265625 C 379.996094 318.496094 378.890625 317.675781 377.824219 316.800781 C 376.757812 315.925781 375.734375 315 374.761719 314.027344 C 373.785156 313.050781 372.859375 312.03125 371.984375 310.964844 C 371.109375 309.898438 370.289062 308.789062 369.523438 307.644531 C 368.753906 306.496094 368.046875 305.3125 367.398438 304.097656 C 366.746094 302.878906 366.15625 301.636719 365.628906 300.359375 C 365.101562 299.085938 364.636719 297.789062 364.238281 296.46875 C 363.835938 295.148438 363.5 293.8125 363.230469 292.460938 C 362.964844 291.105469 362.761719 289.742188 362.625 288.371094 C 362.492188 286.996094 362.421875 285.621094 362.421875 284.242188 C 362.421875 282.863281 362.492188 281.484375 362.625 280.113281 C 362.761719 278.742188 362.964844 277.378906 363.230469 276.023438 C 363.5 274.671875 363.835938 273.335938 364.238281 272.015625 C 364.636719 270.695312 365.101562 269.398438 365.628906 268.121094 C 366.15625 266.847656 366.746094 265.601562 367.398438 264.386719 C 368.046875 263.167969 368.753906 261.988281 369.523438 260.839844 C 370.289062 259.695312 371.109375 258.585938 371.984375 257.519531 C 372.859375 256.453125 373.785156 255.433594 374.761719 254.457031 C 375.734375 253.480469 376.757812 252.558594 377.824219 251.679688 C 378.890625 250.804688 379.996094 249.984375 381.144531 249.21875 C 382.289062 248.453125 383.472656 247.746094 384.6875 247.09375 C 385.90625 246.445312 387.152344 245.855469 388.425781 245.328125 C 389.699219 244.800781 390.996094 244.335938 392.316406 243.933594 C 393.636719 243.535156 394.972656 243.199219 396.328125 242.929688 C 397.679688 242.660156 399.042969 242.457031 400.414062 242.324219 C 401.789062 242.1875 403.164062 242.121094 404.542969 242.121094 C 405.921875 242.121094 407.300781 242.1875 408.671875 242.324219 C 410.046875 242.457031 411.410156 242.660156 412.761719 242.929688 C 414.113281 243.199219 415.449219 243.535156 416.769531 243.933594 C 418.089844 244.335938 419.386719 244.800781 420.664062 245.328125 C 421.9375 245.855469 423.183594 246.445312 424.398438 247.09375 C 425.617188 247.746094 426.796875 248.453125 427.945312 249.21875 C 429.09375 249.984375 430.199219 250.804688 431.265625 251.679688 C 432.332031 252.558594 433.351562 253.480469 434.328125 254.457031 C 435.304688 255.433594 436.230469 256.453125 437.105469 257.519531 C 437.980469 258.585938 438.800781 259.695312 439.566406 260.839844 C 440.332031 261.988281 441.042969 263.167969 441.691406 264.386719 C 442.34375 265.601562 442.929688 266.847656 443.457031 268.121094 C 443.988281 269.398438 444.449219 270.695312 444.851562 272.015625 C 445.253906 273.335938 445.585938 274.671875 445.855469 276.023438 C 446.125 277.378906 446.328125 278.742188 446.460938 280.113281 C 446.597656 281.484375 446.664062 282.863281 446.664062 284.242188 Z M 446.664062 284.242188 " fill-opacity="1" fill-rule="nonzero"/><path fill="#ffffff" d="M 389.933594 56.519531 C 388.199219 76.421875 383.628906 95.730469 376.519531 114.496094 C 374.777344 119.078125 377.089844 124.210938 381.667969 125.941406 C 386.25 127.683594 391.382812 125.371094 393.117188 120.789062 C 398.160156 107.503906 402.003906 93.972656 404.589844 80.167969 C 407.183594 93.972656 411.027344 107.503906 416.0625 120.789062 C 417.804688 125.371094 422.9375 127.683594 427.519531 125.941406 C 432.097656 124.210938 434.410156 119.078125 432.671875 114.496094 C 425.558594 95.738281 420.996094 76.4375 419.265625 56.558594 C 429.894531 56.03125 440.535156 54.914062 451.171875 53.191406 C 456.015625 52.402344 459.300781 47.839844 458.519531 42.996094 C 457.730469 38.164062 453.167969 34.871094 448.324219 35.660156 C 419.15625 40.402344 389.976562 40.210938 360.808594 35.652344 C 355.964844 34.898438 351.421875 38.207031 350.660156 43.050781 C 349.90625 47.894531 353.21875 52.4375 358.058594 53.199219 C 368.679688 54.859375 379.300781 55.96875 389.933594 56.519531 Z M 389.933594 56.519531 " fill-opacity="1" fill-rule="evenodd"/><path fill="#ffffff" d="M 420.617188 15.734375 C 420.617188 16.257812 420.589844 16.78125 420.539062 17.304688 C 420.488281 17.824219 420.410156 18.34375 420.308594 18.859375 C 420.207031 19.375 420.078125 19.882812 419.925781 20.386719 C 419.773438 20.886719 419.597656 21.382812 419.394531 21.867188 C 419.195312 22.351562 418.972656 22.824219 418.722656 23.289062 C 418.476562 23.75 418.207031 24.199219 417.914062 24.636719 C 417.625 25.074219 417.3125 25.496094 416.976562 25.898438 C 416.644531 26.304688 416.292969 26.695312 415.921875 27.066406 C 415.550781 27.4375 415.164062 27.789062 414.757812 28.121094 C 414.351562 28.453125 413.929688 28.765625 413.492188 29.058594 C 413.058594 29.351562 412.605469 29.621094 412.144531 29.867188 C 411.679688 30.113281 411.207031 30.339844 410.722656 30.539062 C 410.238281 30.742188 409.742188 30.917969 409.242188 31.070312 C 408.738281 31.222656 408.230469 31.347656 407.714844 31.453125 C 407.203125 31.554688 406.683594 31.632812 406.160156 31.683594 C 405.636719 31.734375 405.113281 31.757812 404.589844 31.757812 C 404.066406 31.757812 403.539062 31.734375 403.019531 31.683594 C 402.496094 31.632812 401.976562 31.554688 401.460938 31.453125 C 400.949219 31.347656 400.441406 31.222656 399.9375 31.070312 C 399.433594 30.917969 398.941406 30.742188 398.457031 30.539062 C 397.972656 30.339844 397.496094 30.113281 397.035156 29.867188 C 396.570312 29.621094 396.121094 29.351562 395.683594 29.058594 C 395.25 28.765625 394.828125 28.453125 394.421875 28.121094 C 394.015625 27.789062 393.628906 27.4375 393.257812 27.066406 C 392.886719 26.695312 392.535156 26.304688 392.199219 25.898438 C 391.867188 25.496094 391.554688 25.074219 391.261719 24.636719 C 390.972656 24.199219 390.703125 23.75 390.457031 23.289062 C 390.207031 22.824219 389.984375 22.351562 389.78125 21.867188 C 389.582031 21.382812 389.40625 20.886719 389.253906 20.386719 C 389.101562 19.882812 388.972656 19.375 388.871094 18.859375 C 388.769531 18.34375 388.691406 17.824219 388.640625 17.304688 C 388.589844 16.78125 388.5625 16.257812 388.5625 15.734375 C 388.5625 15.207031 388.589844 14.683594 388.640625 14.160156 C 388.691406 13.640625 388.769531 13.121094 388.871094 12.605469 C 388.972656 12.089844 389.101562 11.582031 389.253906 11.082031 C 389.40625 10.578125 389.582031 10.085938 389.78125 9.601562 C 389.984375 9.113281 390.207031 8.640625 390.457031 8.179688 C 390.703125 7.714844 390.972656 7.265625 391.261719 6.828125 C 391.554688 6.390625 391.867188 5.972656 392.199219 5.566406 C 392.535156 5.160156 392.886719 4.769531 393.257812 4.398438 C 393.628906 4.027344 394.015625 3.675781 394.421875 3.34375 C 394.828125 3.011719 395.25 2.699219 395.683594 2.40625 C 396.121094 2.117188 396.570312 1.847656 397.035156 1.597656 C 397.496094 1.351562 397.972656 1.128906 398.457031 0.925781 C 398.941406 0.726562 399.433594 0.546875 399.9375 0.394531 C 400.4375 0.242188 400.949219 0.117188 401.460938 0.015625 C 401.976562 -0.0898438 402.496094 -0.164062 403.019531 -0.214844 C 403.539062 -0.269531 404.066406 -0.292969 404.589844 -0.292969 C 405.113281 -0.292969 405.636719 -0.269531 406.160156 -0.214844 C 406.683594 -0.164062 407.203125 -0.0898438 407.714844 0.015625 C 408.230469 0.117188 408.738281 0.242188 409.242188 0.394531 C 409.742188 0.546875 410.238281 0.726562 410.722656 0.925781 C 411.207031 1.128906 411.679688 1.351562 412.144531 1.597656 C 412.605469 1.847656 413.058594 2.117188 413.492188 2.40625 C 413.929688 2.699219 414.351562 3.011719 414.757812 3.34375 C 415.164062 3.675781 415.550781 4.027344 415.921875 4.398438 C 416.292969 4.769531 416.644531 5.160156 416.976562 5.566406 C 417.3125 5.972656 417.625 6.390625 417.914062 6.828125 C 418.207031 7.265625 418.476562 7.714844 418.722656 8.179688 C 418.972656 8.640625 419.195312 9.113281 419.394531 9.601562 C 419.597656 10.085938 419.773438 10.578125 419.925781 11.082031 C 420.078125 11.582031 420.207031 12.089844 420.308594 12.605469 C 420.410156 13.121094 420.488281 13.640625 420.539062 14.160156 C 420.589844 14.683594 420.617188 15.207031 420.617188 15.734375 Z M 420.617188 15.734375 " fill-opacity="1" fill-rule="nonzero"/><path fill="#ffffff" d="M 698.757812 217.859375 C 680.652344 226.300781 661.652344 232.007812 641.832031 235.226562 C 637 236.015625 633.707031 240.578125 634.496094 245.414062 C 635.285156 250.257812 639.847656 253.539062 644.683594 252.75 C 658.714844 250.472656 672.355469 247.046875 685.605469 242.382812 C 674.949219 251.515625 665.144531 261.621094 656.15625 272.632812 C 653.0625 276.421875 653.625 282.019531 657.417969 285.121094 C 661.214844 288.222656 666.8125 287.652344 669.914062 283.859375 C 682.605469 268.324219 697.035156 254.71875 713.386719 243.273438 C 719.15625 252.222656 725.441406 260.886719 732.261719 269.230469 C 735.355469 273.03125 740.960938 273.59375 744.75 270.492188 C 748.550781 267.398438 749.113281 261.800781 746.011719 258.003906 C 727.320312 235.109375 712.898438 209.75 702.257812 182.203125 C 700.5 177.632812 695.347656 175.347656 690.777344 177.117188 C 686.203125 178.882812 683.929688 184.027344 685.695312 188.597656 C 689.570312 198.628906 693.914062 208.378906 698.757812 217.859375 Z M 698.757812 217.859375 " fill-opacity="1" fill-rule="evenodd"/><path fill="#ffffff" d="M 755.28125 202.148438 C 759.707031 209.8125 757.078125 219.617188 749.414062 224.042969 C 741.757812 228.460938 731.945312 225.839844 727.527344 218.175781 C 723.101562 210.511719 725.730469 200.707031 733.394531 196.28125 C 741.050781 191.863281 750.863281 194.492188 755.28125 202.148438 Z M 755.28125 202.148438 " fill-opacity="1" fill-rule="evenodd"/><path fill="#ffffff" d="M 192.035156 680.628906 C 206.15625 666.496094 222.0625 654.644531 239.578125 644.839844 C 243.851562 642.445312 245.382812 637.027344 242.988281 632.75 C 240.59375 628.476562 235.179688 626.941406 230.898438 629.335938 C 218.5 636.285156 206.855469 644.175781 195.996094 653.082031 C 202.890625 640.847656 208.640625 628.003906 213.320312 614.589844 C 214.933594 609.964844 212.496094 604.894531 207.871094 603.28125 C 203.234375 601.664062 198.175781 604.113281 196.558594 608.738281 C 189.949219 627.679688 181.039062 645.390625 169.585938 661.746094 C 161.105469 655.304688 152.234375 649.320312 142.972656 643.804688 C 138.765625 641.300781 133.3125 642.6875 130.800781 646.898438 C 128.296875 651.105469 129.675781 656.558594 133.886719 659.070312 C 159.28125 674.1875 181.511719 693.082031 200.929688 715.332031 C 204.152344 719.023438 209.765625 719.402344 213.457031 716.183594 C 217.148438 712.964844 217.53125 707.347656 214.308594 703.65625 C 207.242188 695.558594 199.824219 687.875 192.035156 680.628906 Z M 192.035156 680.628906 " fill-opacity="1" fill-rule="evenodd"/><path fill="#ffffff" d="M 144.28125 714.722656 C 137.503906 709.035156 136.625 698.914062 142.3125 692.136719 C 147.988281 685.363281 158.113281 684.484375 164.886719 690.171875 C 171.664062 695.847656 172.542969 705.96875 166.863281 712.746094 C 161.175781 719.519531 151.054688 720.410156 144.28125 714.722656 Z M 144.28125 714.722656 " fill-opacity="1" fill-rule="evenodd"/><path fill="#ffffff" d="M 59.210938 358.632812 C 78.511719 363.792969 96.734375 371.648438 113.984375 381.917969 C 118.195312 384.421875 123.644531 383.03125 126.15625 378.824219 C 128.660156 374.617188 127.273438 369.15625 123.066406 366.652344 C 110.855469 359.386719 98.195312 353.246094 85.050781 348.304688 C 99.09375 348.148438 113.097656 346.707031 127.054688 344.058594 C 131.863281 343.140625 135.027344 338.488281 134.113281 333.671875 C 133.207031 328.855469 128.550781 325.691406 123.734375 326.609375 C 104.027344 330.355469 84.238281 331.496094 64.347656 329.753906 C 65.679688 319.1875 66.433594 308.511719 66.578125 297.738281 C 66.640625 292.839844 62.714844 288.804688 57.816406 288.742188 C 52.917969 288.675781 48.882812 292.59375 48.816406 297.503906 C 48.417969 327.050781 43.167969 355.75 33.609375 383.695312 C 32.019531 388.328125 34.496094 393.382812 39.140625 394.96875 C 43.773438 396.554688 48.828125 394.078125 50.414062 389.445312 C 53.898438 379.269531 56.835938 369 59.210938 358.632812 Z M 59.210938 358.632812 " fill-opacity="1" fill-rule="evenodd"/><path fill="#ffffff" d="M 5.816406 334.328125 C 7.351562 325.621094 15.667969 319.796875 24.382812 321.328125 C 33.089844 322.863281 38.914062 331.179688 37.378906 339.894531 C 35.847656 348.601562 27.53125 354.425781 18.8125 352.894531 C 10.105469 351.359375 4.285156 343.042969 5.816406 334.328125 Z M 5.816406 334.328125 " fill-opacity="1" fill-rule="evenodd"/><path fill="#ffffff" d="M 271.757812 82.507812 C 276.9375 101.796875 279.25 121.507812 278.980469 141.578125 C 278.914062 146.476562 282.84375 150.503906 287.742188 150.578125 C 292.636719 150.640625 296.675781 146.714844 296.738281 141.816406 C 296.929688 127.601562 295.914062 113.570312 293.625 99.710938 C 300.773438 111.800781 309.019531 123.203125 318.296875 133.960938 C 321.5 137.679688 327.113281 138.097656 330.824219 134.894531 C 334.53125 131.691406 334.949219 126.078125 331.75 122.367188 C 318.652344 107.175781 307.765625 90.605469 299.332031 72.511719 C 309.144531 68.382812 318.769531 63.695312 328.175781 58.433594 C 332.445312 56.039062 333.980469 50.625 331.585938 46.34375 C 329.191406 42.070312 323.777344 40.539062 319.503906 42.933594 C 293.707031 57.363281 266.226562 67.167969 237.257812 72.863281 C 232.441406 73.808594 229.300781 78.480469 230.253906 83.285156 C 231.199219 88.09375 235.867188 91.230469 240.675781 90.289062 C 251.222656 88.210938 261.582031 85.625 271.757812 82.507812 Z M 271.757812 82.507812 " fill-opacity="1" fill-rule="evenodd"/><path fill="#ffffff" d="M 266.109375 24.105469 C 274.417969 21.085938 283.621094 25.375 286.644531 33.691406 C 289.671875 42 285.382812 51.207031 277.066406 54.226562 C 268.757812 57.253906 259.550781 52.964844 256.53125 44.648438 C 253.5 36.339844 257.792969 27.132812 266.109375 24.105469 Z M 266.109375 24.105469 " fill-opacity="1" fill-rule="evenodd"/><path fill="#ffffff" d="M 639.566406 661.773438 C 628.101562 645.410156 619.195312 627.6875 612.574219 608.730469 C 610.960938 604.105469 605.898438 601.664062 601.273438 603.28125 C 596.648438 604.894531 594.199219 609.957031 595.8125 614.589844 C 600.492188 628.003906 606.242188 640.847656 613.136719 653.082031 C 602.28125 644.167969 590.632812 636.277344 578.234375 629.339844 C 573.953125 626.945312 568.539062 628.46875 566.144531 632.75 C 563.757812 637.019531 565.28125 642.433594 569.5625 644.828125 C 587.070312 654.632812 602.96875 666.480469 617.074219 680.59375 C 609.261719 687.832031 601.835938 695.53125 594.789062 703.695312 C 591.59375 707.402344 592.003906 713.007812 595.714844 716.210938 C 599.433594 719.414062 605.035156 718.996094 608.238281 715.285156 C 627.539062 692.902344 650.007812 674.289062 675.292969 659.03125 C 679.484375 656.503906 680.835938 651.042969 678.304688 646.84375 C 675.773438 642.652344 670.3125 641.300781 666.113281 643.832031 C 656.910156 649.382812 648.054688 655.359375 639.566406 661.773438 Z M 639.566406 661.773438 " fill-opacity="1" fill-rule="evenodd"/><path fill="#ffffff" d="M 664.855469 714.714844 C 658.078125 720.402344 647.957031 719.511719 642.277344 712.738281 C 636.589844 705.960938 637.472656 695.847656 644.246094 690.160156 C 651.023438 684.472656 661.144531 685.363281 666.832031 692.136719 C 672.519531 698.914062 671.628906 709.027344 664.855469 714.714844 Z M 664.855469 714.714844 " fill-opacity="1" fill-rule="evenodd"/><path fill="#ffffff" d="M 169.65625 147.421875 C 181.132812 163.78125 190.039062 181.503906 196.648438 200.460938 C 198.265625 205.085938 203.335938 207.535156 207.960938 205.914062 C 212.585938 204.296875 215.035156 199.238281 213.421875 194.613281 C 208.742188 181.195312 202.988281 168.34375 196.097656 156.117188 C 206.945312 165.027344 218.601562 172.917969 231 179.855469 C 235.269531 182.25 240.683594 180.726562 243.078125 176.445312 C 245.472656 172.171875 243.949219 166.757812 239.667969 164.363281 C 222.164062 154.566406 206.265625 142.722656 192.152344 128.601562 C 199.96875 121.363281 207.398438 113.671875 214.4375 105.507812 C 217.636719 101.789062 217.222656 96.183594 213.511719 92.980469 C 209.800781 89.78125 204.1875 90.199219 200.996094 93.90625 C 181.695312 116.292969 159.21875 134.902344 133.941406 150.160156 C 129.742188 152.691406 128.390625 158.148438 130.929688 162.351562 C 133.460938 166.550781 138.917969 167.890625 143.117188 165.359375 C 152.316406 159.808594 161.167969 153.832031 169.65625 147.421875 Z M 169.65625 147.421875 " fill-opacity="1" fill-rule="evenodd"/><path fill="#ffffff" d="M 144.378906 94.480469 C 151.15625 88.792969 161.269531 89.679688 166.953125 96.457031 C 172.640625 103.230469 171.753906 113.34375 164.976562 119.03125 C 158.203125 124.71875 148.089844 123.828125 142.402344 117.054688 C 136.714844 110.277344 137.605469 100.164062 144.378906 94.480469 Z M 144.378906 94.480469 " fill-opacity="1" fill-rule="evenodd"/><path fill="#ffffff" d="M 509.890625 72.546875 C 501.457031 90.660156 490.5625 107.242188 477.457031 122.441406 C 474.257812 126.152344 474.671875 131.765625 478.382812 134.96875 C 482.09375 138.167969 487.707031 137.75 490.910156 134.042969 C 500.1875 123.277344 508.433594 111.875 515.578125 99.792969 C 513.292969 113.644531 512.277344 127.675781 512.46875 141.886719 C 512.539062 146.785156 516.566406 150.714844 521.464844 150.648438 C 526.363281 150.585938 530.289062 146.550781 530.226562 141.652344 C 529.964844 121.589844 532.269531 101.898438 537.4375 82.613281 C 547.613281 85.761719 558 88.355469 568.585938 90.371094 C 573.402344 91.285156 578.054688 88.121094 578.96875 83.304688 C 579.886719 78.496094 576.71875 73.84375 571.902344 72.929688 C 542.871094 67.40625 515.515625 57.246094 489.65625 42.980469 C 485.367188 40.613281 479.960938 42.179688 477.59375 46.472656 C 475.226562 50.761719 476.796875 56.167969 481.085938 58.535156 C 490.492188 63.722656 500.097656 68.402344 509.890625 72.546875 Z M 509.890625 72.546875 " fill-opacity="1" fill-rule="evenodd"/><path fill="#ffffff" d="M 543.097656 24.1875 C 551.414062 27.207031 555.703125 36.414062 552.683594 44.71875 C 549.65625 53.039062 540.449219 57.328125 532.140625 54.296875 C 523.824219 51.277344 519.535156 42.070312 522.5625 33.765625 C 525.582031 25.445312 534.789062 21.15625 543.097656 24.1875 Z M 543.097656 24.1875 " fill-opacity="1" fill-rule="evenodd"/><path fill="#ffffff" d="M 419.203125 752.570312 C 420.933594 732.671875 425.496094 713.363281 432.617188 694.597656 C 434.347656 690.015625 432.042969 684.882812 427.464844 683.148438 C 422.875 681.410156 417.75 683.722656 416.007812 688.300781 C 410.976562 701.589844 407.121094 715.121094 404.535156 728.925781 C 401.949219 715.121094 398.105469 701.589844 393.0625 688.300781 C 391.328125 683.722656 386.195312 681.410156 381.613281 683.148438 C 377.035156 684.882812 374.722656 690.015625 376.453125 694.597656 C 383.574219 713.351562 388.136719 732.65625 389.867188 752.535156 C 379.230469 753.0625 368.589844 754.175781 357.953125 755.902344 C 353.117188 756.691406 349.824219 761.253906 350.613281 766.09375 C 351.402344 770.929688 355.964844 774.222656 360.800781 773.433594 C 389.976562 768.691406 419.148438 768.878906 448.324219 773.441406 C 453.167969 774.195312 457.710938 770.882812 458.464844 766.042969 C 459.226562 761.199219 455.90625 756.652344 451.0625 755.890625 C 440.441406 754.230469 429.824219 753.125 419.203125 752.570312 Z M 419.203125 752.570312 " fill-opacity="1" fill-rule="evenodd"/><path fill="#ffffff" d="M 420.5625 793.359375 C 420.5625 793.886719 420.535156 794.410156 420.484375 794.929688 C 420.433594 795.453125 420.355469 795.972656 420.253906 796.488281 C 420.152344 797 420.023438 797.511719 419.871094 798.011719 C 419.71875 798.515625 419.542969 799.007812 419.339844 799.492188 C 419.140625 799.976562 418.917969 800.453125 418.667969 800.914062 C 418.421875 801.378906 418.152344 801.828125 417.859375 802.265625 C 417.570312 802.699219 417.257812 803.121094 416.925781 803.527344 C 416.589844 803.933594 416.238281 804.320312 415.867188 804.691406 C 415.496094 805.0625 415.109375 805.414062 414.703125 805.75 C 414.296875 806.082031 413.875 806.394531 413.4375 806.6875 C 413.003906 806.976562 412.554688 807.246094 412.089844 807.496094 C 411.628906 807.742188 411.152344 807.964844 410.667969 808.167969 C 410.183594 808.367188 409.691406 808.542969 409.1875 808.695312 C 408.683594 808.847656 408.175781 808.976562 407.660156 809.078125 C 407.148438 809.179688 406.628906 809.257812 406.105469 809.308594 C 405.582031 809.359375 405.058594 809.386719 404.535156 809.386719 C 404.011719 809.386719 403.488281 809.359375 402.964844 809.308594 C 402.441406 809.257812 401.921875 809.179688 401.410156 809.078125 C 400.894531 808.976562 400.386719 808.847656 399.882812 808.695312 C 399.378906 808.542969 398.886719 808.367188 398.402344 808.167969 C 397.917969 807.964844 397.441406 807.742188 396.980469 807.496094 C 396.515625 807.246094 396.066406 806.976562 395.632812 806.6875 C 395.195312 806.394531 394.773438 806.082031 394.367188 805.75 C 393.960938 805.414062 393.574219 805.0625 393.203125 804.691406 C 392.832031 804.320312 392.480469 803.933594 392.144531 803.527344 C 391.8125 803.121094 391.5 802.699219 391.210938 802.265625 C 390.917969 801.828125 390.648438 801.378906 390.402344 800.914062 C 390.152344 800.453125 389.929688 799.976562 389.726562 799.492188 C 389.527344 799.007812 389.351562 798.515625 389.199219 798.011719 C 389.046875 797.511719 388.917969 797 388.816406 796.488281 C 388.714844 795.972656 388.636719 795.453125 388.585938 794.929688 C 388.535156 794.410156 388.507812 793.886719 388.507812 793.359375 C 388.507812 792.835938 388.535156 792.3125 388.585938 791.789062 C 388.636719 791.265625 388.714844 790.75 388.816406 790.234375 C 388.917969 789.71875 389.046875 789.210938 389.199219 788.707031 C 389.351562 788.207031 389.527344 787.710938 389.726562 787.226562 C 389.929688 786.742188 390.152344 786.269531 390.402344 785.804688 C 390.648438 785.34375 390.917969 784.890625 391.210938 784.457031 C 391.5 784.019531 391.8125 783.597656 392.144531 783.191406 C 392.480469 782.785156 392.832031 782.398438 393.203125 782.027344 C 393.574219 781.65625 393.960938 781.304688 394.367188 780.972656 C 394.773438 780.636719 395.195312 780.324219 395.632812 780.035156 C 396.066406 779.742188 396.515625 779.472656 396.980469 779.226562 C 397.441406 778.976562 397.917969 778.753906 398.402344 778.554688 C 398.886719 778.351562 399.378906 778.175781 399.882812 778.023438 C 400.386719 777.871094 400.894531 777.742188 401.410156 777.640625 C 401.921875 777.539062 402.441406 777.460938 402.964844 777.410156 C 403.488281 777.359375 404.011719 777.332031 404.535156 777.332031 C 405.058594 777.332031 405.582031 777.359375 406.105469 777.410156 C 406.628906 777.460938 407.148438 777.539062 407.660156 777.640625 C 408.175781 777.742188 408.683594 777.871094 409.1875 778.023438 C 409.691406 778.175781 410.183594 778.351562 410.667969 778.554688 C 411.152344 778.753906 411.628906 778.976562 412.089844 779.226562 C 412.554688 779.472656 413.003906 779.742188 413.4375 780.035156 C 413.875 780.324219 414.296875 780.636719 414.703125 780.972656 C 415.109375 781.304688 415.496094 781.65625 415.867188 782.027344 C 416.238281 782.398438 416.589844 782.785156 416.925781 783.191406 C 417.257812 783.597656 417.570312 784.019531 417.859375 784.457031 C 418.152344 784.890625 418.421875 785.34375 418.667969 785.804688 C 418.917969 786.269531 419.140625 786.742188 419.339844 787.226562 C 419.542969 787.710938 419.71875 788.207031 419.871094 788.707031 C 420.023438 789.210938 420.152344 789.71875 420.253906 790.234375 C 420.355469 790.75 420.433594 791.265625 420.484375 791.789062 C 420.535156 792.3125 420.5625 792.835938 420.5625 793.359375 Z M 420.5625 793.359375 " fill-opacity="1" fill-rule="nonzero"/><path fill="#ffffff" d="M 110.492188 591.34375 C 128.597656 582.890625 147.597656 577.195312 167.410156 573.964844 C 172.242188 573.183594 175.535156 568.613281 174.746094 563.78125 C 173.957031 558.945312 169.394531 555.652344 164.558594 556.441406 C 150.539062 558.71875 136.886719 562.15625 123.644531 566.816406 C 134.304688 557.675781 144.097656 547.570312 153.085938 536.570312 C 156.1875 532.769531 155.617188 527.171875 151.824219 524.070312 C 148.027344 520.976562 142.429688 521.539062 139.328125 525.332031 C 126.640625 540.878906 112.21875 554.472656 95.855469 565.921875 C 90.085938 556.96875 83.800781 548.316406 76.988281 539.960938 C 73.886719 536.171875 68.292969 535.597656 64.492188 538.699219 C 60.699219 541.804688 60.128906 547.398438 63.230469 551.191406 C 81.921875 574.09375 96.34375 599.453125 106.984375 626.996094 C 108.753906 631.570312 113.894531 633.84375 118.464844 632.078125 C 123.039062 630.316406 125.316406 625.175781 123.546875 620.601562 C 119.683594 610.570312 115.328125 600.8125 110.492188 591.34375 Z M 110.492188 591.34375 " fill-opacity="1" fill-rule="evenodd"/><path fill="#ffffff" d="M 53.960938 607.042969 C 49.535156 599.386719 52.164062 589.574219 59.828125 585.15625 C 67.484375 580.730469 77.296875 583.363281 81.722656 591.015625 C 86.140625 598.679688 83.511719 608.484375 75.855469 612.910156 C 68.191406 617.339844 58.386719 614.707031 53.960938 607.042969 Z M 53.960938 607.042969 " fill-opacity="1" fill-rule="evenodd"/><path fill="#ffffff" d="M 95.863281 243.261719 C 112.234375 254.71875 126.664062 268.324219 139.363281 283.871094 C 142.464844 287.671875 148.0625 288.234375 151.863281 285.128906 C 155.652344 282.039062 156.226562 276.433594 153.125 272.640625 C 144.136719 261.640625 134.339844 251.535156 123.671875 242.394531 C 136.925781 247.054688 150.566406 250.484375 164.597656 252.769531 C 169.429688 253.558594 173.992188 250.265625 174.78125 245.429688 C 175.570312 240.585938 172.277344 236.027344 167.445312 235.238281 C 147.644531 232.015625 128.652344 226.328125 110.558594 217.886719 C 115.429688 208.40625 119.78125 198.640625 123.601562 188.5625 C 125.339844 183.980469 123.039062 178.847656 118.449219 177.105469 C 113.867188 175.375 108.734375 177.679688 107.003906 182.265625 C 96.515625 209.894531 81.769531 235.074219 63.230469 258.054688 C 60.15625 261.875 60.753906 267.460938 64.574219 270.546875 C 68.382812 273.621094 73.976562 273.023438 77.054688 269.203125 C 83.800781 260.839844 90.078125 252.199219 95.863281 243.261719 Z M 95.863281 243.261719 " fill-opacity="1" fill-rule="evenodd"/><path fill="#ffffff" d="M 53.996094 202.167969 C 58.421875 194.503906 68.226562 191.871094 75.890625 196.296875 C 83.546875 200.714844 86.175781 210.53125 81.75 218.183594 C 77.335938 225.847656 67.519531 228.480469 59.863281 224.054688 C 52.199219 219.636719 49.570312 209.820312 53.996094 202.167969 Z M 53.996094 202.167969 " fill-opacity="1" fill-rule="evenodd"/><path fill="#ffffff" d="M 749.875 450.550781 C 730.574219 445.390625 712.351562 437.535156 695.101562 427.265625 C 690.894531 424.761719 685.441406 426.152344 682.929688 430.359375 C 680.425781 434.566406 681.816406 440.019531 686.023438 442.53125 C 698.230469 449.796875 710.894531 455.9375 724.035156 460.878906 C 709.996094 461.035156 695.992188 462.476562 682.03125 465.125 C 677.226562 466.042969 674.058594 470.695312 674.976562 475.511719 C 675.882812 480.328125 680.535156 483.492188 685.351562 482.574219 C 705.0625 478.828125 724.851562 477.679688 744.742188 479.429688 C 743.410156 489.996094 742.65625 500.660156 742.511719 511.445312 C 742.449219 516.34375 746.375 520.371094 751.273438 520.441406 C 756.171875 520.507812 760.207031 516.578125 760.269531 511.679688 C 760.667969 482.132812 765.921875 453.425781 775.480469 425.488281 C 777.066406 420.855469 774.589844 415.800781 769.949219 414.214844 C 765.3125 412.628906 760.261719 415.105469 758.675781 419.738281 C 755.191406 429.914062 752.253906 440.183594 749.875 450.550781 Z M 749.875 450.550781 " fill-opacity="1" fill-rule="evenodd"/><path fill="#ffffff" d="M 803.269531 474.855469 C 801.738281 483.5625 793.421875 489.386719 784.703125 487.855469 C 775.996094 486.320312 770.175781 477.996094 771.707031 469.289062 C 773.242188 460.582031 781.558594 454.75 790.273438 456.289062 C 798.980469 457.824219 804.804688 466.140625 803.269531 474.855469 Z M 803.269531 474.855469 " fill-opacity="1" fill-rule="evenodd"/><path fill="#ffffff" d="M 617.21875 128.535156 C 603.097656 142.675781 587.1875 154.53125 569.671875 164.335938 C 565.390625 166.722656 563.867188 172.136719 566.261719 176.417969 C 568.648438 180.6875 574.0625 182.222656 578.34375 179.828125 C 590.742188 172.890625 602.386719 165 613.246094 156.082031 C 606.351562 168.316406 600.601562 181.160156 595.921875 194.574219 C 594.308594 199.203125 596.757812 204.269531 601.382812 205.886719 C 606.007812 207.5 611.078125 205.058594 612.691406 200.425781 C 619.292969 181.488281 628.203125 163.773438 639.65625 147.421875 C 648.136719 153.859375 657.007812 159.847656 666.269531 165.359375 C 670.476562 167.863281 675.9375 166.484375 678.441406 162.277344 C 680.953125 158.058594 679.566406 152.609375 675.355469 150.105469 C 649.960938 134.976562 627.730469 116.082031 608.3125 93.835938 C 605.089844 90.144531 599.476562 89.761719 595.785156 92.980469 C 592.09375 96.210938 591.714844 101.824219 594.933594 105.515625 C 602.007812 113.617188 609.425781 121.289062 617.21875 128.535156 Z M 617.21875 128.535156 " fill-opacity="1" fill-rule="evenodd"/><path fill="#ffffff" d="M 664.960938 94.453125 C 671.738281 100.136719 672.625 110.25 666.941406 117.027344 C 661.253906 123.800781 651.128906 124.691406 644.355469 119.003906 C 637.582031 113.316406 636.699219 103.195312 642.386719 96.417969 C 648.074219 89.644531 658.1875 88.765625 664.960938 94.453125 Z M 664.960938 94.453125 " fill-opacity="1" fill-rule="evenodd"/><path fill="#ffffff" d="M 299.203125 736.664062 C 307.640625 718.558594 318.53125 701.980469 331.640625 686.769531 C 334.839844 683.058594 334.421875 677.453125 330.714844 674.253906 C 326.996094 671.050781 321.390625 671.46875 318.1875 675.175781 C 308.910156 685.945312 300.664062 697.34375 293.507812 709.425781 C 295.804688 695.574219 296.808594 681.535156 296.621094 667.332031 C 296.554688 662.433594 292.53125 658.507812 287.632812 658.570312 C 282.726562 658.632812 278.804688 662.671875 278.871094 667.566406 C 279.132812 687.628906 276.828125 707.320312 271.648438 726.59375 C 261.484375 723.457031 251.097656 720.863281 240.511719 718.851562 C 235.695312 717.933594 231.042969 721.097656 230.128906 725.90625 C 229.210938 730.722656 232.375 735.375 237.191406 736.292969 C 266.226562 741.816406 293.582031 751.972656 319.429688 766.230469 C 323.722656 768.597656 329.125 767.039062 331.492188 762.75 C 333.863281 758.457031 332.300781 753.054688 328.011719 750.683594 C 318.597656 745.496094 309 740.816406 299.203125 736.664062 Z M 299.203125 736.664062 " fill-opacity="1" fill-rule="evenodd"/><path fill="#ffffff" d="M 265.992188 785.035156 C 257.683594 782.011719 253.390625 772.808594 256.414062 764.488281 C 259.441406 756.183594 268.648438 751.890625 276.957031 754.914062 C 285.265625 757.941406 289.5625 767.148438 286.535156 775.457031 C 283.503906 783.765625 274.308594 788.0625 265.992188 785.035156 Z M 265.992188 785.035156 " fill-opacity="1" fill-rule="evenodd"/><path fill="#ffffff" d="M 64.273438 479.464844 C 84.171875 477.714844 103.972656 478.855469 123.699219 482.613281 C 128.507812 483.519531 133.160156 480.355469 134.074219 475.546875 C 134.992188 470.730469 131.828125 466.078125 127.011719 465.160156 C 113.050781 462.511719 99.058594 461.070312 85.015625 460.917969 C 98.160156 455.972656 110.820312 449.832031 123.027344 442.566406 C 127.238281 440.054688 128.625 434.605469 126.113281 430.394531 C 123.609375 426.179688 118.160156 424.800781 113.941406 427.304688 C 96.707031 437.570312 78.496094 445.414062 59.210938 450.578125 C 56.855469 440.191406 53.90625 429.90625 50.359375 419.730469 C 48.746094 415.105469 43.675781 412.65625 39.050781 414.269531 C 34.425781 415.882812 31.976562 420.945312 33.589844 425.570312 C 43.320312 453.480469 48.210938 482.25 48.78125 511.773438 C 48.871094 516.671875 52.925781 520.570312 57.824219 520.480469 C 62.730469 520.378906 66.632812 516.324219 66.53125 511.425781 C 66.324219 500.679688 65.578125 490.023438 64.273438 479.464844 Z M 64.273438 479.464844 " fill-opacity="1" fill-rule="evenodd"/><path fill="#ffffff" d="M 5.78125 474.894531 C 4.238281 466.175781 10.0625 457.859375 18.777344 456.328125 C 27.484375 454.785156 35.800781 460.609375 37.34375 469.324219 C 38.878906 478.03125 33.054688 486.347656 24.347656 487.890625 C 15.628906 489.421875 7.3125 483.601562 5.78125 474.894531 Z M 5.78125 474.894531 " fill-opacity="1" fill-rule="evenodd"/><path fill="#ffffff" d="M 713.371094 565.964844 C 696.996094 554.511719 682.558594 540.90625 669.859375 525.351562 C 666.765625 521.558594 661.171875 520.996094 657.371094 524.089844 C 653.578125 527.191406 653.007812 532.789062 656.109375 536.585938 C 665.097656 547.589844 674.894531 557.695312 685.550781 566.835938 C 672.308594 562.175781 658.660156 558.738281 644.636719 556.460938 C 639.800781 555.671875 635.230469 558.964844 634.449219 563.796875 C 633.660156 568.632812 636.945312 573.203125 641.789062 573.984375 C 661.589844 577.210938 680.582031 582.898438 698.667969 591.34375 C 693.804688 600.8125 689.453125 610.589844 685.625 620.667969 C 683.890625 625.246094 686.195312 630.382812 690.777344 632.113281 C 695.363281 633.855469 700.488281 631.550781 702.230469 626.960938 C 712.714844 599.324219 727.464844 574.15625 746.003906 551.171875 C 749.078125 547.355469 748.480469 541.765625 744.660156 538.683594 C 740.851562 535.609375 735.253906 536.207031 732.179688 540.023438 C 725.433594 548.386719 719.15625 557.03125 713.371094 565.964844 Z M 713.371094 565.964844 " fill-opacity="1" fill-rule="evenodd"/><path fill="#ffffff" d="M 755.238281 607.0625 C 750.808594 614.726562 741.003906 617.355469 733.339844 612.929688 C 725.6875 608.503906 723.054688 598.699219 727.472656 591.035156 C 731.898438 583.378906 741.703125 580.75 749.367188 585.175781 C 757.03125 589.59375 759.652344 599.40625 755.238281 607.0625 Z M 755.238281 607.0625 " fill-opacity="1" fill-rule="evenodd"/><path fill="#ffffff" d="M 537.320312 726.613281 C 532.140625 707.320312 529.828125 687.621094 530.089844 667.550781 C 530.164062 662.644531 526.238281 658.617188 521.339844 658.550781 C 516.433594 658.488281 512.40625 662.40625 512.339844 667.3125 C 512.152344 681.519531 513.15625 695.558594 515.453125 709.40625 C 508.304688 697.328125 500.050781 685.925781 490.773438 675.160156 C 487.570312 671.449219 481.964844 671.03125 478.257812 674.234375 C 474.539062 677.425781 474.128906 683.042969 477.320312 686.75 C 490.417969 701.953125 501.3125 718.515625 509.746094 736.609375 C 499.925781 740.746094 490.308594 745.425781 480.90625 750.695312 C 476.625 753.089844 475.101562 758.503906 477.496094 762.777344 C 479.878906 767.058594 485.292969 768.582031 489.574219 766.1875 C 515.371094 751.757812 542.84375 741.953125 571.824219 736.265625 C 576.628906 735.320312 579.769531 730.648438 578.824219 725.84375 C 577.882812 721.027344 573.210938 717.886719 568.402344 718.839844 C 557.855469 720.910156 547.488281 723.492188 537.320312 726.613281 Z M 537.320312 726.613281 " fill-opacity="1" fill-rule="evenodd"/><path fill="#ffffff" d="M 542.972656 785.015625 C 534.652344 788.035156 525.457031 783.746094 522.425781 775.4375 C 519.40625 767.121094 523.695312 757.921875 532.003906 754.894531 C 540.324219 751.875 549.519531 756.164062 552.546875 764.472656 C 555.570312 772.789062 551.277344 781.984375 542.972656 785.015625 Z M 542.972656 785.015625 " fill-opacity="1" fill-rule="evenodd"/><path fill="#ffffff" d="M 744.816406 329.71875 C 724.914062 331.46875 705.117188 330.316406 685.386719 326.570312 C 680.582031 325.65625 675.929688 328.820312 675.011719 333.636719 C 674.097656 338.453125 677.261719 343.105469 682.078125 344.023438 C 696.035156 346.671875 710.03125 348.113281 724.070312 348.265625 C 710.929688 353.210938 698.265625 359.351562 686.058594 366.617188 C 681.851562 369.128906 680.464844 374.578125 682.976562 378.789062 C 685.480469 382.996094 690.929688 384.382812 695.148438 381.878906 C 712.378906 371.613281 730.59375 363.769531 749.875 358.605469 C 752.234375 368.992188 755.183594 379.277344 758.726562 389.453125 C 760.34375 394.078125 765.414062 396.527344 770.039062 394.914062 C 774.664062 393.300781 777.113281 388.238281 775.5 383.605469 C 765.765625 355.695312 760.878906 326.933594 760.304688 297.410156 C 760.214844 292.511719 756.160156 288.613281 751.261719 288.703125 C 746.355469 288.804688 742.457031 292.859375 742.554688 297.757812 C 742.765625 308.503906 743.507812 319.160156 744.816406 329.71875 Z M 744.816406 329.71875 " fill-opacity="1" fill-rule="evenodd"/><path fill="#ffffff" d="M 803.308594 334.289062 C 804.847656 343.007812 799.027344 351.324219 790.308594 352.855469 C 781.601562 354.398438 773.285156 348.566406 771.742188 339.859375 C 770.210938 331.152344 776.035156 322.824219 784.742188 321.292969 C 793.457031 319.761719 801.773438 325.582031 803.308594 334.289062 Z M 803.308594 334.289062 " fill-opacity="1" fill-rule="evenodd"/></svg>