<svg xmlns="http://www.w3.org/2000/svg" xmlns:xlink="http://www.w3.org/1999/xlink" width="1080" zoomAndPan="magnify" viewBox="0 0 810 809.999993" height="1080" preserveAspectRatio="xMidYMid meet" version="1.0"><defs><clipPath id="10d14500d1"><path d="M 0 81 L 797 81 L 797 739.5 L 0 739.5 Z M 0 81 " clip-rule="nonzero"/></clipPath></defs><g clip-path="url(#10d14500d1)"><path fill="#ffffff" d="M 389.730469 505.375 C 392.035156 507.792969 395.21875 509.21875 398.621094 509.21875 C 402.023438 509.21875 405.207031 507.792969 407.511719 505.375 L 487.097656 420.414062 C 487.207031 420.304688 487.207031 420.304688 487.316406 420.195312 C 499.609375 406.363281 505.867188 390.886719 505.867188 374.199219 C 505.867188 339.621094 477.765625 311.519531 443.1875 311.519531 C 426.722656 311.519531 410.585938 319.09375 398.621094 331.71875 C 386.65625 319.09375 370.519531 311.519531 354.054688 311.519531 C 319.476562 311.519531 291.375 339.621094 291.375 374.199219 C 291.375 390.886719 297.632812 406.363281 309.925781 420.195312 C 310.035156 420.304688 310.035156 420.304688 310.144531 420.414062 Z M 354.054688 335.667969 C 367.335938 335.667969 380.617188 344.453125 387.863281 357.953125 C 389.179688 360.476562 391.375 362.34375 393.902344 363.441406 C 395.21875 363.992188 396.644531 364.320312 398.074219 364.320312 C 402.683594 364.539062 407.074219 362.015625 409.269531 357.953125 C 416.515625 344.453125 429.796875 335.667969 443.078125 335.667969 C 464.265625 335.667969 481.5 352.902344 481.5 374.089844 C 481.5 384.738281 477.4375 394.507812 469.203125 403.839844 L 398.621094 479.25 L 328.039062 403.839844 C 319.695312 394.507812 315.742188 384.738281 315.742188 374.089844 C 315.632812 352.902344 332.867188 335.667969 354.054688 335.667969 Z M 587.867188 574.3125 L 509.378906 606.148438 C 507.183594 584.742188 489.074219 567.835938 467.007812 567.835938 L 403.121094 567.835938 C 399.5 566.738281 389.070312 563.445312 379.742188 557.410156 C 378.644531 556.75 377.433594 555.761719 376.007812 554.664062 C 369.203125 549.503906 358.992188 541.710938 334.953125 536.113281 C 310.035156 530.292969 274.800781 527.769531 227.488281 528.429688 C 221.890625 514.816406 208.496094 505.15625 192.800781 505.15625 L 37.582031 505.15625 C 16.945312 505.046875 0.152344 521.84375 0.152344 542.480469 L 0.152344 678.816406 C 0.152344 699.453125 16.945312 716.246094 37.582031 716.246094 L 192.800781 716.246094 C 207.398438 716.246094 220.132812 707.796875 226.28125 695.609375 C 262.285156 707.027344 368.433594 739.628906 402.132812 739.628906 C 408.828125 739.628906 429.136719 739.628906 529.140625 687.707031 C 577.4375 662.570312 621.675781 637.101562 622.117188 636.882812 C 622.226562 636.773438 622.335938 636.773438 622.445312 636.664062 C 624.3125 635.457031 641.105469 624.808594 643.742188 607.902344 C 644.730469 601.753906 644.179688 592.316406 635.949219 582.65625 C 619.152344 563.117188 598.734375 566.628906 587.867188 574.3125 Z M 206.082031 678.816406 C 206.082031 686.058594 200.15625 691.988281 192.910156 691.988281 L 37.582031 691.988281 C 30.339844 691.988281 24.410156 686.058594 24.410156 678.816406 L 24.410156 542.480469 C 24.410156 535.234375 30.339844 529.308594 37.582031 529.308594 L 192.800781 529.308594 C 200.042969 529.308594 205.972656 535.234375 205.972656 542.480469 L 205.972656 678.816406 Z M 619.699219 604.0625 C 619.042969 608.234375 613.445312 613.609375 609.820312 615.917969 C 606.636719 617.78125 564.15625 642.152344 517.941406 666.191406 C 432.539062 710.539062 408.609375 715.371094 402.242188 715.371094 C 374.140625 715.371094 275.566406 685.839844 230.339844 671.460938 L 230.339844 552.578125 C 331.988281 551.480469 350.980469 565.96875 361.410156 573.875 C 363.164062 575.191406 364.921875 576.507812 366.789062 577.714844 C 381.828125 587.375 397.960938 591.546875 398.730469 591.65625 C 399.71875 591.875 400.707031 591.984375 401.695312 591.984375 L 467.226562 591.984375 C 477.328125 591.984375 485.449219 600.21875 485.449219 610.207031 C 485.449219 620.199219 477.21875 628.429688 467.226562 628.429688 L 336.710938 628.429688 C 330.015625 628.429688 324.527344 633.917969 324.527344 640.613281 C 324.527344 647.3125 330.015625 652.800781 336.710938 652.800781 L 467.117188 652.800781 C 481.167969 652.800781 493.683594 645.992188 501.367188 635.457031 L 598.40625 596.046875 C 599.722656 595.5 600.492188 595.167969 601.480469 594.183594 C 604.992188 591.65625 610.480469 590.339844 617.394531 598.351562 C 620.140625 601.644531 619.8125 603.402344 619.699219 604.0625 Z M 759.550781 104.382812 L 604.222656 104.382812 C 589.625 104.382812 576.890625 112.832031 570.742188 125.019531 C 534.847656 113.601562 428.699219 81 394.890625 81 C 388.304688 81 367.886719 81 267.992188 132.921875 C 219.695312 158.058594 175.457031 183.527344 175.015625 183.746094 C 174.90625 183.855469 174.796875 183.855469 174.6875 183.964844 C 172.820312 185.171875 156.027344 195.820312 153.390625 212.726562 C 152.402344 218.871094 152.953125 228.3125 161.1875 237.972656 C 170.40625 248.730469 180.613281 252.574219 189.835938 252.574219 C 197.410156 252.574219 204.324219 249.9375 209.265625 246.535156 L 287.753906 214.703125 C 289.949219 236.105469 308.058594 253.011719 330.125 253.011719 L 394.011719 253.011719 C 397.632812 254.109375 408.0625 257.402344 417.390625 263.441406 C 418.488281 264.097656 419.699219 265.085938 421.125 266.183594 C 427.929688 271.34375 438.140625 279.136719 462.179688 284.734375 C 484.574219 289.894531 515.417969 292.53125 555.8125 292.53125 C 560.316406 292.53125 564.925781 292.53125 569.644531 292.417969 C 575.242188 306.03125 588.636719 315.691406 604.332031 315.691406 L 759.550781 315.691406 C 780.1875 315.691406 796.980469 298.894531 796.980469 278.257812 L 796.980469 141.921875 C 796.980469 121.175781 780.1875 104.382812 759.550781 104.382812 Z M 566.792969 268.050781 C 465.144531 269.148438 446.152344 254.660156 435.722656 246.753906 C 433.96875 245.4375 432.210938 244.121094 430.34375 242.914062 C 415.304688 233.253906 399.171875 229.082031 398.402344 228.972656 C 397.414062 228.753906 396.425781 228.644531 395.4375 228.644531 L 329.90625 228.644531 C 319.804688 228.644531 311.683594 220.410156 311.683594 210.421875 C 311.683594 200.429688 319.914062 192.199219 329.90625 192.199219 L 460.3125 192.199219 C 467.007812 192.199219 472.496094 186.710938 472.496094 180.015625 C 472.496094 173.316406 467.007812 167.828125 460.3125 167.828125 L 330.015625 167.828125 C 315.964844 167.828125 303.449219 174.636719 295.765625 185.171875 L 198.726562 224.582031 C 197.410156 225.128906 196.640625 225.460938 195.652344 226.445312 C 192.140625 228.972656 186.652344 230.289062 179.738281 222.277344 C 176.992188 219.09375 177.320312 217.335938 177.433594 216.675781 C 178.089844 212.507812 183.6875 207.128906 187.421875 204.820312 C 190.605469 202.957031 233.085938 178.585938 279.300781 154.546875 C 364.703125 110.199219 388.632812 105.371094 395 105.371094 C 423.101562 105.371094 521.675781 134.898438 566.902344 149.277344 L 566.902344 268.050781 Z M 772.722656 278.148438 C 772.722656 285.394531 766.792969 291.320312 759.550781 291.320312 L 604.222656 291.320312 C 596.976562 291.320312 591.050781 285.394531 591.050781 278.148438 L 591.050781 141.8125 C 591.050781 134.570312 596.976562 128.640625 604.222656 128.640625 L 759.441406 128.640625 C 766.683594 128.640625 772.613281 134.570312 772.613281 141.8125 Z M 772.722656 278.148438 " fill-opacity="1" fill-rule="nonzero"/></g></svg>