<svg xmlns="http://www.w3.org/2000/svg" xmlns:xlink="http://www.w3.org/1999/xlink" width="1080" zoomAndPan="magnify" viewBox="0 0 810 809.999993" height="1080" preserveAspectRatio="xMidYMid meet" version="1.0"><path fill="#ffffff" d="M 405 0 C 181.695312 0 0 181.695312 0 405 C 0 628.304688 181.695312 810 405 810 C 628.304688 810 810 628.304688 810 405 C 810 181.695312 628.304688 0 405 0 Z M 405 739.316406 C 220.660156 739.316406 70.683594 589.339844 70.683594 405 C 70.683594 220.660156 220.660156 70.683594 405 70.683594 C 589.339844 70.683594 739.316406 220.660156 739.316406 405 C 739.316406 589.339844 589.339844 739.316406 405 739.316406 Z M 405 739.316406 " fill-opacity="1" fill-rule="nonzero"/><path fill="#ffffff" d="M 285.121094 399.203125 L 352.734375 331.589844 C 375.328125 308.992188 370.128906 269.089844 337.214844 254.425781 C 319.652344 246.582031 298.847656 252.292969 285.289062 265.851562 L 275.316406 275.828125 L 264.484375 264.996094 C 243.253906 243.851562 206.933594 247.007812 190.394531 274.71875 C 180.074219 291.941406 184.9375 318.628906 199.175781 332.867188 L 265.507812 399.203125 C 270.882812 404.574219 279.664062 404.574219 285.121094 399.203125 Z M 285.121094 399.203125 " fill-opacity="1" fill-rule="nonzero"/><path fill="#ffffff" d="M 596.671875 254.425781 C 579.105469 246.582031 558.304688 252.292969 544.746094 265.851562 L 534.769531 275.828125 L 523.941406 264.996094 C 502.710938 243.851562 466.390625 247.007812 449.847656 274.71875 C 439.53125 291.941406 444.390625 318.628906 458.628906 332.867188 L 524.964844 399.203125 C 530.421875 404.660156 539.203125 404.660156 544.660156 399.203125 L 612.273438 331.589844 C 634.785156 308.992188 629.667969 269.089844 596.671875 254.425781 Z M 596.671875 254.425781 " fill-opacity="1" fill-rule="nonzero"/><path fill="#ffffff" d="M 536.21875 479.179688 L 273.695312 479.179688 C 261.332031 479.179688 251.527344 490.09375 253.402344 502.285156 C 264.570312 575.953125 328.179688 632.480469 405 632.480469 C 481.820312 632.480469 545.429688 576.039062 556.597656 502.285156 C 558.386719 490.09375 548.582031 479.179688 536.21875 479.179688 Z M 536.21875 479.179688 " fill-opacity="1" fill-rule="nonzero"/></svg>