<svg xmlns="http://www.w3.org/2000/svg" xmlns:xlink="http://www.w3.org/1999/xlink" width="1080" zoomAndPan="magnify" viewBox="0 0 810 809.999993" height="1080" preserveAspectRatio="xMidYMid meet" version="1.0"><path fill="#ffffff" d="M 79.898438 405 C 79.898438 359.945312 88.96875 316.339844 106.851562 275.40625 L 82.109375 264.59375 C 62.726562 308.964844 52.898438 356.199219 52.898438 405 C 52.898438 496.34375 87.804688 582.847656 151.183594 648.585938 L 170.617188 629.847656 C 112.121094 569.167969 79.898438 489.316406 79.898438 405 " fill-opacity="1" fill-rule="nonzero"/><path fill="#ffffff" d="M 751.378906 247.382812 L 737.445312 233.457031 L 718.355469 252.546875 L 732.28125 266.480469 C 712.285156 282.855469 687.511719 293.617188 660.398438 296.320312 L 660.398438 270 L 633.398438 270 L 633.398438 296.320312 C 606.289062 293.617188 581.515625 282.855469 561.515625 266.480469 L 575.445312 252.546875 L 556.355469 233.457031 L 542.417969 247.382812 C 526.046875 227.382812 515.28125 202.613281 512.578125 175.5 L 538.898438 175.5 L 538.898438 148.5 L 512.578125 148.5 C 515.28125 121.386719 526.046875 96.617188 542.417969 76.617188 L 556.355469 90.546875 L 575.445312 71.457031 L 561.515625 57.519531 C 581.515625 41.144531 606.289062 30.382812 633.398438 27.679688 L 633.398438 54 L 660.398438 54 L 660.398438 27.679688 C 687.511719 30.382812 712.285156 41.144531 732.28125 57.519531 L 718.355469 71.457031 L 737.445312 90.546875 L 751.378906 76.617188 C 767.753906 96.617188 778.519531 121.386719 781.21875 148.5 L 754.898438 148.5 L 754.898438 175.5 L 781.21875 175.5 C 778.519531 202.613281 767.753906 227.382812 751.378906 247.382812 Z M 646.898438 0 C 557.574219 0 484.898438 72.675781 484.898438 162 C 484.898438 251.324219 557.574219 324 646.898438 324 C 736.226562 324 808.898438 251.324219 808.898438 162 C 808.898438 72.675781 736.226562 0 646.898438 0 " fill-opacity="1" fill-rule="nonzero"/><path fill="#ffffff" d="M 633.398438 156.410156 L 596.855469 192.957031 L 615.945312 212.046875 L 656.445312 171.546875 C 658.976562 169.015625 660.398438 165.578125 660.398438 162 L 660.398438 81 L 633.398438 81 L 633.398438 156.410156 " fill-opacity="1" fill-rule="nonzero"/><path fill="#ffffff" d="M 36.652344 203.988281 L 29.148438 136.488281 C 28.722656 132.621094 29.914062 128.894531 32.503906 125.996094 C 35.101562 123.09375 38.675781 121.5 42.5625 121.5 L 79.898438 121.5 C 84.382812 121.5 88.566406 119.277344 91.078125 115.566406 C 93.589844 111.855469 94.097656 107.144531 92.429688 102.984375 L 80.242188 72.515625 C 78.554688 68.285156 79.050781 63.703125 81.601562 59.933594 C 84.152344 56.164062 88.226562 54 92.78125 54 L 99.253906 54 L 135.824219 114.949219 C 138.261719 119.007812 142.660156 121.5 147.398438 121.5 L 187.898438 121.5 L 187.898438 189 L 147.398438 189 C 143.820312 189 140.386719 190.425781 137.855469 192.957031 L 118.765625 212.046875 C 116.214844 214.597656 112.820312 216 109.214844 216 L 50.066406 216 C 43.175781 216 37.410156 210.839844 36.652344 203.988281 Z M 214.898438 108 L 268.898438 108 L 268.898438 216 L 214.898438 216 Z M 137.855469 231.136719 L 152.988281 216 L 187.898438 216 L 187.898438 229.5 C 187.898438 236.957031 193.945312 243 201.398438 243 L 282.398438 243 C 289.855469 243 295.898438 236.957031 295.898438 229.5 L 295.898438 94.5 C 295.898438 87.042969 289.855469 81 282.398438 81 L 201.398438 81 C 193.945312 81 187.898438 87.042969 187.898438 94.5 L 155.039062 94.5 L 118.476562 33.550781 C 116.035156 29.492188 111.640625 27 106.898438 27 L 92.78125 27 C 79.324219 27 66.789062 33.652344 59.242188 44.796875 C 51.699219 55.9375 50.175781 70.050781 55.171875 82.542969 L 59.960938 94.5 L 42.5625 94.5 C 31.0625 94.5 20.058594 99.417969 12.386719 107.988281 C 4.714844 116.5625 1.042969 128.039062 2.3125 139.46875 L 9.816406 206.96875 C 12.097656 227.507812 29.398438 243 50.066406 243 L 109.214844 243 C 120.03125 243 130.203125 238.789062 137.855469 231.136719 " fill-opacity="1" fill-rule="nonzero"/><path fill="#ffffff" d="M 349.898438 594 C 342.445312 594 336.398438 600.042969 336.398438 607.5 C 336.398438 642.910156 363.808594 672.039062 398.519531 674.789062 L 373.101562 700.207031 L 244.820312 660.734375 C 234.0625 645.046875 228.398438 626.789062 228.398438 607.5 C 228.398438 555.390625 270.792969 513 322.898438 513 C 370.417969 513 409.84375 548.265625 416.417969 594 Z M 453.945312 597.953125 C 451.414062 595.421875 447.980469 594 444.398438 594 L 443.636719 594 C 436.890625 533.335938 385.332031 486 322.898438 486 C 255.90625 486 201.398438 540.507812 201.398438 607.5 C 201.398438 623.101562 204.445312 638.527344 210.210938 652.871094 C 197.847656 653.675781 186.113281 660.097656 179 670.761719 L 163.167969 694.511719 C 160.925781 697.878906 160.304688 702.074219 161.484375 705.941406 C 162.667969 709.8125 165.519531 712.941406 169.257812 714.484375 L 398.757812 808.984375 C 400.414062 809.664062 402.152344 810 403.898438 810 C 405.96875 810 408.039062 809.523438 409.9375 808.574219 L 488.089844 769.5 L 619.898438 769.5 L 619.898438 742.5 L 484.898438 742.5 C 482.804688 742.5 480.734375 742.988281 478.863281 743.921875 L 403.359375 781.675781 L 194.769531 695.785156 L 201.464844 685.738281 C 204.753906 680.808594 211.003906 678.578125 216.671875 680.320312 L 372.929688 728.398438 C 377.710938 729.875 382.910156 728.585938 386.445312 725.042969 L 440.445312 671.042969 C 444.308594 667.183594 445.460938 661.382812 443.371094 656.332031 C 441.28125 651.289062 436.359375 648 430.898438 648 L 403.898438 648 C 386.300781 648 371.285156 636.714844 365.714844 621 L 438.808594 621 L 475.355469 657.542969 C 477.886719 660.074219 481.320312 661.5 484.898438 661.5 L 619.898438 661.5 L 619.898438 634.5 L 490.488281 634.5 L 453.945312 597.953125 " fill-opacity="1" fill-rule="nonzero"/><path fill="#ffffff" d="M 335.496094 335.46875 L 344.535156 313.652344 C 346.1875 309.65625 345.832031 305.113281 343.578125 301.429688 L 334.507812 286.632812 L 339.53125 281.609375 L 354.328125 290.679688 C 358.015625 292.933594 362.554688 293.289062 366.550781 291.632812 L 388.371094 282.597656 C 392.363281 280.941406 395.324219 277.476562 396.332031 273.269531 L 400.351562 256.5 L 407.445312 256.5 L 411.46875 273.269531 C 412.476562 277.476562 415.433594 280.941406 419.429688 282.597656 L 441.25 291.632812 C 445.242188 293.289062 449.785156 292.933594 453.46875 290.679688 L 468.269531 281.609375 L 473.292969 286.632812 L 464.222656 301.429688 C 461.964844 305.113281 461.609375 309.65625 463.265625 313.652344 L 472.300781 335.46875 C 473.957031 339.464844 477.425781 342.425781 481.628906 343.433594 L 498.398438 347.453125 L 498.398438 354.546875 L 481.628906 358.566406 C 477.425781 359.574219 473.957031 362.535156 472.300781 366.53125 L 463.265625 388.347656 C 461.609375 392.34375 461.964844 396.886719 464.222656 400.570312 L 473.292969 415.367188 L 468.269531 420.390625 L 453.46875 411.320312 C 449.785156 409.066406 445.242188 408.710938 441.25 410.367188 L 419.429688 419.402344 C 415.433594 421.058594 412.476562 424.523438 411.46875 428.730469 L 407.445312 445.5 L 400.351562 445.5 L 396.332031 428.730469 C 395.324219 424.523438 392.363281 421.058594 388.371094 419.402344 L 366.550781 410.367188 C 362.554688 408.710938 358.015625 409.066406 354.328125 411.320312 L 339.53125 420.390625 L 334.507812 415.367188 L 343.578125 400.570312 C 345.832031 396.886719 346.1875 392.34375 344.535156 388.347656 L 335.496094 366.53125 C 333.84375 362.535156 330.375 359.574219 326.167969 358.566406 L 309.398438 354.546875 L 309.398438 347.453125 L 326.167969 343.433594 C 330.375 342.425781 333.84375 339.464844 335.496094 335.46875 Z M 316.960938 309.667969 L 313.183594 318.78125 L 292.753906 323.675781 C 286.675781 325.132812 282.398438 330.566406 282.398438 336.808594 L 282.398438 365.191406 C 282.398438 371.433594 286.675781 376.867188 292.753906 378.324219 L 313.183594 383.222656 L 316.960938 392.332031 L 305.925781 410.339844 C 302.664062 415.660156 303.472656 422.519531 307.890625 426.9375 L 327.960938 447.007812 C 332.378906 451.417969 339.242188 452.230469 344.558594 448.972656 L 362.570312 437.9375 L 371.679688 441.714844 L 376.578125 462.144531 C 378.035156 468.222656 383.464844 472.5 389.707031 472.5 L 418.089844 472.5 C 424.335938 472.5 429.765625 468.222656 431.222656 462.144531 L 436.121094 441.714844 L 445.230469 437.9375 L 463.238281 448.972656 C 468.558594 452.238281 475.421875 451.417969 479.835938 447.007812 L 499.910156 426.9375 C 504.320312 422.519531 505.136719 415.660156 501.875 410.339844 L 490.839844 392.332031 L 494.617188 383.222656 L 515.042969 378.324219 C 521.121094 376.867188 525.398438 371.433594 525.398438 365.191406 L 525.398438 336.808594 C 525.398438 330.566406 521.121094 325.132812 515.042969 323.675781 L 494.617188 318.78125 L 490.839844 309.667969 L 501.875 291.660156 C 505.136719 286.339844 504.324219 279.480469 499.910156 275.0625 L 479.835938 254.992188 C 475.421875 250.574219 468.558594 249.761719 463.238281 253.027344 L 445.230469 264.0625 L 436.121094 260.285156 L 431.222656 239.855469 C 429.765625 233.777344 424.335938 229.5 418.089844 229.5 L 389.707031 229.5 C 383.464844 229.5 378.035156 233.777344 376.578125 239.855469 L 371.679688 260.285156 L 362.570312 264.0625 L 344.558594 253.027344 C 339.242188 249.761719 332.378906 250.574219 327.960938 254.992188 L 307.890625 275.0625 C 303.480469 279.480469 302.664062 286.339844 305.925781 291.660156 L 316.960938 309.667969 " fill-opacity="1" fill-rule="nonzero"/><path fill="#ffffff" d="M 403.898438 337.5 C 411.339844 337.5 417.398438 343.558594 417.398438 351 C 417.398438 358.441406 411.339844 364.5 403.898438 364.5 C 396.457031 364.5 390.398438 358.441406 390.398438 351 C 390.398438 343.558594 396.457031 337.5 403.898438 337.5 Z M 403.898438 391.5 C 426.234375 391.5 444.398438 373.332031 444.398438 351 C 444.398438 328.667969 426.234375 310.5 403.898438 310.5 C 381.566406 310.5 363.398438 328.667969 363.398438 351 C 363.398438 373.332031 381.566406 391.5 403.898438 391.5 " fill-opacity="1" fill-rule="nonzero"/><path fill="#ffffff" d="M 721.417969 340.183594 C 725.71875 361.375 727.898438 383.179688 727.898438 405 C 727.898438 487 697.203125 565.246094 641.460938 625.316406 L 661.257812 643.683594 C 721.644531 578.601562 754.898438 493.835938 754.898438 405 C 754.898438 381.382812 752.539062 357.769531 747.878906 334.816406 L 721.417969 340.183594 " fill-opacity="1" fill-rule="nonzero"/><path fill="#ffffff" d="M 403.898438 81 C 425.71875 81 447.523438 83.183594 468.714844 87.480469 L 474.082031 61.019531 C 451.128906 56.359375 427.519531 54 403.898438 54 C 375.417969 54 347.078125 57.421875 319.667969 64.179688 L 326.128906 90.394531 C 351.421875 84.15625 377.589844 81 403.898438 81 " fill-opacity="1" fill-rule="nonzero"/><path fill="#ffffff" d="M 162.929688 255.578125 C 135.105469 300.355469 120.398438 352.027344 120.398438 405 C 120.398438 457.972656 135.105469 509.644531 162.929688 554.421875 L 185.863281 540.179688 C 160.703125 499.679688 147.398438 452.929688 147.398438 405 C 147.398438 357.070312 160.703125 310.320312 185.863281 269.820312 L 162.929688 255.578125 " fill-opacity="1" fill-rule="nonzero"/><path fill="#ffffff" d="M 602.351562 607.460938 C 657.195312 553.691406 687.398438 481.792969 687.398438 405 C 687.398438 385.921875 685.488281 366.847656 681.730469 348.3125 L 655.269531 353.691406 C 658.671875 370.460938 660.398438 387.722656 660.398438 405 C 660.398438 474.476562 633.070312 539.53125 583.445312 588.179688 L 602.351562 607.460938 " fill-opacity="1" fill-rule="nonzero"/><path fill="#ffffff" d="M 403.898438 148.5 C 421.175781 148.5 438.441406 150.226562 455.210938 153.628906 L 460.589844 127.167969 C 442.054688 123.410156 422.976562 121.5 403.898438 121.5 C 374.890625 121.5 346.28125 125.871094 318.851562 134.480469 L 326.945312 160.238281 C 351.746094 152.449219 377.636719 148.5 403.898438 148.5 " fill-opacity="1" fill-rule="nonzero"/><path fill="#ffffff" d="M 255.398438 607.5 C 255.398438 623.960938 261.390625 639.820312 272.273438 652.152344 L 292.519531 634.28125 C 285.992188 626.894531 282.398438 617.382812 282.398438 607.5 C 282.398438 585.167969 300.566406 567 322.898438 567 C 330.023438 567 337.019531 568.871094 343.136719 572.410156 L 356.664062 549.039062 C 346.4375 543.125 334.765625 540 322.898438 540 C 285.683594 540 255.398438 570.28125 255.398438 607.5 " fill-opacity="1" fill-rule="nonzero"/></svg>