<svg xmlns="http://www.w3.org/2000/svg" xmlns:xlink="http://www.w3.org/1999/xlink" width="1080" zoomAndPan="magnify" viewBox="0 0 810 809.999993" height="1080" preserveAspectRatio="xMidYMid meet" version="1.0"><defs><clipPath id="a63d0cd401"><path d="M 30 0 L 780.863281 0 L 780.863281 810 L 30 810 Z M 30 0 " clip-rule="nonzero"/></clipPath></defs><g clip-path="url(#a63d0cd401)"><path fill="#ffffff" d="M 249.238281 162.535156 C 220.765625 178.707031 194.917969 198.964844 172.484375 222.507812 C 167.429688 227.8125 159.019531 228.015625 153.714844 222.960938 C 148.410156 217.90625 148.207031 209.496094 153.257812 204.191406 C 177.8125 178.421875 206.160156 156.300781 237.40625 138.726562 L 234.316406 137.664062 C 227.386719 135.285156 223.6875 127.726562 226.070312 120.796875 C 228.445312 113.867188 236.007812 110.171875 242.9375 112.550781 L 276.480469 124.066406 C 283.410156 126.445312 287.105469 134 284.726562 140.933594 L 273.210938 174.476562 C 270.832031 181.40625 263.277344 185.101562 256.34375 182.722656 C 249.414062 180.34375 245.71875 172.785156 248.097656 165.855469 Z M 55.816406 484.566406 L 54.085938 486.527344 C 49.234375 492.015625 40.839844 492.539062 35.347656 487.6875 C 29.855469 482.835938 29.335938 474.4375 34.183594 468.949219 L 57.664062 442.367188 C 62.511719 436.875 70.910156 436.355469 76.402344 441.207031 L 102.984375 464.683594 C 108.476562 469.535156 108.996094 477.929688 104.144531 483.421875 C 99.292969 488.914062 90.898438 489.433594 85.40625 484.585938 L 82.226562 481.773438 C 97.582031 650.78125 239.835938 783.371094 412.8125 783.371094 C 596.03125 783.371094 744.777344 634.625 744.777344 451.410156 C 744.777344 444.082031 750.726562 438.132812 758.050781 438.132812 C 765.378906 438.132812 771.328125 444.082031 771.328125 451.410156 C 771.328125 649.277344 610.683594 809.921875 412.8125 809.921875 C 226.125 809.921875 72.570312 666.917969 55.816406 484.566406 Z M 631.34375 201.605469 C 606.828125 180.136719 579.132812 162.214844 549.058594 148.644531 C 542.378906 145.632812 539.40625 137.761719 542.417969 131.085938 C 545.433594 124.40625 553.300781 121.429688 559.980469 124.441406 C 592.511719 139.121094 622.464844 158.511719 648.96875 181.746094 L 648.878906 178.847656 C 648.644531 171.523438 654.402344 165.386719 661.726562 165.15625 C 669.050781 164.921875 675.183594 170.683594 675.417969 178.003906 L 676.542969 213.453125 C 676.773438 220.777344 671.015625 226.910156 663.691406 227.144531 L 628.246094 228.265625 C 620.921875 228.5 614.785156 222.742188 614.554688 215.417969 C 614.324219 208.09375 620.078125 201.960938 627.40625 201.726562 Z M 412.8125 0.078125 L 489.550781 132.988281 L 336.078125 132.988281 Z M 412.8125 348.828125 C 369.632812 348.828125 334.429688 313.585938 334.429688 270.402344 C 334.429688 227.21875 369.632812 191.976562 412.8125 191.976562 C 456.039062 191.976562 491.242188 227.21875 491.242188 270.402344 C 491.242188 313.585938 456.039062 348.828125 412.8125 348.828125 Z M 548.242188 436.558594 L 277.414062 436.558594 C 303.957031 389.164062 354.648438 357.125 412.8125 357.125 C 471.011719 357.125 521.710938 389.164062 548.242188 436.558594 Z M 267.25 463.113281 C 272.910156 538.566406 335.867188 598.042969 412.773438 598.042969 C 489.675781 598.042969 552.710938 538.566406 558.378906 463.113281 L 662.757812 463.113281 L 662.757812 513.558594 L 621.347656 529.492188 C 616.105469 551.558594 607.320312 572.601562 595.46875 591.945312 L 613.449219 632.535156 L 565.640625 680.34375 L 525.050781 662.367188 C 505.777344 674.285156 484.664062 683 462.597656 688.242188 L 446.664062 729.652344 L 379.035156 729.652344 L 363.097656 688.242188 C 340.964844 683 319.917969 674.214844 300.578125 662.367188 L 259.988281 680.34375 L 212.179688 632.535156 L 230.226562 591.945312 C 218.308594 572.671875 209.589844 551.558594 204.28125 529.492188 L 162.871094 513.558594 L 162.871094 463.113281 Z M 706.226562 258.316406 C 747.285156 258.316406 780.625 291.652344 780.625 332.710938 C 780.625 373.773438 747.285156 407.109375 706.226562 407.109375 C 665.164062 407.109375 631.828125 373.773438 631.828125 332.710938 C 631.828125 291.652344 665.164062 258.316406 706.226562 258.316406 Z M 192.128906 271.6875 L 192.128906 393.734375 L 70.082031 393.734375 L 70.082031 271.6875 Z M 192.128906 271.6875 " fill-opacity="1" fill-rule="evenodd"/></g></svg>