<svg xmlns="http://www.w3.org/2000/svg" xmlns:xlink="http://www.w3.org/1999/xlink" width="1080" zoomAndPan="magnify" viewBox="0 0 810 809.999993" height="1080" preserveAspectRatio="xMidYMid meet" version="1.0"><defs><clipPath id="2282e02b9f"><path d="M 46.503906 0 L 763.503906 0 L 763.503906 809.25 L 46.503906 809.25 Z M 46.503906 0 " clip-rule="nonzero"/></clipPath></defs><g clip-path="url(#2282e02b9f)"><path fill="#ffffff" d="M 260.972656 555.09375 L 332.027344 670.507812 C 334.292969 674.195312 338.191406 676.566406 342.507812 676.886719 C 346.820312 677.207031 351.027344 675.441406 353.816406 672.132812 L 355.695312 669.90625 L 339.476562 748.53125 C 338.609375 752.742188 339.800781 757.113281 342.683594 760.296875 L 386.734375 809.003906 L 93.839844 809.003906 C 91.410156 809.003906 89.101562 807.957031 87.503906 806.132812 C 85.902344 804.308594 85.167969 801.882812 85.484375 799.476562 C 100.214844 692.175781 167.71875 601.699219 260.972656 555.09375 Z M 423.097656 809.003906 L 467.148438 760.296875 C 470.035156 757.113281 471.222656 752.742188 470.355469 748.53125 L 454.136719 669.90625 L 456.015625 672.132812 C 458.867188 675.515625 463.195312 677.28125 467.597656 676.863281 C 472 676.445312 475.917969 673.894531 478.082031 670.039062 L 543.933594 552.683594 C 639.730469 598.53125 709.359375 690.296875 724.339844 799.476562 C 724.65625 801.878906 723.921875 804.304688 722.324219 806.125 C 720.726562 807.949219 718.417969 808.992188 715.996094 808.992188 C 664.683594 809.003906 423.097656 809.003906 423.097656 809.003906 Z M 518.996094 542.019531 L 464.085938 639.875 L 440.605469 612.035156 C 440.550781 611.964844 440.496094 611.898438 440.4375 611.832031 L 423.691406 591.976562 L 490.363281 532.699219 C 500.097656 535.371094 509.652344 538.484375 518.996094 542.019531 Z M 457.796875 525.570312 L 404.320312 573.113281 L 344.632812 526.882812 C 364.160156 523.1875 384.3125 521.257812 404.914062 521.257812 C 422.925781 521.257812 440.589844 522.734375 457.796875 525.570312 Z M 311.191406 535.089844 L 385.546875 592.679688 L 369.394531 611.832031 C 369.339844 611.898438 369.28125 611.964844 369.226562 612.035156 L 345.21875 640.5 L 285.796875 543.976562 C 294.097656 540.671875 302.566406 537.707031 311.191406 535.089844 Z M 392.144531 626.6875 L 404.914062 611.542969 L 417.691406 626.691406 L 442.5625 747.28125 L 404.914062 788.902344 L 367.269531 747.28125 Z M 404.917969 178.34375 C 494.957031 178.34375 567.945312 251.335938 567.945312 341.371094 C 567.945312 431.410156 494.957031 504.402344 404.917969 504.402344 C 314.878906 504.402344 241.890625 431.410156 241.890625 341.371094 C 241.890625 251.335938 314.878906 178.34375 404.917969 178.34375 Z M 399.132812 4.199219 C 399.949219 1.695312 402.28125 0 404.914062 0 C 407.546875 0 409.882812 1.695312 410.695312 4.199219 L 422.90625 41.773438 C 423.71875 44.28125 426.050781 45.976562 428.683594 45.976562 L 468.195312 45.976562 C 470.828125 45.976562 473.160156 47.671875 473.976562 50.175781 C 474.789062 52.679688 473.898438 55.421875 471.769531 56.972656 L 439.804688 80.195312 C 437.671875 81.742188 436.78125 84.484375 437.597656 86.988281 L 449.804688 124.566406 C 450.621094 127.070312 449.726562 129.8125 447.597656 131.359375 C 445.46875 132.90625 442.582031 132.90625 440.453125 131.359375 L 408.488281 108.136719 C 406.359375 106.589844 403.472656 106.589844 401.34375 108.136719 L 369.378906 131.359375 C 367.25 132.90625 364.363281 132.90625 362.234375 131.359375 C 360.101562 129.8125 359.210938 127.070312 360.027344 124.566406 L 372.234375 86.988281 C 373.050781 84.484375 372.15625 81.742188 370.027344 80.195312 L 338.0625 56.972656 C 335.933594 55.421875 335.042969 52.679688 335.855469 50.175781 C 336.667969 47.671875 339 45.976562 341.636719 45.976562 L 381.144531 45.976562 C 383.777344 45.976562 386.113281 44.28125 386.925781 41.773438 Z M 150.492188 111.980469 C 149.296875 109.632812 149.75 106.785156 151.609375 104.921875 C 153.472656 103.058594 156.320312 102.609375 158.667969 103.804688 L 193.871094 121.742188 C 196.21875 122.9375 199.066406 122.488281 200.929688 120.625 L 228.867188 92.6875 C 230.726562 90.824219 233.578125 90.371094 235.921875 91.570312 C 238.269531 92.765625 239.578125 95.335938 239.164062 97.933594 L 232.984375 136.957031 C 232.574219 139.558594 233.882812 142.128906 236.230469 143.324219 L 271.433594 161.261719 C 273.78125 162.457031 275.089844 165.027344 274.675781 167.628906 C 274.265625 170.226562 272.226562 172.269531 269.625 172.679688 L 230.601562 178.859375 C 228 179.273438 225.960938 181.3125 225.550781 183.914062 L 219.367188 222.9375 C 218.957031 225.535156 216.917969 227.578125 214.316406 227.988281 C 211.714844 228.398438 209.144531 227.089844 207.949219 224.746094 L 190.011719 189.542969 C 188.816406 187.195312 186.246094 185.886719 183.644531 186.296875 L 144.625 192.480469 C 142.023438 192.890625 139.453125 191.582031 138.257812 189.234375 C 137.0625 186.886719 137.511719 184.039062 139.375 182.175781 L 167.3125 154.238281 C 169.171875 152.378906 169.625 149.527344 168.429688 147.183594 Z M 50.890625 364.007812 C 48.382812 363.195312 46.6875 360.859375 46.6875 358.226562 C 46.6875 355.59375 48.382812 353.261719 50.890625 352.449219 L 88.464844 340.238281 C 90.96875 339.425781 92.664062 337.089844 92.664062 334.457031 L 92.664062 294.949219 C 92.664062 292.316406 94.359375 289.980469 96.863281 289.167969 C 99.367188 288.355469 102.109375 289.246094 103.660156 291.375 L 126.882812 323.339844 C 128.429688 325.46875 131.171875 326.359375 133.675781 325.546875 L 171.253906 313.335938 C 173.757812 312.523438 176.5 313.414062 178.050781 315.546875 C 179.597656 317.675781 179.597656 320.5625 178.050781 322.691406 L 154.824219 354.65625 C 153.277344 356.785156 153.277344 359.667969 154.824219 361.800781 L 178.050781 393.765625 C 179.597656 395.894531 179.597656 398.777344 178.050781 400.910156 C 176.5 403.039062 173.757812 403.929688 171.253906 403.117188 L 133.675781 390.90625 C 131.171875 390.09375 128.429688 390.984375 126.882812 393.113281 L 103.660156 425.078125 C 102.109375 427.210938 99.367188 428.101562 96.863281 427.289062 C 94.359375 426.472656 92.664062 424.140625 92.664062 421.507812 L 92.664062 382 C 92.664062 379.363281 90.96875 377.03125 88.464844 376.21875 Z M 651.164062 103.804688 C 653.507812 102.609375 656.359375 103.058594 658.222656 104.921875 C 660.082031 106.785156 660.535156 109.632812 659.339844 111.980469 L 641.402344 147.183594 C 640.207031 149.527344 640.65625 152.378906 642.519531 154.238281 L 670.457031 182.175781 C 672.316406 184.039062 672.769531 186.886719 671.574219 189.234375 C 670.378906 191.582031 667.808594 192.890625 665.207031 192.480469 L 626.183594 186.296875 C 623.585938 185.886719 621.015625 187.195312 619.820312 189.542969 L 601.882812 224.746094 C 600.6875 227.089844 598.117188 228.398438 595.515625 227.988281 C 592.914062 227.578125 590.875 225.535156 590.460938 222.9375 L 584.28125 183.914062 C 583.871094 181.3125 581.832031 179.273438 579.230469 178.859375 L 540.207031 172.679688 C 537.605469 172.269531 535.566406 170.226562 535.15625 167.628906 C 534.742188 165.027344 536.050781 162.457031 538.398438 161.261719 L 573.601562 143.324219 C 575.949219 142.128906 577.257812 139.558594 576.847656 136.957031 L 570.664062 97.933594 C 570.253906 95.335938 571.5625 92.765625 573.90625 91.570312 C 576.253906 90.371094 579.105469 90.824219 580.964844 92.6875 L 608.902344 120.625 C 610.765625 122.488281 613.613281 122.9375 615.960938 121.742188 Z M 758.941406 352.449219 C 761.445312 353.261719 763.140625 355.59375 763.140625 358.226562 C 763.140625 360.859375 761.445312 363.195312 758.941406 364.007812 L 721.367188 376.21875 C 718.863281 377.03125 717.167969 379.363281 717.167969 382 L 717.167969 421.507812 C 717.167969 424.140625 715.472656 426.472656 712.96875 427.289062 C 710.460938 428.101562 707.71875 427.210938 706.171875 425.078125 L 682.949219 393.113281 C 681.402344 390.984375 678.660156 390.09375 676.15625 390.90625 L 638.578125 403.117188 C 636.074219 403.929688 633.332031 403.039062 631.78125 400.910156 C 630.234375 398.777344 630.234375 395.894531 631.78125 393.765625 L 655.003906 361.800781 C 656.554688 359.667969 656.554688 356.785156 655.003906 354.65625 L 631.78125 322.691406 C 630.234375 320.5625 630.234375 317.675781 631.78125 315.546875 C 633.332031 313.414062 636.074219 312.523438 638.578125 313.335938 L 676.15625 325.546875 C 678.660156 326.359375 681.402344 325.46875 682.949219 323.339844 L 706.171875 291.375 C 707.71875 289.246094 710.460938 288.355469 712.96875 289.167969 C 715.472656 289.980469 717.167969 292.316406 717.167969 294.949219 L 717.167969 334.457031 C 717.167969 337.089844 718.863281 339.425781 721.367188 340.238281 Z M 758.941406 352.449219 " fill-opacity="1" fill-rule="evenodd"/></g></svg>