<svg xmlns="http://www.w3.org/2000/svg" xmlns:xlink="http://www.w3.org/1999/xlink" width="1080" zoomAndPan="magnify" viewBox="0 0 810 809.999993" height="1080" preserveAspectRatio="xMidYMid meet" version="1.0"><path fill="#ffffff" d="M 457.15625 97.09375 C 464.757812 97.09375 470.925781 90.941406 470.925781 83.339844 L 470.925781 13.78125 C 470.925781 6.152344 464.757812 0 457.15625 0 C 449.539062 0 443.386719 6.152344 443.386719 13.78125 L 443.386719 83.339844 C 443.386719 90.941406 449.539062 97.09375 457.15625 97.09375 Z M 457.15625 97.09375 " fill-opacity="1" fill-rule="nonzero"/><path fill="#ffffff" d="M 270.816406 129.496094 C 273.507812 133.167969 277.675781 135.140625 281.921875 135.140625 C 284.742188 135.140625 287.605469 134.25 290.0625 132.460938 C 296.1875 127.96875 297.507812 119.34375 293.011719 113.21875 L 251.847656 57.132812 C 247.351562 51.003906 238.742188 49.660156 232.601562 54.164062 C 226.460938 58.660156 225.15625 67.28125 229.648438 73.410156 Z M 270.816406 129.496094 " fill-opacity="1" fill-rule="nonzero"/><path fill="#ffffff" d="M 621.296875 113.21875 C 616.792969 119.34375 618.109375 127.96875 624.25 132.460938 C 626.707031 134.25 629.554688 135.140625 632.378906 135.140625 C 636.609375 135.140625 640.804688 133.179688 643.496094 129.496094 L 684.660156 73.410156 C 689.167969 67.28125 687.835938 58.660156 681.707031 54.164062 C 675.542969 49.644531 666.945312 51.003906 662.464844 57.132812 " fill-opacity="1" fill-rule="nonzero"/><path fill="#ffffff" d="M 280.5625 256.390625 C 280.628906 256.445312 280.691406 256.496094 280.773438 256.574219 L 357.054688 320.980469 C 358.84375 322.484375 360.296875 324.300781 361.875 326.011719 C 363.011719 326.519531 364.164062 326.980469 365.15625 327.800781 C 370.8125 332.570312 378.0625 334.792969 385.472656 334.230469 C 392.917969 333.589844 399.660156 330.128906 404.414062 324.484375 C 409.5625 319.285156 411.796875 313.183594 411.519531 306.441406 C 411.195312 298.355469 407.300781 290.410156 401.109375 285.210938 L 362.449219 252.5625 C 362.410156 252.539062 362.386719 252.539062 362.371094 252.511719 L 306.652344 205.425781 C 294.921875 195.523438 277.296875 197.027344 267.355469 208.796875 C 257.453125 220.527344 258.953125 238.167969 270.699219 248.09375 Z M 280.5625 256.390625 " fill-opacity="1" fill-rule="nonzero"/><path fill="#ffffff" d="M 425.132812 270.65625 C 433.417969 280.300781 438.488281 292.421875 439.023438 305.277344 C 439.636719 319.820312 434.527344 333.25 424.652344 343.074219 C 415.949219 353.488281 402.570312 360.398438 387.78125 361.652344 C 386.1875 361.78125 384.570312 361.859375 382.988281 361.859375 C 381.003906 361.859375 379.054688 361.558594 377.097656 361.351562 C 377.109375 361.585938 377.199219 361.808594 377.214844 362.042969 C 377.839844 376.558594 372.773438 390.015625 362.933594 399.90625 C 352.574219 412.160156 337.472656 418.535156 322.109375 418.691406 C 324.40625 433.925781 320.644531 450.019531 309.984375 462.707031 C 302.261719 471.8125 292.175781 477.640625 281.398438 480.394531 C 284.847656 486.925781 287.03125 494.125 287.65625 501.730469 C 288.898438 516.503906 284.324219 530.851562 274.800781 542.097656 C 265.328125 553.347656 251.964844 560.246094 237.1875 561.488281 C 235.582031 561.617188 233.976562 561.695312 232.394531 561.695312 C 219.355469 561.695312 206.867188 557.148438 196.792969 548.683594 L 153.941406 512.574219 L 6.898438 643.726562 L 158.421875 810 L 360.046875 616.578125 C 363.273438 613.769531 367.636719 612.59375 371.753906 613.496094 C 399.984375 619.113281 423.777344 622.996094 446.128906 621.425781 C 446.363281 621.402344 446.558594 621.375 446.796875 621.375 C 472.179688 619.480469 495.683594 610.503906 521.589844 588.660156 L 660.949219 462.351562 C 660.949219 462.351562 679.566406 445.277344 666.160156 430.148438 C 658.988281 422.035156 650.273438 416.144531 640.648438 413.074219 C 655.304688 392.941406 654.980469 364.589844 638.214844 344.746094 C 631.03125 336.203125 621.613281 330.152344 611.070312 327.1875 C 622.761719 307.488281 621.363281 281.644531 605.777344 263.121094 C 597.167969 252.914062 585.398438 246.332031 572.292969 244.214844 C 578.132812 226.511719 576.589844 204.722656 562.101562 191.042969 C 547.46875 177.257812 524.152344 191.226562 524.152344 191.226562 Z M 425.132812 270.65625 " fill-opacity="1" fill-rule="nonzero"/><path fill="#ffffff" d="M 539.699219 609.394531 C 518.585938 627.226562 498.53125 637.902344 478.476562 643.636719 L 668.003906 809.464844 L 801.613281 643.832031 L 650.496094 509.007812 Z M 539.699219 609.394531 " fill-opacity="1" fill-rule="nonzero"/><path fill="#ffffff" d="M 368.761719 189.644531 C 362.085938 199.625 360.28125 214.675781 370.054688 222.917969 C 370.082031 222.945312 370.09375 222.972656 370.121094 223 L 404.425781 251.960938 L 461.152344 206.472656 L 408.660156 181.976562 C 385.289062 169.863281 372.980469 183.308594 368.761719 189.644531 Z M 368.761719 189.644531 " fill-opacity="1" fill-rule="nonzero"/><path fill="#ffffff" d="M 194.585938 401.785156 L 220.320312 423.5 L 220.335938 423.5 C 220.402344 423.550781 220.414062 423.65625 220.480469 423.707031 L 249.652344 448.308594 C 261.421875 458.160156 279.019531 456.632812 288.925781 444.9375 C 298.800781 433.207031 297.3125 415.570312 285.554688 405.640625 L 230.667969 359.25 C 230.628906 359.222656 230.578125 359.222656 230.527344 359.195312 L 230.460938 359.117188 C 224.816406 354.375 217.566406 352.152344 210.195312 352.742188 C 202.75 353.355469 196.007812 356.832031 191.226562 362.488281 C 181.351562 374.234375 182.851562 391.855469 194.585938 401.785156 Z M 194.585938 401.785156 " fill-opacity="1" fill-rule="nonzero"/><path fill="#ffffff" d="M 223.691406 280.886719 C 218.9375 286.558594 216.652344 293.769531 217.277344 301.253906 C 217.90625 308.703125 221.367188 315.417969 227.011719 320.160156 L 247.992188 337.886719 C 248.058594 337.941406 248.109375 337.941406 248.148438 337.992188 L 303.335938 384.605469 C 315.039062 394.484375 332.730469 393.007812 342.671875 381.261719 C 347.78125 376.089844 350.011719 369.960938 349.714844 363.21875 C 349.359375 355.132812 345.480469 347.214844 339.300781 342.015625 L 263.042969 277.609375 L 263.03125 277.609375 L 262.898438 277.503906 C 251.117188 267.664062 233.597656 269.179688 223.691406 280.886719 Z M 223.691406 280.886719 " fill-opacity="1" fill-rule="nonzero"/><path fill="#ffffff" d="M 166.640625 487.214844 L 214.546875 527.609375 C 220.21875 532.378906 227.335938 534.625 234.875 534.039062 C 242.308594 533.398438 249.011719 529.9375 253.765625 524.316406 C 258.574219 518.621094 260.863281 511.4375 260.234375 503.976562 C 259.605469 496.515625 256.144531 489.789062 250.5 485.019531 L 231.960938 469.40625 C 231.9375 469.382812 231.910156 469.382812 231.882812 469.355469 C 231.871094 469.328125 231.871094 469.328125 231.859375 469.304688 L 202.203125 444.296875 C 190.484375 434.734375 173.105469 436.289062 163.28125 447.917969 C 153.394531 459.636719 154.882812 477.261719 166.640625 487.214844 Z M 166.640625 487.214844 " fill-opacity="1" fill-rule="nonzero"/></svg>