<svg xmlns="http://www.w3.org/2000/svg" xmlns:xlink="http://www.w3.org/1999/xlink" width="1080" zoomAndPan="magnify" viewBox="0 0 810 809.999993" height="1080" preserveAspectRatio="xMidYMid meet" version="1.0"><defs><clipPath id="b4469a34f5"><path d="M 81 3.761719 L 729 3.761719 L 729 806.261719 L 81 806.261719 Z M 81 3.761719 " clip-rule="nonzero"/></clipPath></defs><path fill="#ffffff" d="M 474.589844 245.289062 L 386.714844 333.164062 L 335.414062 281.863281 C 318.976562 265.429688 292.234375 265.425781 275.792969 281.867188 C 259.359375 298.304688 259.359375 325.050781 275.792969 341.488281 L 356.902344 422.597656 C 364.867188 430.554688 375.449219 434.941406 386.714844 434.941406 C 397.976562 434.941406 408.5625 430.554688 416.523438 422.597656 L 534.210938 304.910156 C 550.644531 288.472656 550.644531 261.730469 534.207031 245.289062 C 517.765625 228.851562 491.023438 228.855469 474.589844 245.289062 Z M 515.902344 286.605469 L 398.21875 404.292969 C 395.144531 407.367188 391.058594 409.058594 386.710938 409.058594 C 382.363281 409.058594 378.277344 407.367188 375.203125 404.292969 L 294.097656 323.1875 C 287.75 316.839844 287.75 306.519531 294.09375 300.175781 C 297.265625 297.003906 301.433594 295.417969 305.601562 295.417969 C 309.769531 295.417969 313.933594 297.003906 317.109375 300.171875 L 377.5625 360.628906 C 379.992188 363.054688 383.285156 364.417969 386.714844 364.417969 C 390.148438 364.417969 393.4375 363.054688 395.867188 360.628906 L 492.890625 263.597656 C 499.234375 257.253906 509.554688 257.246094 515.902344 263.597656 C 522.246094 269.9375 522.246094 280.261719 515.902344 286.605469 Z M 515.902344 286.605469 " fill-opacity="1" fill-rule="nonzero"/><path fill="#ffffff" d="M 644.648438 323.585938 C 644.648438 191.441406 537.140625 83.929688 405 83.929688 C 272.855469 83.929688 165.347656 191.441406 165.347656 323.585938 C 165.347656 393.921875 196.082031 460.417969 249.652344 506.015625 C 287.121094 538.003906 332.804688 557.386719 381.726562 562.070312 C 389.363281 562.824219 397.191406 563.210938 404.996094 563.210938 C 412.800781 563.210938 420.632812 562.824219 428.222656 562.078125 C 477.191406 557.390625 522.875 538.007812 560.328125 506.03125 C 613.914062 460.417969 644.648438 393.921875 644.648438 323.585938 Z M 543.535156 486.328125 C 510.132812 514.84375 469.410156 532.128906 425.714844 536.3125 C 412.140625 537.65625 397.902344 537.660156 384.238281 536.308594 C 340.589844 532.132812 299.867188 514.847656 266.449219 486.320312 C 218.652344 445.636719 191.238281 386.324219 191.238281 323.585938 C 191.238281 205.714844 287.132812 109.816406 405.003906 109.816406 C 522.875 109.816406 618.765625 205.714844 618.765625 323.585938 C 618.761719 386.320312 591.351562 445.632812 543.535156 486.328125 Z M 543.535156 486.328125 " fill-opacity="1" fill-rule="nonzero"/><g clip-path="url(#b4469a34f5)"><path fill="#ffffff" d="M 726.769531 699.894531 L 638.40625 542.125 C 694.203125 482.691406 724.828125 405.480469 724.828125 323.585938 C 724.824219 147.234375 581.351562 3.761719 405 3.761719 C 228.648438 3.761719 85.175781 147.234375 85.175781 323.585938 C 85.175781 405.5 115.8125 482.722656 171.59375 542.125 L 83.234375 699.894531 C 81.042969 703.800781 81.03125 708.570312 83.203125 712.492188 C 85.378906 716.410156 89.425781 718.929688 93.90625 719.144531 L 186.714844 723.621094 L 238.839844 800.554688 C 241.253906 804.117188 245.273438 806.234375 249.550781 806.234375 C 249.738281 806.234375 249.921875 806.230469 250.105469 806.226562 C 254.589844 806.035156 258.65625 803.53125 260.847656 799.617188 L 350.910156 638.785156 C 358.628906 640.097656 366.355469 641.136719 373.957031 641.859375 C 384.136719 642.871094 394.578125 643.378906 405.003906 643.378906 C 415.429688 643.378906 425.871094 642.871094 435.996094 641.867188 C 443.65625 641.136719 451.40625 640.097656 459.132812 638.785156 L 549.191406 799.617188 C 551.382812 803.53125 555.453125 806.035156 559.933594 806.226562 C 560.117188 806.230469 560.296875 806.234375 560.484375 806.234375 C 564.765625 806.234375 568.78125 804.117188 571.199219 800.554688 L 623.320312 723.621094 L 716.101562 719.144531 C 720.582031 718.929688 724.628906 716.410156 726.804688 712.492188 C 728.96875 708.570312 728.957031 703.804688 726.769531 699.894531 Z M 248.507812 768.675781 L 204.515625 703.746094 C 202.230469 700.375 198.496094 698.277344 194.425781 698.082031 L 116.039062 694.300781 L 190.734375 560.929688 C 193.011719 562.988281 195.320312 565.03125 197.691406 567.054688 C 234.375 598.390625 277.894531 621.003906 324.429688 633.09375 Z M 433.496094 616.101562 C 414.832031 617.949219 395.226562 617.953125 376.453125 616.09375 C 366.617188 615.15625 356.597656 613.675781 346.6875 611.695312 C 298.03125 601.917969 252.324219 579.671875 214.5 547.363281 C 208.199219 541.992188 202.238281 536.46875 196.753906 530.925781 C 141.492188 475.503906 111.0625 401.871094 111.0625 323.585938 C 111.0625 161.507812 242.921875 29.648438 405 29.648438 C 567.078125 29.648438 698.9375 161.507812 698.9375 323.585938 C 698.9375 401.871094 668.507812 475.503906 613.214844 530.960938 C 607.765625 536.46875 601.804688 541.992188 595.496094 547.371094 C 557.679688 579.671875 511.980469 601.914062 463.359375 611.695312 C 453.453125 613.675781 443.421875 615.15625 433.496094 616.101562 Z M 615.609375 698.082031 C 611.539062 698.277344 607.804688 700.375 605.519531 703.746094 L 561.527344 768.675781 L 485.605469 633.089844 C 532.117188 621 575.625 598.386719 612.304688 567.058594 C 614.675781 565.035156 616.988281 562.984375 619.265625 560.929688 L 693.964844 694.300781 Z M 615.609375 698.082031 " fill-opacity="1" fill-rule="nonzero"/></g></svg>