<svg xmlns="http://www.w3.org/2000/svg" xmlns:xlink="http://www.w3.org/1999/xlink" width="500" zoomAndPan="magnify" viewBox="0 0 375 374.999991" height="500" preserveAspectRatio="xMidYMid meet" version="1.0"><defs><clipPath id="9d62502335"><path d="M 0 186 L 373 186 L 373 374.484375 L 0 374.484375 Z M 0 186 " clip-rule="nonzero"/></clipPath><clipPath id="2bb5b892fd"><path d="M 166 0.234375 L 314 0.234375 L 314 201 L 166 201 Z M 166 0.234375 " clip-rule="nonzero"/></clipPath></defs><g clip-path="url(#9d62502335)"><path fill="#e2e419" d="M 367.957031 189.296875 C 362.886719 185.855469 352.710938 179.027344 285.128906 229.410156 C 284.289062 227.25 282.96875 225.277344 281.191406 223.558594 C 274.78125 217.417969 262.691406 215.027344 245.152344 216.480469 C 232.222656 217.550781 203.835938 216.707031 192.644531 213.398438 C 185.625 211.332031 181.894531 209.6875 178.28125 208.101562 C 173.34375 205.941406 168.695312 203.894531 157.964844 201.597656 C 112.554688 191.878906 78.257812 205.15625 55.820312 241.019531 L 55.726562 240.886719 C 51.039062 235.089844 42.527344 234.191406 36.730469 238.898438 L 5.550781 264.128906 C 2.738281 266.402344 1 269.617188 0.617188 273.214844 C 0.234375 276.808594 1.285156 280.328125 3.5625 283.121094 L 73.726562 369.753906 C 76.382812 373.042969 80.304688 374.746094 84.246094 374.746094 C 87.230469 374.746094 90.234375 373.769531 92.738281 371.742188 L 123.898438 346.511719 C 126.710938 344.238281 128.46875 341.023438 128.832031 337.425781 C 129.195312 334.023438 128.242188 330.714844 126.214844 327.976562 C 153.679688 318.300781 174.800781 321.472656 193.640625 324.34375 C 202.132812 325.644531 210.167969 326.867188 218.238281 326.90625 C 218.335938 326.90625 218.429688 326.90625 218.546875 326.90625 C 285.800781 326.886719 360.667969 243.394531 371.648438 207.796875 C 374.957031 196.816406 371.476562 191.6875 367.957031 189.296875 Z M 84.398438 361.128906 L 14.199219 274.859375 L 44.996094 249.570312 L 114.984375 336.011719 Z M 335.917969 240.121094 C 308.523438 273.84375 261.375 313.171875 218.46875 313.171875 C 218.390625 313.171875 218.296875 313.171875 218.21875 313.171875 C 211.160156 313.152344 203.625 312.003906 195.648438 310.78125 C 175.21875 307.644531 150.007812 303.855469 117.070312 316.710938 L 65.039062 252.460938 C 84.339844 218.527344 113.796875 206.246094 155.058594 215.082031 C 164.429688 217.089844 168.085938 218.699219 172.734375 220.726562 C 176.558594 222.410156 180.882812 224.304688 188.722656 226.617188 C 201.980469 230.539062 232.144531 231.378906 246.261719 230.214844 C 264.949219 228.664062 270.421875 232.355469 271.625 233.523438 C 272.257812 234.132812 272.46875 234.652344 272.429688 235.550781 C 272.277344 239.375 260.875 250.949219 245.039062 257.335938 C 234.324219 261.679688 217.628906 260.109375 201.484375 258.601562 C 185.929688 257.144531 171.242188 255.769531 160.203125 259.308594 C 156.589844 260.472656 154.582031 264.339844 155.746094 267.972656 C 156.914062 271.585938 160.777344 273.597656 164.414062 272.429688 C 172.753906 269.75 186.714844 271.050781 200.21875 272.316406 C 208.808594 273.117188 217.53125 273.941406 225.8125 273.941406 C 234.6875 273.941406 243.066406 273.003906 250.222656 270.113281 C 258.523438 266.75 268.832031 260.628906 276.292969 253.453125 C 336.835938 206.398438 354.890625 201.234375 359.136719 200.757812 C 358.5625 205.613281 352.789062 219.367188 335.917969 240.121094 Z M 335.917969 240.121094 " fill-opacity="1" fill-rule="nonzero"/></g><g clip-path="url(#2bb5b892fd)"><path fill="#e2e419" d="M 204.199219 191.878906 C 208.195312 193.945312 217.628906 198.15625 229.832031 199.835938 C 232.738281 200.449219 235.644531 200.871094 238.496094 200.871094 C 240.484375 200.871094 242.4375 200.679688 244.328125 200.375 C 251.695312 199.914062 259.554688 198.328125 267.589844 194.75 C 298.234375 181.09375 312.40625 159.628906 313.554688 125.105469 C 314.453125 93.351562 295.324219 67.929688 291.519531 66.285156 C 288.996094 65.195312 286.066406 65.769531 284.136719 67.699219 L 283.238281 68.597656 C 278.4375 53.179688 268.621094 33.515625 248.519531 18.730469 C 230.003906 5.113281 210.585938 1.265625 197.5625 0.425781 C 194.214844 0.253906 191.019531 2.320312 189.949219 5.550781 C 188.878906 8.785156 190.121094 12.34375 192.96875 14.179688 C 199.1875 18.234375 210.339844 27.414062 215.121094 43.234375 C 215.425781 44.285156 215.714844 45.320312 215.945312 46.351562 C 210.128906 41.511719 203.816406 39.675781 199.378906 38.988281 C 196.507812 38.546875 193.699219 39.753906 192.050781 42.144531 C 190.40625 44.535156 190.292969 47.597656 191.746094 50.121094 C 194.117188 54.234375 196.472656 61.023438 195.324219 66.628906 C 193.277344 76.519531 188.878906 82.8125 183.292969 90.769531 L 180.308594 95.054688 C 176.003906 101.367188 162.382812 123.976562 168.238281 150.125 C 172.007812 166.996094 184.785156 181.820312 204.199219 191.878906 Z M 229.523438 186.066406 C 223.15625 184.019531 218.183594 180.117188 216.535156 175.851562 C 212.941406 166.535156 216.976562 160.242188 218.296875 158.519531 C 221.242188 154.714844 225.335938 151.234375 229.277344 147.867188 C 235.148438 142.855469 240.714844 138.109375 243.164062 131.988281 C 244.0625 129.734375 244.636719 127.339844 244.882812 124.875 C 251.808594 133.558594 258.007812 145.167969 258.140625 158.960938 C 258.199219 164.375 258.351562 178.738281 249.476562 184.59375 C 247.351562 186.007812 244.675781 186.792969 241.785156 187.195312 C 238.707031 187.289062 235.761719 187.15625 232.96875 186.832031 C 231.820312 186.601562 230.671875 186.449219 229.523438 186.066406 Z M 191.324219 102.589844 L 194.214844 98.4375 C 200.164062 89.945312 205.785156 81.929688 208.386719 69.324219 C 209.230469 65.230469 209.097656 61.214844 208.445312 57.582031 C 212.730469 61.75 214.070312 67.070312 214.414062 70.78125 C 214.757812 74.527344 217.722656 77.398438 221.472656 77.609375 C 225.296875 77.78125 228.453125 75.3125 229.21875 71.660156 C 230.789062 64.121094 231.800781 52.417969 227.878906 39.390625 C 225.164062 30.34375 220.800781 23.054688 216.117188 17.296875 C 223.902344 19.667969 232.335938 23.476562 240.5625 29.519531 C 266.578125 48.667969 272.640625 77.589844 274.015625 89.125 C 275.144531 98.402344 275.28125 109.550781 274.34375 115.671875 C 273.84375 119.039062 275.664062 122.3125 278.78125 123.667969 C 281.898438 125.027344 285.53125 124.089844 287.65625 121.394531 C 289.148438 119.460938 294.253906 112.535156 297.164062 104.175781 C 297.238281 103.949219 297.335938 103.699219 297.410156 103.46875 C 299.210938 109.761719 300.394531 116.9375 300.164062 124.722656 C 299.265625 151.5 289.96875 167.722656 268.777344 179.179688 C 271.492188 170.933594 271.511719 162.652344 271.472656 158.847656 C 271.207031 131.359375 252.421875 111.578125 241.25 102.246094 C 238.4375 99.910156 234.441406 99.796875 231.496094 101.996094 C 228.570312 104.195312 227.554688 108.058594 229.007812 111.40625 C 231.761719 117.71875 232.335938 122.980469 230.710938 127.054688 C 229.488281 130.113281 224.953125 133.980469 220.574219 137.726562 C 216.328125 141.363281 211.488281 145.476562 207.699219 150.371094 C 205.578125 153.105469 199.628906 162.289062 202.4375 175.277344 C 191.078125 167.585938 183.617188 157.851562 181.246094 147.195312 C 176.480469 125.753906 188.820312 106.28125 191.324219 102.589844 Z M 191.324219 102.589844 " fill-opacity="1" fill-rule="nonzero"/></g></svg>