<svg xmlns="http://www.w3.org/2000/svg" xmlns:xlink="http://www.w3.org/1999/xlink" width="500" zoomAndPan="magnify" viewBox="0 0 375 374.999991" height="500" preserveAspectRatio="xMidYMid meet" version="1.0"><defs><clipPath id="feaab2dc56"><path d="M 0 5 L 375 5 L 375 370.890625 L 0 370.890625 Z M 0 5 " clip-rule="nonzero"/></clipPath></defs><g clip-path="url(#feaab2dc56)"><path fill="#e2e419" d="M 255.816406 253.523438 L 203.023438 284.269531 C 201.453125 285.1875 199.863281 285.933594 198.238281 286.515625 C 198.652344 285.539062 199.003906 284.511719 199.292969 283.429688 C 202.179688 272.660156 195.800781 261.417969 184.769531 257.839844 C 184.507812 257.757812 184.246094 257.691406 183.976562 257.644531 C 168.917969 254.929688 154 249.535156 142.015625 245.199219 C 137.824219 243.6875 133.867188 242.253906 130.488281 241.160156 C 116.464844 236.609375 103.914062 242.171875 93.484375 248.207031 L 55.398438 270.257812 L 52.371094 264.914062 C 50.558594 261.707031 47.597656 259.398438 44.035156 258.410156 C 40.46875 257.425781 36.742188 257.878906 33.539062 259.691406 L 18.726562 268.074219 C 12.09375 271.828125 9.753906 280.277344 13.503906 286.910156 L 57.054688 363.855469 C 58.867188 367.058594 61.828125 369.371094 65.390625 370.355469 C 66.625 370.699219 67.875 370.867188 69.117188 370.867188 C 71.46875 370.867188 73.789062 370.261719 75.886719 369.074219 L 90.699219 360.691406 C 97.328125 356.9375 99.671875 348.492188 95.917969 341.859375 L 92.09375 335.101562 L 99.386719 330.890625 L 166.457031 348.863281 C 170.308594 349.894531 174.140625 350.40625 177.910156 350.40625 C 185.535156 350.40625 192.90625 348.304688 199.644531 344.160156 L 295.449219 285.164062 C 304.78125 279.417969 307.769531 264.980469 301.714844 254.875 C 298.792969 249.988281 286.835938 235.457031 255.816406 253.523438 Z M 84.742188 350.167969 L 69.929688 358.550781 C 69.398438 358.851562 68.878906 358.773438 68.621094 358.703125 C 68.359375 358.628906 67.878906 358.429688 67.578125 357.898438 L 24.03125 280.953125 C 23.570312 280.140625 23.867188 279.0625 24.679688 278.601562 L 39.492188 270.21875 C 39.789062 270.050781 40.078125 270 40.324219 270 C 40.519531 270 40.6875 270.035156 40.804688 270.066406 C 41.0625 270.136719 41.546875 270.339844 41.847656 270.871094 L 85.394531 347.816406 C 85.855469 348.628906 85.554688 349.707031 84.742188 350.167969 Z M 289.109375 274.867188 L 193.304688 333.859375 C 186.039062 338.332031 178.058594 339.449219 169.589844 337.179688 L 100.101562 318.558594 C 98.550781 318.144531 96.898438 318.363281 95.511719 319.164062 L 86.136719 324.578125 L 61.351562 280.785156 L 99.542969 258.671875 C 108.074219 253.734375 117.277344 249.585938 126.757812 252.664062 C 129.945312 253.695312 133.632812 255.03125 137.902344 256.574219 C 150.203125 261.019531 165.476562 266.542969 181.382812 269.460938 C 186.15625 271.179688 188.824219 275.78125 187.613281 280.300781 C 186.324219 285.109375 182.726562 287.203125 176.921875 286.546875 C 169.226562 284.960938 161.890625 282.867188 154.125 280.652344 C 150.414062 279.589844 146.574219 278.492188 142.617188 277.433594 C 139.394531 276.570312 136.078125 278.484375 135.214844 281.710938 C 134.347656 284.933594 136.261719 288.25 139.488281 289.117188 C 143.347656 290.148438 147.136719 291.230469 150.804688 292.28125 C 158.886719 294.589844 166.523438 296.769531 174.765625 298.453125 C 174.808594 298.460938 174.964844 298.492188 175.007812 298.5 L 181.578125 299.566406 C 191.71875 301.1875 200.722656 299.605469 209.109375 294.722656 L 261.902344 263.972656 C 276.15625 255.671875 287.4375 254.566406 291.339844 261.089844 C 293.980469 265.492188 292.832031 272.574219 289.109375 274.867188 Z M 43.121094 283.894531 C 43.542969 286.78125 41.542969 289.46875 38.652344 289.890625 C 35.761719 290.3125 33.078125 288.3125 32.65625 285.421875 C 32.234375 282.53125 34.234375 279.847656 37.125 279.425781 C 40.011719 279.003906 42.699219 281.003906 43.121094 283.894531 Z M 124.265625 76.597656 C 126.164062 80.300781 127.210938 82.34375 127.460938 83.757812 C 127.710938 85.171875 127.425781 87.449219 126.90625 91.582031 C 126.765625 92.699219 126.609375 93.945312 126.441406 95.34375 C 125.4375 103.746094 129.992188 111.628906 137.769531 114.960938 C 138.65625 115.34375 139.476562 115.6875 140.238281 116.011719 L 124.585938 149.628906 C 123.636719 151.671875 123.898438 154.070312 125.269531 155.859375 C 126.636719 157.648438 128.886719 158.523438 131.105469 158.136719 L 147.972656 155.191406 L 156.578125 169.992188 C 157.664062 171.863281 159.65625 173.003906 161.804688 173.003906 C 161.894531 173.003906 161.988281 173 162.078125 172.996094 C 164.328125 172.894531 166.335938 171.550781 167.285156 169.507812 L 183.355469 134.988281 C 185.257812 134.4375 186.550781 134.136719 187.5 134.136719 C 188.933594 134.136719 191.128906 134.8125 195.105469 136.042969 C 195.332031 136.109375 195.5625 136.183594 195.796875 136.253906 L 207.226562 162.785156 C 208.117188 164.855469 210.082031 166.257812 212.328125 166.421875 C 212.480469 166.4375 212.628906 166.441406 212.78125 166.441406 C 214.859375 166.441406 216.808594 165.367188 217.917969 163.582031 L 226.945312 149.035156 L 243.71875 152.46875 C 245.925781 152.925781 248.199219 152.109375 249.621094 150.363281 C 251.042969 148.617188 251.375 146.222656 250.484375 144.152344 L 237.792969 114.691406 C 245.222656 111.222656 249.535156 103.535156 248.554688 95.34375 C 248.386719 93.941406 248.230469 92.699219 248.089844 91.582031 C 247.570312 87.449219 247.285156 85.171875 247.535156 83.757812 C 247.785156 82.34375 248.832031 80.300781 250.734375 76.597656 C 251.246094 75.59375 251.820312 74.476562 252.453125 73.21875 C 256.273438 65.667969 254.691406 56.703125 248.519531 50.910156 C 247.492188 49.945312 246.574219 49.09375 245.75 48.328125 C 242.695312 45.492188 241.011719 43.933594 240.292969 42.691406 C 239.578125 41.445312 239.066406 39.207031 238.140625 35.148438 C 237.890625 34.050781 237.609375 32.828125 237.289062 31.457031 C 235.359375 23.214844 228.382812 17.363281 219.933594 16.894531 C 218.527344 16.816406 217.273438 16.753906 216.148438 16.699219 C 211.988281 16.488281 209.699219 16.375 208.347656 15.882812 C 206.996094 15.394531 205.171875 14.007812 201.851562 11.492188 C 200.953125 10.8125 199.953125 10.054688 198.824219 9.210938 C 192.050781 4.140625 182.945312 4.136719 176.167969 9.210938 C 175.042969 10.054688 174.042969 10.8125 173.144531 11.492188 C 169.824219 14.007812 167.996094 15.394531 166.644531 15.886719 C 165.296875 16.375 163.003906 16.492188 158.84375 16.699219 C 157.71875 16.753906 156.46875 16.816406 155.0625 16.894531 C 146.609375 17.363281 139.636719 23.214844 137.707031 31.457031 C 137.382812 32.828125 137.105469 34.050781 136.855469 35.148438 C 135.925781 39.210938 135.417969 41.449219 134.699219 42.691406 C 133.980469 43.933594 132.300781 45.496094 129.246094 48.328125 C 128.417969 49.09375 127.5 49.945312 126.472656 50.910156 C 120.300781 56.703125 118.722656 65.667969 122.539062 73.222656 C 123.179688 74.476562 123.75 75.59375 124.265625 76.597656 Z M 161.214844 153.902344 L 156.316406 145.472656 C 155.042969 143.28125 152.542969 142.121094 150.046875 142.550781 L 140.4375 144.230469 L 150.519531 122.578125 C 151.183594 123.539062 151.953125 124.730469 152.917969 126.222656 C 153.527344 127.171875 154.207031 128.222656 154.980469 129.402344 C 158.164062 134.273438 163.207031 137.265625 168.679688 137.863281 Z M 225.242188 136.34375 C 222.761719 135.832031 220.226562 136.925781 218.894531 139.078125 L 213.75 147.363281 L 209.398438 137.253906 C 213.648438 136.046875 217.445312 133.34375 220.019531 129.402344 C 220.792969 128.222656 221.472656 127.171875 222.082031 126.226562 C 224.34375 122.726562 225.585938 120.796875 226.6875 119.875 C 226.726562 119.839844 226.777344 119.808594 226.816406 119.777344 L 234.796875 138.300781 Z M 134.753906 59.726562 C 135.761719 58.78125 136.664062 57.945312 137.472656 57.191406 C 145.566406 49.683594 146.191406 48.601562 148.648438 37.839844 C 148.894531 36.761719 149.167969 35.558594 149.484375 34.214844 C 150.1875 31.199219 152.644531 29.140625 155.734375 28.96875 C 157.117188 28.890625 158.34375 28.828125 159.449219 28.773438 C 170.472656 28.226562 171.648438 27.796875 180.449219 21.132812 C 181.332031 20.464844 182.3125 19.71875 183.417969 18.890625 C 185.898438 17.035156 189.101562 17.035156 191.578125 18.890625 C 192.6875 19.71875 193.667969 20.464844 194.550781 21.132812 C 203.347656 27.796875 204.527344 28.226562 215.550781 28.773438 C 216.65625 28.828125 217.882812 28.890625 219.265625 28.96875 C 222.355469 29.140625 224.808594 31.199219 225.515625 34.214844 C 225.832031 35.558594 226.105469 36.761719 226.351562 37.839844 C 228.808594 48.601562 229.433594 49.683594 237.527344 57.191406 C 238.335938 57.945312 239.238281 58.78125 240.246094 59.726562 C 242.503906 61.847656 243.0625 65 241.664062 67.765625 C 241.039062 69 240.480469 70.09375 239.972656 71.078125 C 234.9375 80.902344 234.71875 82.136719 236.09375 93.085938 C 236.230469 94.183594 236.382812 95.40625 236.546875 96.777344 C 236.914062 99.855469 235.3125 102.628906 232.46875 103.847656 C 231.195312 104.390625 230.0625 104.871094 229.042969 105.300781 C 218.871094 109.585938 217.910156 110.390625 211.921875 119.664062 C 211.324219 120.59375 210.65625 121.628906 209.898438 122.785156 C 208.203125 125.375 205.191406 126.472656 202.230469 125.574219 C 200.90625 125.175781 199.730469 124.8125 198.675781 124.488281 C 193.398438 122.859375 190.449219 122.046875 187.5 122.046875 C 184.550781 122.046875 181.597656 122.859375 176.324219 124.488281 C 175.269531 124.8125 174.09375 125.175781 172.769531 125.574219 C 169.804688 126.46875 166.792969 125.375 165.101562 122.785156 C 164.34375 121.628906 163.675781 120.59375 163.074219 119.664062 C 157.085938 110.390625 156.128906 109.585938 145.957031 105.300781 C 144.9375 104.871094 143.800781 104.390625 142.53125 103.847656 C 139.683594 102.628906 138.082031 99.855469 138.449219 96.78125 C 138.613281 95.40625 138.765625 94.183594 138.90625 93.089844 C 140.277344 82.136719 140.0625 80.902344 135.023438 71.078125 C 134.519531 70.097656 133.957031 69 133.335938 67.765625 C 131.9375 65 132.496094 61.847656 134.753906 59.726562 Z M 187.5 113.71875 C 210.675781 113.71875 229.527344 94.863281 229.527344 71.691406 C 229.527344 48.515625 210.675781 29.660156 187.5 29.660156 C 164.324219 29.660156 145.472656 48.515625 145.472656 71.691406 C 145.472656 94.863281 164.324219 113.71875 187.5 113.71875 Z M 187.5 41.753906 C 204.007812 41.753906 217.4375 55.183594 217.4375 71.691406 C 217.4375 88.195312 204.007812 101.625 187.5 101.625 C 170.992188 101.625 157.5625 88.195312 157.5625 71.691406 C 157.5625 55.183594 170.992188 41.753906 187.5 41.753906 Z M 176.175781 86.839844 L 166.308594 76.972656 C 163.945312 74.613281 163.945312 70.78125 166.308594 68.421875 C 168.667969 66.0625 172.496094 66.0625 174.859375 68.421875 L 180.652344 74.214844 L 200.351562 56.339844 C 202.824219 54.09375 206.648438 54.277344 208.894531 56.753906 C 211.136719 59.226562 210.953125 63.050781 208.480469 65.292969 L 184.511719 87.042969 C 183.359375 88.089844 181.902344 88.609375 180.453125 88.609375 C 178.902344 88.609375 177.351562 88.019531 176.175781 86.839844 Z M 320.839844 65.332031 C 291.007812 65.332031 266.734375 89.601562 266.734375 119.433594 C 266.734375 149.269531 291.007812 173.539062 320.839844 173.539062 C 350.671875 173.539062 374.941406 149.269531 374.941406 119.433594 C 374.941406 89.601562 350.671875 65.332031 320.839844 65.332031 Z M 320.839844 161.445312 C 297.675781 161.445312 278.828125 142.601562 278.828125 119.433594 C 278.828125 96.269531 297.675781 77.425781 320.839844 77.425781 C 344.003906 77.425781 362.847656 96.269531 362.847656 119.433594 C 362.851562 142.601562 344.003906 161.445312 320.839844 161.445312 Z M 342.175781 129.957031 C 342.726562 134.511719 341.492188 138.6875 338.605469 142.027344 C 335.878906 145.175781 331.695312 147.441406 326.886719 148.476562 L 326.886719 149.84375 C 326.886719 153.183594 324.179688 155.890625 320.839844 155.890625 C 317.5 155.890625 314.792969 153.183594 314.792969 149.84375 L 314.792969 148.371094 C 307.179688 146.5 301.382812 141.152344 299.554688 133.824219 C 298.75 130.585938 300.71875 127.300781 303.960938 126.496094 C 307.199219 125.6875 310.480469 127.660156 311.289062 130.898438 C 312.449219 135.554688 317.402344 137.113281 321.324219 137.003906 C 324.710938 136.921875 328.054688 135.734375 329.457031 134.117188 C 329.90625 133.59375 330.34375 132.863281 330.167969 131.414062 C 330 130.039062 329.609375 126.824219 319.902344 125.230469 C 304.027344 122.621094 301.234375 113.582031 300.984375 108.425781 C 300.578125 100.058594 306.085938 93.019531 314.792969 90.609375 L 314.792969 89.023438 C 314.792969 85.683594 317.5 82.976562 320.839844 82.976562 C 324.179688 82.976562 326.886719 85.683594 326.886719 89.023438 L 326.886719 90.554688 C 332.5 92.050781 337.75 95.792969 340.5625 102.496094 C 341.855469 105.574219 340.40625 109.117188 337.328125 110.410156 C 334.25 111.703125 330.707031 110.257812 329.414062 107.175781 C 327.140625 101.765625 321.503906 101.460938 318.535156 102.136719 C 317.199219 102.4375 312.867188 103.742188 313.066406 107.839844 C 313.117188 108.945312 313.261719 111.882812 321.863281 113.296875 C 334.246094 115.328125 341.078125 120.933594 342.175781 129.957031 Z M 54.160156 173.539062 C 83.992188 173.539062 108.265625 149.269531 108.265625 119.433594 C 108.265625 89.601562 83.992188 65.332031 54.160156 65.332031 C 24.328125 65.332031 0.0585938 89.601562 0.0585938 119.433594 C 0.0585938 149.269531 24.328125 173.539062 54.160156 173.539062 Z M 54.160156 77.425781 C 77.324219 77.425781 96.171875 96.269531 96.171875 119.433594 C 96.171875 142.601562 77.324219 161.445312 54.160156 161.445312 C 30.996094 161.445312 12.148438 142.601562 12.148438 119.433594 C 12.148438 96.269531 30.996094 77.425781 54.160156 77.425781 Z M 30.316406 140.289062 C 29.503906 143.277344 30.601562 146.386719 33.105469 148.207031 C 35.609375 150.03125 38.90625 150.113281 41.503906 148.414062 L 54.160156 140.125 L 66.824219 148.414062 C 68.066406 149.230469 69.46875 149.632812 70.871094 149.632812 C 72.394531 149.632812 73.914062 149.15625 75.21875 148.207031 C 77.722656 146.386719 78.816406 143.277344 78.003906 140.289062 L 74.035156 125.6875 L 85.828125 116.210938 C 88.242188 114.269531 89.1875 111.109375 88.226562 108.164062 C 87.269531 105.214844 84.652344 103.214844 81.558594 103.0625 L 66.445312 102.328125 L 61.074219 88.179688 C 59.976562 85.289062 57.261719 83.417969 54.164062 83.417969 C 51.0625 83.417969 48.351562 85.289062 47.25 88.179688 L 41.882812 102.328125 L 26.769531 103.0625 C 23.671875 103.214844 21.054688 105.214844 20.097656 108.164062 C 19.140625 111.109375 20.082031 114.269531 22.496094 116.210938 L 34.289062 125.6875 Z M 45.539062 114.253906 C 48.476562 114.113281 51.046875 112.246094 52.09375 109.496094 L 54.160156 104.046875 L 56.230469 109.496094 C 57.273438 112.246094 59.847656 114.113281 62.78125 114.253906 L 68.601562 114.539062 L 64.0625 118.1875 C 61.769531 120.03125 60.785156 123.054688 61.558594 125.890625 L 63.085938 131.515625 L 58.210938 128.324219 C 56.980469 127.519531 55.570312 127.117188 54.160156 127.117188 C 52.75 127.117188 51.34375 127.519531 50.113281 128.324219 L 45.234375 131.515625 L 46.765625 125.890625 C 47.535156 123.050781 46.550781 120.027344 44.261719 118.191406 L 39.71875 114.539062 Z M 124.03125 216.257812 C 126.394531 218.621094 126.394531 222.449219 124.03125 224.808594 C 122.851562 225.992188 121.304688 226.582031 119.757812 226.582031 C 118.207031 226.582031 116.660156 225.992188 115.480469 224.808594 L 86.777344 196.105469 C 84.414062 193.742188 84.414062 189.914062 86.777344 187.554688 C 89.136719 185.195312 92.964844 185.195312 95.328125 187.554688 Z M 187.5 179.839844 C 190.839844 179.839844 193.546875 182.546875 193.546875 185.886719 L 193.546875 226.480469 C 193.546875 229.820312 190.839844 232.527344 187.5 232.527344 C 184.160156 232.527344 181.453125 229.820312 181.453125 226.480469 L 181.453125 185.886719 C 181.453125 182.546875 184.160156 179.839844 187.5 179.839844 Z M 250.96875 216.257812 L 279.671875 187.554688 C 282.035156 185.195312 285.863281 185.195312 288.222656 187.554688 C 290.585938 189.917969 290.585938 193.746094 288.222656 196.105469 L 259.519531 224.808594 C 258.339844 225.992188 256.792969 226.582031 255.246094 226.582031 C 253.695312 226.582031 252.148438 225.992188 250.96875 224.808594 C 248.609375 222.449219 248.609375 218.621094 250.96875 216.257812 Z M 250.96875 216.257812 " fill-opacity="1" fill-rule="nonzero"/></g></svg>