<svg xmlns="http://www.w3.org/2000/svg" xmlns:xlink="http://www.w3.org/1999/xlink" width="500" zoomAndPan="magnify" viewBox="0 0 375 374.999991" height="500" preserveAspectRatio="xMidYMid meet" version="1.0"><defs><clipPath id="058ea13897"><path d="M 0 0.703125 L 374 0.703125 L 374 374.203125 L 0 374.203125 Z M 0 0.703125 " clip-rule="nonzero"/></clipPath></defs><g clip-path="url(#058ea13897)"><path fill="#e2e419" d="M 370.078125 217.359375 C 365.972656 209.488281 359.023438 203.667969 350.5 200.988281 C 341.976562 198.308594 332.953125 199.089844 325.078125 203.191406 L 234.476562 250.414062 C 234.714844 249.027344 234.871094 247.617188 234.933594 246.183594 C 235.320312 237.3125 232.207031 228.804688 226.164062 222.21875 C 220.125 215.632812 211.914062 211.796875 203.042969 211.417969 L 123.820312 207.992188 C 118.046875 207.746094 112.980469 208.867188 107.867188 211.535156 L 54.957031 239.109375 L 49.066406 227.8125 C 47.601562 225 45.117188 222.914062 42.078125 221.960938 C 39.035156 221.003906 35.8125 221.289062 33 222.753906 L 6.789062 236.414062 C 3.976562 237.878906 1.890625 240.363281 0.9375 243.402344 C -0.0234375 246.4375 0.261719 249.667969 1.726562 252.480469 L 61.828125 367.816406 C 63.292969 370.628906 65.78125 372.714844 68.816406 373.667969 C 70.003906 374.039062 71.21875 374.226562 72.421875 374.226562 C 74.308594 374.226562 76.175781 373.777344 77.898438 372.878906 L 104.109375 359.21875 C 106.921875 357.753906 109.003906 355.265625 109.957031 352.230469 C 110.917969 349.191406 110.632812 345.960938 109.167969 343.148438 L 103.28125 331.851562 L 108.773438 328.984375 C 111.019531 327.816406 113.507812 328.023438 117.046875 328.785156 L 175.675781 341.367188 C 180.488281 342.398438 185.695312 343.351562 191.078125 343.351562 C 196.664062 343.351562 202.445312 342.328125 208.195312 339.335938 L 355.902344 262.359375 C 363.773438 258.253906 369.59375 251.304688 372.273438 242.78125 C 374.96875 234.265625 374.1875 225.238281 370.078125 217.359375 Z M 101.09375 349.441406 C 100.886719 350.113281 100.429688 350.65625 99.816406 350.972656 L 73.605469 364.632812 C 72.992188 364.949219 72.289062 365.011719 71.613281 364.804688 C 70.941406 364.59375 70.398438 364.136719 70.078125 363.523438 L 9.980469 248.191406 C 9.320312 246.933594 9.832031 245.316406 11.085938 244.65625 L 37.296875 230.996094 C 37.671875 230.804688 38.074219 230.703125 38.492188 230.703125 C 38.761719 230.703125 39.027344 230.742188 39.296875 230.828125 C 39.972656 231.035156 40.515625 231.492188 40.832031 232.105469 L 100.933594 347.441406 C 101.25 348.058594 101.3125 348.765625 101.09375 349.441406 Z M 363.417969 239.992188 C 361.480469 246.144531 357.289062 251.15625 351.617188 254.117188 L 203.910156 331.09375 C 196.183594 335.121094 188.128906 334.53125 177.636719 332.285156 L 119.007812 319.703125 C 114.40625 318.710938 109.453125 318.160156 104.480469 320.75 L 98.988281 323.617188 L 59.25 247.359375 L 112.160156 219.785156 C 115.816406 217.878906 119.296875 217.113281 123.417969 217.28125 L 202.640625 220.707031 C 209.03125 220.988281 214.949219 223.753906 219.304688 228.511719 C 223.667969 233.257812 225.914062 239.394531 225.636719 245.789062 C 225.355469 252.179688 222.589844 258.097656 217.832031 262.453125 C 213.074219 266.816406 206.933594 269.054688 200.554688 268.785156 L 147.242188 266.484375 C 144.683594 266.382812 142.507812 268.363281 142.398438 270.929688 C 142.289062 273.496094 144.273438 275.664062 146.847656 275.773438 L 200.160156 278.074219 C 200.648438 278.097656 201.136719 278.105469 201.625 278.105469 C 209.960938 278.105469 217.902344 275.011719 224.125 269.304688 C 226.007812 267.574219 227.65625 265.660156 229.074219 263.617188 L 229.113281 263.683594 L 329.371094 211.441406 C 335.042969 208.480469 341.558594 207.921875 347.703125 209.859375 C 353.855469 211.796875 358.867188 215.988281 361.828125 221.660156 C 364.789062 227.332031 365.355469 233.839844 363.417969 239.992188 Z M 218.382812 75.710938 C 239.046875 75.710938 255.851562 58.90625 255.851562 38.242188 C 255.851562 17.578125 239.046875 0.773438 218.382812 0.773438 C 197.71875 0.773438 180.914062 17.585938 180.914062 38.242188 C 180.914062 58.898438 197.71875 75.710938 218.382812 75.710938 Z M 218.382812 10.074219 C 233.917969 10.074219 246.554688 22.710938 246.554688 38.242188 C 246.554688 53.777344 233.917969 66.414062 218.382812 66.414062 C 202.847656 66.414062 190.210938 53.777344 190.210938 38.242188 C 190.210938 22.710938 202.847656 10.074219 218.382812 10.074219 Z M 146.535156 165.621094 C 146.535156 176.15625 155.105469 184.726562 165.644531 184.726562 L 271.132812 184.726562 C 281.667969 184.726562 290.238281 176.15625 290.238281 165.621094 L 290.238281 162.15625 C 290.238281 122.542969 258.007812 90.308594 218.390625 90.308594 C 178.777344 90.308594 146.542969 122.542969 146.542969 162.15625 L 146.542969 165.621094 Z M 155.835938 162.15625 C 155.835938 127.664062 183.898438 99.609375 218.382812 99.609375 C 252.878906 99.609375 280.933594 127.671875 280.933594 162.15625 L 280.933594 165.621094 C 280.933594 171.027344 276.53125 175.429688 271.125 175.429688 L 165.636719 175.429688 C 160.226562 175.429688 155.828125 171.027344 155.828125 165.621094 L 155.828125 162.15625 Z M 94.332031 115.125 L 110.300781 122.070312 L 117.242188 138.039062 C 117.976562 139.734375 119.652344 140.835938 121.503906 140.835938 C 123.355469 140.835938 125.027344 139.734375 125.765625 138.039062 L 132.707031 122.070312 L 148.675781 115.125 C 150.371094 114.390625 151.472656 112.71875 151.472656 110.863281 C 151.472656 109.011719 150.371094 107.339844 148.675781 106.605469 L 132.707031 99.660156 L 125.765625 83.691406 C 125.027344 81.996094 123.355469 80.894531 121.503906 80.894531 C 119.652344 80.894531 117.976562 81.996094 117.242188 83.691406 L 110.300781 99.660156 L 94.332031 106.605469 C 92.632812 107.339844 91.535156 109.011719 91.535156 110.863281 C 91.535156 112.71875 92.632812 114.382812 94.332031 115.125 Z M 115.683594 107.449219 C 116.761719 106.976562 117.621094 106.117188 118.09375 105.039062 L 121.503906 97.199219 L 124.914062 105.039062 C 125.386719 106.117188 126.246094 106.976562 127.320312 107.449219 L 135.164062 110.855469 L 127.320312 114.265625 C 126.246094 114.738281 125.386719 115.597656 124.914062 116.675781 L 121.503906 124.515625 L 118.09375 116.675781 C 117.621094 115.597656 116.761719 114.738281 115.683594 114.265625 L 107.84375 110.855469 Z M 275.019531 53.539062 L 290.988281 60.480469 L 297.929688 76.449219 C 298.667969 78.144531 300.339844 79.246094 302.191406 79.246094 C 304.042969 79.246094 305.71875 78.144531 306.453125 76.449219 L 313.394531 60.480469 L 329.363281 53.539062 C 331.0625 52.800781 332.160156 51.128906 332.160156 49.277344 C 332.160156 47.425781 331.0625 45.75 329.363281 45.015625 L 313.394531 38.074219 L 306.453125 22.105469 C 305.71875 20.40625 304.042969 19.308594 302.191406 19.308594 C 300.339844 19.308594 298.667969 20.40625 297.929688 22.105469 L 290.988281 38.074219 L 275.019531 45.015625 C 273.324219 45.75 272.222656 47.425781 272.222656 49.277344 C 272.222656 51.128906 273.324219 52.800781 275.019531 53.539062 Z M 296.375 45.867188 C 297.449219 45.394531 298.3125 44.535156 298.785156 43.457031 L 302.191406 35.617188 L 305.601562 43.457031 C 306.074219 44.535156 306.933594 45.394531 308.011719 45.867188 L 315.851562 49.277344 L 308.003906 52.6875 C 306.925781 53.160156 306.066406 54.019531 305.59375 55.09375 L 302.183594 62.9375 L 298.777344 55.09375 C 298.304688 54.019531 297.441406 53.160156 296.367188 52.6875 L 288.523438 49.277344 Z M 296.375 45.867188 " fill-opacity="1" fill-rule="nonzero"/></g></svg>