<svg xmlns="http://www.w3.org/2000/svg" xmlns:xlink="http://www.w3.org/1999/xlink" width="500" zoomAndPan="magnify" viewBox="0 0 375 374.999991" height="500" preserveAspectRatio="xMidYMid meet" version="1.0"><defs><clipPath id="1da34ac456"><path d="M 17.96875 0 L 356.96875 0 L 356.96875 375 L 17.96875 375 Z M 17.96875 0 " clip-rule="nonzero"/></clipPath></defs><g clip-path="url(#1da34ac456)"><path fill="#e2e419" d="M 294.347656 285.941406 C 293.027344 285.328125 291.660156 284.855469 290.242188 284.523438 C 288.828125 284.191406 287.390625 284.007812 285.9375 283.96875 C 284.480469 283.933594 283.039062 284.046875 281.605469 284.308594 C 280.175781 284.570312 278.785156 284.976562 277.4375 285.523438 L 224.917969 306.878906 C 225.011719 306 225.058594 305.121094 225.054688 304.242188 C 225.054688 303.554688 225.019531 302.867188 224.953125 302.179688 C 224.886719 301.496094 224.785156 300.816406 224.648438 300.140625 C 224.515625 299.464844 224.347656 298.800781 224.144531 298.140625 C 223.945312 297.480469 223.714844 296.835938 223.449219 296.199219 C 223.1875 295.5625 222.890625 294.941406 222.566406 294.335938 C 222.242188 293.726562 221.886719 293.140625 221.507812 292.566406 C 221.125 291.996094 220.714844 291.441406 220.277344 290.910156 C 219.839844 290.378906 219.378906 289.867188 218.890625 289.382812 C 218.40625 288.894531 217.894531 288.433594 217.363281 287.996094 C 216.832031 287.558594 216.277344 287.152344 215.707031 286.769531 C 215.132812 286.386719 214.546875 286.03125 213.9375 285.707031 C 213.332031 285.382812 212.710938 285.089844 212.074219 284.824219 C 211.4375 284.558594 210.792969 284.328125 210.132812 284.128906 C 209.472656 283.929688 208.808594 283.761719 208.132812 283.625 C 207.457031 283.492188 206.777344 283.390625 206.09375 283.320312 C 205.40625 283.253906 204.71875 283.21875 204.03125 283.21875 L 169.910156 283.21875 L 134.394531 261.738281 C 131.960938 260.253906 129.367188 259.136719 126.617188 258.382812 C 123.867188 257.632812 121.066406 257.277344 118.214844 257.316406 L 81.292969 257.316406 L 81.292969 250.949219 C 81.292969 249.90625 81.191406 248.875 80.988281 247.855469 C 80.785156 246.835938 80.480469 245.84375 80.082031 244.882812 C 79.683594 243.921875 79.195312 243.007812 78.617188 242.140625 C 78.039062 241.277344 77.382812 240.476562 76.644531 239.738281 C 75.910156 239.003906 75.109375 238.347656 74.246094 237.769531 C 73.378906 237.1875 72.464844 236.699219 71.503906 236.300781 C 70.542969 235.902344 69.550781 235.601562 68.53125 235.398438 C 67.511719 235.195312 66.480469 235.089844 65.4375 235.089844 L 23.121094 235.089844 C 22.785156 235.089844 22.449219 235.121094 22.121094 235.1875 C 21.789062 235.253906 21.46875 235.351562 21.160156 235.480469 C 20.847656 235.609375 20.550781 235.765625 20.273438 235.953125 C 19.992188 236.140625 19.734375 236.351562 19.496094 236.589844 C 19.257812 236.828125 19.046875 237.085938 18.859375 237.367188 C 18.671875 237.648438 18.515625 237.941406 18.386719 238.253906 C 18.257812 238.5625 18.160156 238.886719 18.09375 239.214844 C 18.027344 239.546875 17.996094 239.878906 17.996094 240.214844 L 17.996094 369.804688 C 17.996094 370.140625 18.027344 370.476562 18.09375 370.804688 C 18.160156 371.136719 18.257812 371.457031 18.386719 371.765625 C 18.515625 372.078125 18.671875 372.371094 18.859375 372.652344 C 19.046875 372.933594 19.257812 373.191406 19.496094 373.429688 C 19.734375 373.667969 19.992188 373.878906 20.273438 374.066406 C 20.550781 374.253906 20.847656 374.410156 21.160156 374.539062 C 21.46875 374.667969 21.789062 374.765625 22.121094 374.832031 C 22.449219 374.898438 22.785156 374.929688 23.121094 374.929688 L 65.4375 374.929688 C 66.480469 374.929688 67.507812 374.828125 68.527344 374.625 C 69.546875 374.421875 70.539062 374.121094 71.5 373.722656 C 72.460938 373.324219 73.375 372.835938 74.238281 372.261719 C 75.105469 371.683594 75.90625 371.027344 76.640625 370.292969 C 77.375 369.554688 78.035156 368.757812 78.613281 367.894531 C 79.191406 367.027344 79.679688 366.117188 80.078125 365.15625 C 80.480469 364.195312 80.78125 363.203125 80.984375 362.183594 C 81.191406 361.164062 81.292969 360.136719 81.292969 359.09375 L 81.292969 352.808594 L 87.148438 352.808594 C 96.613281 352.808594 97.726562 353.246094 106.367188 356.667969 L 108.03125 357.328125 C 110.378906 358.257812 112.714844 359.199219 115.03125 360.132812 C 131.628906 366.832031 147.582031 373.273438 164.3125 373.273438 C 171.855469 373.285156 179.160156 371.957031 186.214844 369.292969 L 296.117188 328.238281 C 301.898438 326.066406 305.867188 318.628906 306.230469 309.296875 C 306.554688 300.84375 303.609375 290.269531 294.347656 285.941406 Z M 71.042969 359.09375 C 71.039062 359.460938 71.003906 359.824219 70.929688 360.183594 C 70.859375 360.542969 70.75 360.894531 70.609375 361.230469 C 70.46875 361.570312 70.296875 361.890625 70.089844 362.199219 C 69.886719 362.503906 69.652344 362.785156 69.394531 363.042969 C 69.132812 363.300781 68.851562 363.535156 68.546875 363.738281 C 68.238281 363.941406 67.917969 364.113281 67.578125 364.253906 C 67.238281 364.390625 66.890625 364.5 66.527344 364.570312 C 66.167969 364.640625 65.804688 364.675781 65.4375 364.675781 L 28.246094 364.675781 L 28.246094 245.339844 L 65.4375 245.339844 C 65.804688 245.34375 66.167969 245.382812 66.527344 245.460938 C 66.882812 245.535156 67.234375 245.644531 67.570312 245.785156 C 67.910156 245.929688 68.230469 246.101562 68.535156 246.304688 C 68.835938 246.511719 69.121094 246.742188 69.378906 247.003906 C 69.636719 247.261719 69.871094 247.542969 70.074219 247.847656 C 70.277344 248.152344 70.453125 248.472656 70.59375 248.808594 C 70.738281 249.148438 70.847656 249.496094 70.921875 249.855469 C 70.996094 250.214844 71.035156 250.578125 71.042969 250.941406 Z M 295.984375 308.894531 C 295.761719 314.597656 293.636719 318.214844 292.519531 318.632812 L 182.621094 359.683594 C 161.183594 367.703125 141.574219 359.789062 118.867188 350.621094 C 116.523438 349.675781 114.167969 348.726562 111.792969 347.785156 L 110.140625 347.132812 C 100.589844 343.351562 98.183594 342.550781 87.144531 342.550781 L 81.292969 342.550781 L 81.292969 267.566406 L 118.253906 267.566406 C 120.160156 267.523438 122.035156 267.75 123.875 268.25 C 125.71875 268.746094 127.449219 269.5 129.070312 270.5 L 165.824219 292.730469 C 166.640625 293.222656 167.523438 293.46875 168.476562 293.46875 L 204.03125 293.46875 C 204.738281 293.46875 205.4375 293.539062 206.128906 293.675781 C 206.824219 293.816406 207.496094 294.019531 208.148438 294.292969 C 208.804688 294.5625 209.421875 294.894531 210.011719 295.289062 C 210.597656 295.679688 211.144531 296.125 211.644531 296.625 C 212.144531 297.125 212.589844 297.671875 212.984375 298.257812 C 213.375 298.847656 213.707031 299.464844 213.976562 300.121094 C 214.25 300.773438 214.453125 301.445312 214.59375 302.140625 C 214.730469 302.832031 214.800781 303.53125 214.800781 304.238281 C 214.800781 307.753906 213.621094 310.804688 211.5625 312.613281 C 211.542969 312.628906 211.53125 312.648438 211.511719 312.667969 C 211.472656 312.699219 211.433594 312.730469 211.394531 312.765625 C 209.671875 314.425781 207.746094 315.011719 204.03125 315.011719 L 149.285156 315.011719 C 148.949219 315.011719 148.613281 315.042969 148.285156 315.109375 C 147.953125 315.175781 147.632812 315.273438 147.324219 315.402344 C 147.011719 315.53125 146.714844 315.6875 146.4375 315.875 C 146.15625 316.0625 145.898438 316.273438 145.660156 316.511719 C 145.421875 316.75 145.210938 317.007812 145.023438 317.289062 C 144.835938 317.570312 144.679688 317.863281 144.550781 318.175781 C 144.421875 318.484375 144.324219 318.804688 144.257812 319.136719 C 144.191406 319.464844 144.160156 319.800781 144.160156 320.136719 C 144.160156 320.472656 144.191406 320.804688 144.257812 321.136719 C 144.324219 321.464844 144.421875 321.785156 144.550781 322.097656 C 144.679688 322.410156 144.835938 322.703125 145.023438 322.984375 C 145.210938 323.261719 145.421875 323.523438 145.660156 323.761719 C 145.898438 324 146.15625 324.210938 146.4375 324.398438 C 146.714844 324.585938 147.011719 324.742188 147.324219 324.871094 C 147.632812 325 147.953125 325.097656 148.285156 325.164062 C 148.613281 325.226562 148.949219 325.261719 149.285156 325.261719 L 204.03125 325.261719 C 208.058594 325.261719 213.183594 324.738281 217.707031 320.875 L 281.304688 295.019531 C 282.707031 294.445312 284.164062 294.179688 285.675781 294.214844 C 287.1875 294.25 288.632812 294.589844 290.003906 295.226562 C 294.722656 297.433594 296.175781 303.96875 295.984375 308.894531 Z M 58.902344 258.832031 L 58.902344 284.335938 C 58.902344 284.675781 58.867188 285.007812 58.800781 285.335938 C 58.738281 285.667969 58.640625 285.988281 58.511719 286.300781 C 58.382812 286.609375 58.222656 286.90625 58.039062 287.183594 C 57.851562 287.464844 57.636719 287.722656 57.398438 287.960938 C 57.160156 288.199219 56.902344 288.414062 56.625 288.597656 C 56.34375 288.785156 56.046875 288.945312 55.738281 289.074219 C 55.425781 289.203125 55.105469 289.296875 54.777344 289.363281 C 54.445312 289.429688 54.113281 289.460938 53.777344 289.460938 C 53.441406 289.460938 53.105469 289.429688 52.777344 289.363281 C 52.445312 289.296875 52.125 289.203125 51.816406 289.074219 C 51.503906 288.945312 51.207031 288.785156 50.929688 288.597656 C 50.648438 288.414062 50.390625 288.199219 50.152344 287.960938 C 49.914062 287.722656 49.703125 287.464844 49.515625 287.183594 C 49.328125 286.90625 49.167969 286.609375 49.042969 286.300781 C 48.914062 285.988281 48.816406 285.667969 48.75 285.335938 C 48.683594 285.007812 48.652344 284.675781 48.652344 284.335938 L 48.652344 258.832031 C 48.652344 258.496094 48.683594 258.160156 48.75 257.832031 C 48.816406 257.5 48.914062 257.179688 49.042969 256.871094 C 49.167969 256.558594 49.328125 256.261719 49.515625 255.984375 C 49.703125 255.703125 49.914062 255.445312 50.152344 255.207031 C 50.390625 254.96875 50.648438 254.757812 50.929688 254.570312 C 51.207031 254.382812 51.503906 254.226562 51.816406 254.097656 C 52.125 253.96875 52.445312 253.871094 52.777344 253.804688 C 53.105469 253.738281 53.441406 253.707031 53.777344 253.707031 C 54.113281 253.707031 54.445312 253.738281 54.777344 253.804688 C 55.105469 253.871094 55.425781 253.96875 55.738281 254.097656 C 56.046875 254.226562 56.34375 254.382812 56.625 254.570312 C 56.902344 254.757812 57.160156 254.96875 57.398438 255.207031 C 57.636719 255.445312 57.851562 255.703125 58.039062 255.984375 C 58.222656 256.261719 58.382812 256.558594 58.511719 256.871094 C 58.640625 257.179688 58.738281 257.5 58.800781 257.832031 C 58.867188 258.160156 58.902344 258.496094 58.902344 258.832031 Z M 356.417969 156.011719 L 316.925781 74.015625 C 316.777344 73.714844 316.605469 73.425781 316.402344 73.160156 C 316.199219 72.890625 315.972656 72.644531 315.722656 72.417969 C 315.472656 72.195312 315.199219 71.996094 314.910156 71.828125 C 314.621094 71.65625 314.316406 71.515625 314 71.402344 C 313.683594 71.292969 313.359375 71.210938 313.023438 71.164062 C 312.691406 71.117188 312.355469 71.105469 312.019531 71.121094 C 311.683594 71.140625 311.355469 71.191406 311.027344 71.277344 C 310.703125 71.359375 310.386719 71.476562 310.085938 71.621094 L 293.988281 79.351562 C 293.507812 78.699219 293 78.0625 292.464844 77.453125 C 291.925781 76.839844 291.367188 76.253906 290.777344 75.691406 C 290.191406 75.125 289.582031 74.589844 288.949219 74.078125 C 288.316406 73.570312 287.660156 73.085938 286.984375 72.632812 C 286.308594 72.179688 285.617188 71.757812 284.902344 71.363281 C 284.191406 70.972656 283.464844 70.609375 282.722656 70.28125 C 281.976562 69.949219 281.222656 69.652344 280.453125 69.386719 C 279.683594 69.125 278.902344 68.890625 278.113281 68.695312 C 277.324219 68.5 276.527344 68.335938 275.726562 68.207031 C 274.921875 68.082031 274.113281 67.988281 273.304688 67.929688 C 272.492188 67.871094 271.679688 67.851562 270.867188 67.863281 C 270.054688 67.875 269.242188 67.921875 268.433594 68.007812 C 267.625 68.089844 266.820312 68.207031 266.019531 68.359375 C 265.222656 68.511719 264.429688 68.699219 263.648438 68.921875 C 262.867188 69.140625 262.09375 69.398438 261.332031 69.683594 C 260.574219 69.972656 259.828125 70.292969 259.09375 70.648438 C 258.359375 71 257.644531 71.382812 256.945312 71.800781 C 256.246094 72.214844 255.566406 72.660156 254.90625 73.132812 C 254.242188 73.609375 253.605469 74.109375 252.988281 74.640625 C 252.371094 75.167969 251.777344 75.722656 251.207031 76.304688 C 250.636719 76.886719 250.09375 77.492188 249.578125 78.117188 C 249.0625 78.746094 248.574219 79.398438 248.113281 80.066406 C 247.652344 80.738281 247.222656 81.425781 246.820312 82.136719 C 246.421875 82.84375 246.050781 83.566406 245.714844 84.304688 C 245.375 85.046875 245.070312 85.800781 244.796875 86.566406 C 244.527344 87.332031 244.285156 88.109375 244.082031 88.894531 C 243.875 89.683594 243.707031 90.476562 243.570312 91.28125 C 243.433594 92.082031 243.332031 92.886719 243.265625 93.699219 C 243.199219 94.507812 243.167969 95.320312 243.171875 96.132812 C 243.175781 96.949219 243.214844 97.757812 243.289062 98.570312 C 243.367188 99.378906 243.476562 100.183594 243.617188 100.984375 C 243.761719 101.785156 243.941406 102.578125 244.15625 103.363281 L 228.0625 111.113281 C 227.757812 111.261719 227.472656 111.433594 227.203125 111.636719 C 226.933594 111.839844 226.6875 112.066406 226.464844 112.316406 C 226.238281 112.566406 226.042969 112.839844 225.871094 113.128906 C 225.699219 113.417969 225.558594 113.722656 225.449219 114.039062 C 225.335938 114.359375 225.257812 114.683594 225.210938 115.015625 C 225.164062 115.351562 225.148438 115.6875 225.167969 116.023438 C 225.1875 116.359375 225.238281 116.6875 225.324219 117.015625 C 225.40625 117.339844 225.523438 117.65625 225.667969 117.957031 L 235.445312 138.234375 C 235.589844 138.539062 235.765625 138.824219 235.96875 139.09375 C 236.167969 139.363281 236.398438 139.609375 236.648438 139.832031 C 236.898438 140.058594 237.167969 140.253906 237.457031 140.425781 C 237.75 140.597656 238.050781 140.738281 238.371094 140.847656 C 238.6875 140.960938 239.011719 141.039062 239.34375 141.085938 C 239.679688 141.132812 240.011719 141.148438 240.347656 141.128906 C 240.683594 141.109375 241.015625 141.058594 241.339844 140.972656 C 241.667969 140.890625 241.980469 140.773438 242.285156 140.628906 C 242.8125 140.375 243.351562 140.148438 243.902344 139.945312 C 244.449219 139.746094 245.007812 139.570312 245.574219 139.425781 C 246.140625 139.277344 246.714844 139.160156 247.292969 139.070312 C 247.871094 138.980469 248.453125 138.917969 249.039062 138.886719 C 249.621094 138.851562 250.207031 138.847656 250.792969 138.871094 C 251.378906 138.898438 251.960938 138.949219 252.539062 139.03125 C 253.117188 139.113281 253.691406 139.222656 254.261719 139.359375 C 254.832031 139.5 255.390625 139.664062 255.945312 139.859375 C 256.496094 140.050781 257.039062 140.269531 257.570312 140.515625 C 258.101562 140.765625 258.617188 141.035156 259.125 141.332031 C 259.628906 141.628906 260.117188 141.953125 260.589844 142.296875 C 261.0625 142.640625 261.515625 143.011719 261.953125 143.398438 C 262.390625 143.789062 262.804688 144.199219 263.203125 144.632812 C 263.597656 145.0625 263.972656 145.511719 264.324219 145.980469 C 264.675781 146.445312 265.007812 146.929688 265.3125 147.429688 C 265.617188 147.929688 265.894531 148.445312 266.148438 148.972656 C 266.402344 149.5 266.628906 150.039062 266.832031 150.585938 C 267.035156 151.136719 267.207031 151.695312 267.351562 152.261719 C 267.5 152.828125 267.617188 153.402344 267.707031 153.980469 C 267.796875 154.558594 267.859375 155.140625 267.894531 155.726562 C 267.925781 156.308594 267.929688 156.894531 267.90625 157.480469 C 267.882812 158.0625 267.828125 158.644531 267.746094 159.226562 C 267.664062 159.804688 267.554688 160.378906 267.417969 160.949219 C 267.277344 161.519531 267.113281 162.078125 266.921875 162.632812 C 266.726562 163.183594 266.507812 163.726562 266.261719 164.257812 C 266.015625 164.789062 265.742188 165.304688 265.445312 165.808594 C 265.148438 166.316406 264.828125 166.804688 264.480469 167.277344 C 264.136719 167.75 263.769531 168.203125 263.378906 168.640625 C 262.988281 169.078125 262.578125 169.492188 262.148438 169.890625 C 261.714844 170.285156 261.265625 170.660156 260.800781 171.011719 C 260.332031 171.363281 259.847656 171.691406 259.347656 171.996094 C 258.847656 172.300781 258.332031 172.582031 257.804688 172.835938 C 257.503906 172.980469 257.214844 173.15625 256.949219 173.359375 C 256.679688 173.558594 256.429688 173.785156 256.207031 174.039062 C 255.980469 174.289062 255.785156 174.558594 255.613281 174.847656 C 255.441406 175.140625 255.300781 175.441406 255.1875 175.761719 C 255.078125 176.078125 255 176.40625 254.953125 176.738281 C 254.90625 177.070312 254.890625 177.40625 254.910156 177.742188 C 254.929688 178.078125 254.980469 178.410156 255.0625 178.734375 C 255.148438 179.0625 255.261719 179.375 255.410156 179.679688 L 265.183594 199.976562 C 265.332031 200.28125 265.503906 200.566406 265.707031 200.835938 C 265.910156 201.105469 266.136719 201.351562 266.386719 201.574219 C 266.636719 201.800781 266.910156 202 267.199219 202.167969 C 267.488281 202.339844 267.792969 202.480469 268.109375 202.59375 C 268.429688 202.703125 268.753906 202.78125 269.085938 202.828125 C 269.421875 202.875 269.753906 202.890625 270.089844 202.871094 C 270.425781 202.851562 270.757812 202.800781 271.085938 202.71875 C 271.410156 202.632812 271.726562 202.519531 272.027344 202.371094 L 354.027344 162.855469 C 354.332031 162.710938 354.617188 162.535156 354.886719 162.332031 C 355.15625 162.128906 355.402344 161.902344 355.625 161.652344 C 355.851562 161.402344 356.046875 161.128906 356.21875 160.839844 C 356.390625 160.550781 356.53125 160.246094 356.640625 159.929688 C 356.753906 159.613281 356.832031 159.285156 356.878906 158.953125 C 356.925781 158.621094 356.9375 158.285156 356.917969 157.949219 C 356.902344 157.613281 356.847656 157.28125 356.765625 156.957031 C 356.679688 156.628906 356.566406 156.316406 356.417969 156.011719 Z M 272.195312 190.90625 L 266.667969 179.433594 C 267.324219 178.953125 267.957031 178.441406 268.570312 177.90625 C 269.183594 177.371094 269.769531 176.808594 270.332031 176.222656 C 270.894531 175.636719 271.433594 175.023438 271.941406 174.390625 C 272.453125 173.757812 272.933594 173.101562 273.386719 172.425781 C 273.84375 171.75 274.265625 171.058594 274.660156 170.347656 C 275.050781 169.632812 275.414062 168.90625 275.742188 168.164062 C 276.074219 167.417969 276.371094 166.664062 276.636719 165.894531 C 276.902344 165.125 277.132812 164.34375 277.328125 163.554688 C 277.523438 162.765625 277.6875 161.96875 277.816406 161.164062 C 277.941406 160.363281 278.035156 159.554688 278.09375 158.742188 C 278.152344 157.929688 278.175781 157.117188 278.160156 156.304688 C 278.148438 155.492188 278.101562 154.679688 278.019531 153.871094 C 277.933594 153.0625 277.816406 152.257812 277.664062 151.457031 C 277.511719 150.660156 277.324219 149.867188 277.101562 149.085938 C 276.882812 148.304688 276.628906 147.53125 276.339844 146.769531 C 276.050781 146.007812 275.730469 145.261719 275.375 144.53125 C 275.023438 143.796875 274.640625 143.082031 274.222656 142.378906 C 273.808594 141.679688 273.363281 141 272.890625 140.339844 C 272.414062 139.679688 271.914062 139.039062 271.382812 138.421875 C 270.855469 137.804688 270.296875 137.210938 269.71875 136.640625 C 269.136719 136.074219 268.53125 135.527344 267.902344 135.011719 C 267.273438 134.496094 266.625 134.007812 265.953125 133.546875 C 265.285156 133.085938 264.59375 132.65625 263.886719 132.253906 C 263.179688 131.851562 262.453125 131.484375 261.714844 131.144531 C 260.976562 130.808594 260.222656 130.503906 259.453125 130.230469 C 258.6875 129.957031 257.910156 129.71875 257.125 129.511719 C 256.335938 129.308594 255.542969 129.136719 254.742188 129 C 253.9375 128.863281 253.132812 128.761719 252.320312 128.695312 C 251.511719 128.628906 250.699219 128.601562 249.882812 128.605469 C 249.070312 128.609375 248.257812 128.648438 247.449219 128.722656 C 246.636719 128.796875 245.832031 128.90625 245.03125 129.050781 C 244.230469 129.195312 243.4375 129.375 242.652344 129.585938 L 237.128906 118.125 L 252.804688 110.574219 C 253.109375 110.429688 253.394531 110.253906 253.664062 110.054688 C 253.933594 109.851562 254.179688 109.625 254.40625 109.371094 C 254.628906 109.121094 254.828125 108.851562 255 108.5625 C 255.167969 108.269531 255.3125 107.964844 255.421875 107.648438 C 255.53125 107.332031 255.613281 107.003906 255.660156 106.671875 C 255.707031 106.335938 255.71875 106.003906 255.699219 105.667969 C 255.679688 105.332031 255.628906 105 255.542969 104.671875 C 255.460938 104.347656 255.34375 104.03125 255.199219 103.730469 C 254.945312 103.203125 254.71875 102.664062 254.515625 102.113281 C 254.316406 101.566406 254.140625 101.007812 253.996094 100.441406 C 253.847656 99.875 253.730469 99.300781 253.640625 98.722656 C 253.550781 98.144531 253.488281 97.5625 253.453125 96.980469 C 253.421875 96.394531 253.417969 95.8125 253.441406 95.226562 C 253.464844 94.640625 253.519531 94.058594 253.601562 93.480469 C 253.683594 92.902344 253.792969 92.328125 253.929688 91.757812 C 254.070312 91.1875 254.234375 90.628906 254.425781 90.078125 C 254.621094 89.523438 254.839844 88.980469 255.085938 88.453125 C 255.332031 87.921875 255.605469 87.402344 255.902344 86.898438 C 256.199219 86.394531 256.519531 85.90625 256.863281 85.433594 C 257.210938 84.960938 257.578125 84.507812 257.96875 84.070312 C 258.355469 83.632812 258.765625 83.21875 259.199219 82.820312 C 259.628906 82.425781 260.078125 82.050781 260.546875 81.699219 C 261.011719 81.347656 261.496094 81.019531 261.996094 80.714844 C 262.496094 80.410156 263.007812 80.132812 263.535156 79.878906 C 264.0625 79.625 264.601562 79.394531 265.152344 79.195312 C 265.699219 78.992188 266.257812 78.820312 266.824219 78.671875 C 267.390625 78.527344 267.964844 78.410156 268.542969 78.320312 C 269.121094 78.226562 269.703125 78.167969 270.285156 78.132812 C 270.871094 78.101562 271.453125 78.097656 272.039062 78.121094 C 272.625 78.144531 273.207031 78.199219 273.785156 78.28125 C 274.363281 78.363281 274.9375 78.472656 275.507812 78.609375 C 276.074219 78.746094 276.636719 78.914062 277.1875 79.105469 C 277.742188 79.300781 278.28125 79.519531 278.8125 79.765625 C 279.34375 80.011719 279.859375 80.28125 280.367188 80.582031 C 280.871094 80.878906 281.359375 81.199219 281.832031 81.542969 C 282.304688 81.890625 282.757812 82.257812 283.195312 82.644531 C 283.628906 83.035156 284.046875 83.445312 284.441406 83.875 C 284.839844 84.308594 285.210938 84.757812 285.566406 85.222656 C 285.917969 85.691406 286.246094 86.175781 286.550781 86.675781 C 286.855469 87.175781 287.132812 87.6875 287.386719 88.214844 C 287.535156 88.519531 287.707031 88.804688 287.910156 89.074219 C 288.113281 89.34375 288.339844 89.589844 288.589844 89.8125 C 288.839844 90.039062 289.109375 90.234375 289.398438 90.40625 C 289.691406 90.578125 289.992188 90.71875 290.3125 90.832031 C 290.628906 90.941406 290.953125 91.023438 291.285156 91.070312 C 291.621094 91.117188 291.953125 91.128906 292.292969 91.113281 C 292.628906 91.09375 292.957031 91.042969 293.285156 90.957031 C 293.609375 90.875 293.925781 90.757812 294.226562 90.613281 L 309.910156 83.078125 L 344.957031 155.84375 Z M 108.46875 201.917969 L 172.847656 266.296875 C 173.085938 266.535156 173.34375 266.746094 173.625 266.933594 C 173.902344 267.121094 174.199219 267.277344 174.507812 267.40625 C 174.820312 267.535156 175.140625 267.632812 175.472656 267.699219 C 175.800781 267.765625 176.132812 267.796875 176.472656 267.796875 C 176.808594 267.796875 177.140625 267.765625 177.472656 267.699219 C 177.800781 267.632812 178.121094 267.535156 178.433594 267.40625 C 178.742188 267.277344 179.039062 267.121094 179.320312 266.933594 C 179.597656 266.746094 179.855469 266.535156 180.09375 266.296875 L 244.453125 201.917969 C 244.6875 201.679688 244.902344 201.417969 245.089844 201.140625 C 245.277344 200.859375 245.433594 200.566406 245.5625 200.253906 C 245.691406 199.941406 245.789062 199.621094 245.855469 199.292969 C 245.917969 198.960938 245.953125 198.628906 245.953125 198.292969 C 245.953125 197.957031 245.917969 197.621094 245.855469 197.292969 C 245.789062 196.960938 245.691406 196.640625 245.5625 196.332031 C 245.433594 196.019531 245.277344 195.726562 245.089844 195.445312 C 244.902344 195.164062 244.6875 194.90625 244.453125 194.667969 L 231.832031 182.050781 C 232.554688 181 233.203125 179.902344 233.773438 178.761719 C 234.347656 177.625 234.839844 176.453125 235.253906 175.246094 C 235.667969 174.039062 235.996094 172.808594 236.242188 171.558594 C 236.488281 170.308594 236.652344 169.042969 236.726562 167.769531 C 236.800781 166.5 236.789062 165.226562 236.691406 163.953125 C 236.589844 162.683594 236.40625 161.421875 236.136719 160.175781 C 235.867188 158.929688 235.515625 157.707031 235.078125 156.507812 C 234.644531 155.3125 234.128906 154.148438 233.535156 153.019531 C 232.941406 151.890625 232.273438 150.808594 231.53125 149.769531 C 230.789062 148.730469 229.984375 147.75 229.109375 146.820312 C 228.234375 145.894531 227.296875 145.027344 226.304688 144.226562 C 225.3125 143.425781 224.273438 142.695312 223.179688 142.039062 C 222.089844 141.378906 220.957031 140.796875 219.785156 140.289062 C 218.613281 139.785156 217.414062 139.363281 216.1875 139.019531 C 214.957031 138.675781 213.710938 138.417969 212.449219 138.246094 C 211.183594 138.074219 209.914062 137.988281 208.640625 137.988281 L 208.621094 137.988281 C 205.78125 137.980469 203.003906 138.398438 200.289062 139.242188 C 197.574219 140.085938 195.050781 141.3125 192.710938 142.929688 L 183.71875 133.9375 L 196.011719 121.640625 C 196.25 121.402344 196.460938 121.144531 196.648438 120.863281 C 196.835938 120.585938 196.996094 120.289062 197.125 119.980469 C 197.253906 119.667969 197.347656 119.347656 197.414062 119.015625 C 197.480469 118.6875 197.511719 118.355469 197.511719 118.015625 C 197.511719 117.679688 197.480469 117.347656 197.414062 117.019531 C 197.347656 116.6875 197.253906 116.367188 197.125 116.054688 C 196.996094 115.746094 196.835938 115.449219 196.648438 115.171875 C 196.460938 114.890625 196.25 114.632812 196.011719 114.394531 C 195.597656 113.980469 195.207031 113.546875 194.835938 113.09375 C 194.464844 112.640625 194.113281 112.171875 193.789062 111.683594 C 193.464844 111.199219 193.164062 110.695312 192.886719 110.179688 C 192.613281 109.664062 192.363281 109.136719 192.136719 108.59375 C 191.914062 108.054688 191.71875 107.503906 191.546875 106.945312 C 191.378906 106.382812 191.234375 105.816406 191.121094 105.242188 C 191.007812 104.667969 190.921875 104.089844 190.863281 103.507812 C 190.804688 102.925781 190.777344 102.339844 190.777344 101.757812 C 190.777344 101.171875 190.808594 100.585938 190.863281 100.003906 C 190.921875 99.421875 191.007812 98.84375 191.121094 98.269531 C 191.234375 97.695312 191.378906 97.128906 191.546875 96.570312 C 191.71875 96.007812 191.914062 95.457031 192.136719 94.917969 C 192.363281 94.375 192.613281 93.847656 192.886719 93.332031 C 193.164062 92.816406 193.464844 92.3125 193.789062 91.828125 C 194.113281 91.339844 194.464844 90.871094 194.835938 90.417969 C 195.207031 89.964844 195.597656 89.53125 196.011719 89.121094 C 196.425781 88.707031 196.859375 88.3125 197.3125 87.941406 C 197.765625 87.570312 198.234375 87.222656 198.722656 86.898438 C 199.207031 86.570312 199.707031 86.269531 200.226562 85.996094 C 200.742188 85.71875 201.269531 85.46875 201.8125 85.246094 C 202.351562 85.019531 202.902344 84.824219 203.460938 84.65625 C 204.023438 84.484375 204.589844 84.34375 205.164062 84.226562 C 205.738281 84.113281 206.316406 84.027344 206.898438 83.972656 C 207.480469 83.914062 208.066406 83.886719 208.648438 83.886719 C 209.234375 83.886719 209.820312 83.914062 210.402344 83.972656 C 210.984375 84.027344 211.5625 84.113281 212.136719 84.226562 C 212.710938 84.34375 213.277344 84.484375 213.835938 84.65625 C 214.398438 84.824219 214.949219 85.019531 215.488281 85.246094 C 216.03125 85.46875 216.558594 85.71875 217.074219 85.996094 C 217.589844 86.269531 218.09375 86.570312 218.578125 86.898438 C 219.066406 87.222656 219.535156 87.570312 219.988281 87.941406 C 220.441406 88.3125 220.871094 88.707031 221.285156 89.121094 C 221.523438 89.359375 221.785156 89.570312 222.0625 89.757812 C 222.34375 89.945312 222.636719 90.101562 222.949219 90.230469 C 223.261719 90.359375 223.582031 90.457031 223.910156 90.523438 C 224.242188 90.589844 224.574219 90.621094 224.910156 90.621094 C 225.246094 90.621094 225.582031 90.589844 225.910156 90.523438 C 226.242188 90.457031 226.5625 90.359375 226.871094 90.230469 C 227.183594 90.101562 227.480469 89.945312 227.757812 89.757812 C 228.039062 89.570312 228.296875 89.359375 228.535156 89.121094 L 244.453125 73.199219 C 244.691406 72.964844 244.902344 72.703125 245.089844 72.425781 C 245.277344 72.144531 245.4375 71.847656 245.566406 71.539062 C 245.695312 71.226562 245.789062 70.90625 245.855469 70.578125 C 245.921875 70.246094 245.953125 69.914062 245.953125 69.578125 C 245.953125 69.242188 245.921875 68.90625 245.855469 68.578125 C 245.789062 68.246094 245.695312 67.925781 245.566406 67.617188 C 245.4375 67.304688 245.277344 67.007812 245.089844 66.730469 C 244.902344 66.449219 244.691406 66.191406 244.453125 65.953125 L 180.097656 1.574219 C 179.617188 1.09375 179.0625 0.722656 178.433594 0.460938 C 177.808594 0.199219 177.152344 0.0703125 176.472656 0.0703125 C 175.792969 0.0703125 175.140625 0.199219 174.511719 0.460938 C 173.882812 0.71875 173.328125 1.089844 172.847656 1.570312 L 44.113281 130.304688 C 43.875 130.542969 43.664062 130.800781 43.476562 131.082031 C 43.289062 131.363281 43.128906 131.65625 43.003906 131.96875 C 42.875 132.277344 42.777344 132.597656 42.710938 132.929688 C 42.644531 133.257812 42.613281 133.59375 42.613281 133.929688 C 42.613281 134.265625 42.644531 134.597656 42.710938 134.929688 C 42.777344 135.257812 42.875 135.578125 43.003906 135.890625 C 43.128906 136.203125 43.289062 136.496094 43.476562 136.777344 C 43.664062 137.058594 43.875 137.316406 44.113281 137.554688 Z M 192.390625 154.980469 C 193.070312 154.976562 193.726562 154.847656 194.351562 154.585938 C 194.980469 154.324219 195.535156 153.953125 196.015625 153.472656 C 197.683594 151.792969 199.613281 150.5 201.796875 149.589844 C 203.984375 148.683594 206.261719 148.234375 208.628906 148.238281 L 208.640625 148.238281 C 209.519531 148.238281 210.394531 148.300781 211.265625 148.429688 C 212.132812 148.558594 212.988281 148.75 213.832031 149.003906 C 214.671875 149.261719 215.488281 149.574219 216.285156 149.949219 C 217.078125 150.324219 217.84375 150.757812 218.574219 151.246094 C 219.304688 151.734375 219.996094 152.273438 220.648438 152.863281 C 221.300781 153.453125 221.902344 154.085938 222.460938 154.765625 C 223.019531 155.445312 223.523438 156.164062 223.976562 156.917969 C 224.429688 157.671875 224.824219 158.453125 225.160156 159.265625 C 225.496094 160.078125 225.773438 160.910156 225.984375 161.761719 C 226.199219 162.613281 226.347656 163.476562 226.4375 164.351562 C 226.523438 165.226562 226.542969 166.105469 226.5 166.980469 C 226.457031 167.859375 226.351562 168.730469 226.179688 169.59375 C 226.007812 170.453125 225.773438 171.300781 225.476562 172.128906 C 225.183594 172.953125 224.828125 173.757812 224.414062 174.53125 C 224 175.308594 223.53125 176.046875 223.007812 176.753906 C 222.480469 177.460938 221.910156 178.125 221.289062 178.746094 C 221.050781 178.984375 220.835938 179.242188 220.648438 179.523438 C 220.460938 179.800781 220.304688 180.097656 220.175781 180.40625 C 220.046875 180.71875 219.949219 181.039062 219.882812 181.371094 C 219.816406 181.699219 219.78125 182.035156 219.78125 182.371094 C 219.78125 182.707031 219.816406 183.042969 219.878906 183.371094 C 219.945312 183.703125 220.042969 184.023438 220.171875 184.335938 C 220.300781 184.644531 220.457031 184.941406 220.644531 185.222656 C 220.832031 185.5 221.046875 185.761719 221.285156 186 L 233.578125 198.292969 L 176.46875 255.421875 L 119.34375 198.292969 L 128.339844 189.296875 C 130.679688 190.914062 133.210938 192.144531 135.929688 192.988281 C 138.648438 193.828125 141.433594 194.246094 144.277344 194.238281 L 144.292969 194.238281 C 145.570312 194.238281 146.839844 194.152344 148.101562 193.976562 C 149.363281 193.804688 150.609375 193.542969 151.835938 193.203125 C 153.0625 192.859375 154.261719 192.433594 155.433594 191.929688 C 156.601562 191.421875 157.734375 190.839844 158.824219 190.179688 C 159.914062 189.519531 160.957031 188.789062 161.945312 187.988281 C 162.9375 187.1875 163.871094 186.324219 164.746094 185.394531 C 165.617188 184.46875 166.425781 183.484375 167.167969 182.445312 C 167.90625 181.410156 168.574219 180.324219 169.167969 179.199219 C 169.757812 178.070312 170.273438 176.90625 170.707031 175.707031 C 171.144531 174.511719 171.496094 173.289062 171.765625 172.042969 C 172.03125 170.796875 172.214844 169.539062 172.3125 168.265625 C 172.414062 166.996094 172.421875 165.722656 172.347656 164.453125 C 172.273438 163.179688 172.113281 161.917969 171.867188 160.667969 C 171.621094 159.417969 171.289062 158.1875 170.875 156.984375 C 170.464844 155.777344 169.96875 154.605469 169.398438 153.464844 C 168.824219 152.328125 168.175781 151.230469 167.457031 150.179688 L 176.46875 141.179688 L 188.765625 153.476562 C 189.246094 153.957031 189.800781 154.328125 190.425781 154.589844 C 191.054688 154.847656 191.710938 154.980469 192.390625 154.980469 Z M 176.472656 12.449219 L 233.578125 69.574219 L 224.582031 78.570312 C 222.238281 76.957031 219.707031 75.726562 216.988281 74.882812 C 214.269531 74.039062 211.488281 73.621094 208.640625 73.628906 L 208.625 73.628906 C 207.347656 73.628906 206.082031 73.71875 204.816406 73.890625 C 203.554688 74.066406 202.308594 74.324219 201.082031 74.667969 C 199.855469 75.011719 198.65625 75.433594 197.484375 75.941406 C 196.316406 76.445312 195.1875 77.03125 194.09375 77.6875 C 193.003906 78.347656 191.964844 79.078125 190.972656 79.878906 C 189.980469 80.683594 189.046875 81.546875 188.171875 82.472656 C 187.300781 83.402344 186.492188 84.386719 185.753906 85.421875 C 185.011719 86.460938 184.34375 87.542969 183.753906 88.671875 C 183.160156 89.800781 182.644531 90.964844 182.210938 92.160156 C 181.777344 93.359375 181.421875 94.582031 181.15625 95.828125 C 180.886719 97.074219 180.703125 98.332031 180.605469 99.605469 C 180.507812 100.875 180.496094 102.144531 180.570312 103.417969 C 180.644531 104.691406 180.808594 105.953125 181.054688 107.203125 C 181.300781 108.453125 181.628906 109.683594 182.042969 110.886719 C 182.457031 112.09375 182.949219 113.265625 183.523438 114.40625 C 184.097656 115.542969 184.742188 116.636719 185.464844 117.6875 L 176.46875 126.6875 L 164.152344 114.386719 C 163.671875 113.90625 163.117188 113.539062 162.492188 113.277344 C 161.863281 113.019531 161.210938 112.890625 160.53125 112.890625 L 160.527344 112.890625 C 159.847656 112.890625 159.191406 113.019531 158.566406 113.28125 C 157.9375 113.542969 157.382812 113.914062 156.902344 114.394531 C 155.234375 116.074219 153.308594 117.367188 151.121094 118.277344 C 148.933594 119.183594 146.65625 119.632812 144.289062 119.628906 L 144.277344 119.628906 C 143.398438 119.628906 142.523438 119.566406 141.65625 119.4375 C 140.785156 119.308594 139.929688 119.117188 139.089844 118.863281 C 138.246094 118.605469 137.429688 118.292969 136.632812 117.917969 C 135.839844 117.542969 135.078125 117.109375 134.34375 116.621094 C 133.613281 116.132812 132.921875 115.59375 132.269531 115.003906 C 131.621094 114.414062 131.015625 113.78125 130.457031 113.101562 C 129.898438 112.421875 129.394531 111.703125 128.941406 110.949219 C 128.488281 110.195312 128.09375 109.414062 127.757812 108.601562 C 127.421875 107.789062 127.148438 106.957031 126.933594 106.105469 C 126.71875 105.253906 126.570312 104.386719 126.484375 103.515625 C 126.394531 102.640625 126.375 101.761719 126.417969 100.882812 C 126.460938 100.007812 126.566406 99.136719 126.738281 98.273438 C 126.910156 97.414062 127.144531 96.566406 127.441406 95.738281 C 127.738281 94.910156 128.09375 94.109375 128.507812 93.335938 C 128.921875 92.558594 129.390625 91.820312 129.914062 91.113281 C 130.4375 90.40625 131.007812 89.742188 131.632812 89.121094 C 131.871094 88.882812 132.082031 88.625 132.269531 88.34375 C 132.457031 88.066406 132.617188 87.769531 132.746094 87.457031 C 132.875 87.148438 132.972656 86.828125 133.039062 86.496094 C 133.105469 86.167969 133.136719 85.832031 133.136719 85.496094 C 133.136719 85.160156 133.105469 84.824219 133.039062 84.496094 C 132.972656 84.164062 132.875 83.84375 132.746094 83.53125 C 132.617188 83.222656 132.460938 82.925781 132.273438 82.644531 C 132.085938 82.367188 131.875 82.105469 131.636719 81.867188 L 119.34375 69.578125 Z M 112.09375 76.824219 L 121.085938 85.820312 C 120.363281 86.871094 119.71875 87.964844 119.144531 89.105469 C 118.570312 90.246094 118.078125 91.417969 117.664062 92.625 C 117.253906 93.832031 116.921875 95.058594 116.675781 96.3125 C 116.429688 97.5625 116.269531 98.824219 116.195312 100.097656 C 116.121094 101.371094 116.132812 102.640625 116.230469 103.914062 C 116.328125 105.183594 116.511719 106.445312 116.78125 107.691406 C 117.050781 108.9375 117.40625 110.160156 117.839844 111.359375 C 118.277344 112.558594 118.792969 113.71875 119.386719 114.847656 C 119.980469 115.976562 120.648438 117.058594 121.390625 118.097656 C 122.128906 119.136719 122.9375 120.117188 123.8125 121.046875 C 124.6875 121.972656 125.621094 122.839844 126.613281 123.640625 C 127.605469 124.441406 128.648438 125.171875 129.738281 125.828125 C 130.832031 126.488281 131.964844 127.070312 133.132812 127.578125 C 134.304688 128.082031 135.503906 128.503906 136.734375 128.847656 C 137.960938 129.191406 139.207031 129.449219 140.472656 129.621094 C 141.734375 129.792969 143.003906 129.878906 144.277344 129.878906 L 144.296875 129.878906 C 147.136719 129.886719 149.917969 129.46875 152.628906 128.625 C 155.34375 127.78125 157.871094 126.550781 160.210938 124.9375 L 169.214844 133.933594 L 156.90625 146.222656 C 156.671875 146.460938 156.457031 146.71875 156.269531 147 C 156.082031 147.28125 155.925781 147.574219 155.796875 147.886719 C 155.667969 148.195312 155.570312 148.515625 155.503906 148.847656 C 155.441406 149.175781 155.40625 149.511719 155.40625 149.847656 C 155.40625 150.183594 155.441406 150.515625 155.503906 150.847656 C 155.570312 151.175781 155.667969 151.496094 155.796875 151.808594 C 155.925781 152.121094 156.082031 152.414062 156.269531 152.695312 C 156.457031 152.972656 156.671875 153.234375 156.90625 153.472656 C 157.53125 154.09375 158.101562 154.753906 158.625 155.460938 C 159.148438 156.167969 159.617188 156.90625 160.03125 157.683594 C 160.445312 158.457031 160.800781 159.257812 161.097656 160.085938 C 161.394531 160.910156 161.628906 161.757812 161.800781 162.617188 C 161.972656 163.480469 162.078125 164.347656 162.121094 165.226562 C 162.164062 166.105469 162.144531 166.980469 162.058594 167.855469 C 161.972656 168.730469 161.824219 169.59375 161.609375 170.445312 C 161.398438 171.296875 161.125 172.128906 160.789062 172.941406 C 160.453125 173.753906 160.058594 174.535156 159.605469 175.289062 C 159.15625 176.042969 158.652344 176.761719 158.09375 177.441406 C 157.539062 178.121094 156.933594 178.753906 156.285156 179.34375 C 155.632812 179.9375 154.941406 180.476562 154.214844 180.964844 C 153.484375 181.453125 152.722656 181.886719 151.925781 182.261719 C 151.132812 182.636719 150.316406 182.953125 149.476562 183.210938 C 148.636719 183.464844 147.78125 183.660156 146.910156 183.789062 C 146.042969 183.917969 145.167969 183.984375 144.289062 183.984375 L 144.28125 183.984375 C 141.90625 183.992188 139.625 183.542969 137.433594 182.632812 C 135.242188 181.726562 133.308594 180.429688 131.636719 178.746094 C 131.398438 178.507812 131.140625 178.296875 130.859375 178.109375 C 130.578125 177.921875 130.285156 177.765625 129.972656 177.636719 C 129.664062 177.507812 129.34375 177.410156 129.011719 177.34375 C 128.683594 177.277344 128.347656 177.246094 128.011719 177.246094 C 127.675781 177.246094 127.34375 177.277344 127.011719 177.34375 C 126.683594 177.410156 126.363281 177.507812 126.050781 177.636719 C 125.738281 177.765625 125.445312 177.921875 125.164062 178.109375 C 124.886719 178.296875 124.625 178.507812 124.386719 178.746094 L 112.09375 191.042969 L 54.984375 133.933594 Z M 112.09375 76.824219 " fill-opacity="1" fill-rule="nonzero"/></g></svg>