<svg xmlns="http://www.w3.org/2000/svg" xmlns:xlink="http://www.w3.org/1999/xlink" width="500" zoomAndPan="magnify" viewBox="0 0 375 374.999991" height="500" preserveAspectRatio="xMidYMid meet" version="1.0"><defs><clipPath id="692a8627d2"><path d="M 0 226 L 65 226 L 65 362.496094 L 0 362.496094 Z M 0 226 " clip-rule="nonzero"/></clipPath></defs><path fill="#e2e419" d="M 229.195312 293.058594 C 225.945312 293.058594 222.265625 292.625 218.363281 291.757812 L 155.984375 274.863281 C 150.355469 273.5625 152.734375 265.117188 158.152344 266.632812 L 220.3125 283.308594 C 252.585938 291.324219 248.6875 256.019531 224.429688 250.386719 L 149.488281 229.808594 C 133.890625 225.261719 119.164062 221.148438 105.519531 229.808594 L 62.847656 256.234375 C 57.867188 259.269531 53.316406 251.902344 58.300781 248.871094 L 100.96875 222.445312 C 118.945312 211.183594 136.925781 217.246094 154.46875 222.230469 C 171.148438 226.996094 211.652344 238.472656 226.378906 241.941406 C 257.785156 249.304688 262.550781 293.058594 229.195312 293.058594 Z M 229.195312 293.058594 " fill-opacity="1" fill-rule="evenodd"/><path fill="#e2e419" d="M 94.039062 352.621094 C 89.273438 352.621094 69.996094 351.972656 57.648438 341.574219 C 53.316406 337.890625 58.949219 331.179688 63.28125 334.859375 C 74.542969 344.390625 94.90625 343.957031 95.121094 343.957031 L 183.492188 343.957031 L 351.789062 246.703125 C 360.667969 241.722656 363.703125 230.460938 358.503906 221.578125 C 353.523438 212.914062 342.257812 209.882812 333.378906 214.867188 L 246.957031 264.683594 C 242.191406 267.714844 237.859375 260.132812 242.625 257.316406 L 329.046875 207.285156 C 349.839844 195.371094 374.964844 214.648438 368.683594 237.824219 C 366.949219 244.753906 362.402344 250.605469 356.121094 254.285156 L 186.957031 351.972656 C 183.925781 353.703125 105.953125 352.1875 95.121094 352.621094 C 95.121094 352.621094 94.6875 352.621094 94.039062 352.621094 Z M 94.039062 352.621094 " fill-opacity="1" fill-rule="evenodd"/><g clip-path="url(#692a8627d2)"><path fill="#e2e419" d="M 55.050781 362.367188 L 9.78125 362.367188 C 4.367188 362.367188 0.0351562 357.820312 0.0351562 352.621094 L 0.0351562 236.308594 C 0.0351562 230.894531 4.367188 226.5625 9.78125 226.5625 L 55.050781 226.5625 C 60.464844 226.5625 64.796875 230.894531 64.796875 236.308594 L 64.796875 352.621094 C 64.796875 357.820312 60.464844 362.367188 55.050781 362.367188 Z M 9.78125 235.226562 C 9.132812 235.226562 8.699219 235.660156 8.699219 236.308594 L 8.699219 352.621094 C 8.699219 353.054688 9.132812 353.703125 9.78125 353.703125 L 55.050781 353.703125 C 55.699219 353.703125 56.132812 353.054688 56.132812 352.621094 L 56.132812 236.308594 C 56.132812 235.660156 55.699219 235.226562 55.050781 235.226562 Z M 9.78125 235.226562 " fill-opacity="1" fill-rule="evenodd"/></g><path fill="#e2e419" d="M 32.523438 345.472656 C 13.246094 345.472656 13.246094 316.234375 32.523438 316.234375 C 51.585938 316.234375 51.585938 345.472656 32.523438 345.472656 Z M 32.523438 324.898438 C 24.726562 324.898438 24.726562 336.808594 32.523438 336.808594 C 40.105469 336.808594 40.105469 324.898438 32.523438 324.898438 Z M 32.523438 324.898438 " fill-opacity="1" fill-rule="evenodd"/><path fill="#e2e419" d="M 290.273438 119.128906 C 231.578125 119.128906 172.878906 119.128906 114.183594 119.128906 C 110.5 119.128906 108.550781 115.015625 110.714844 112.199219 L 144.074219 67.144531 C 144.9375 66.0625 146.238281 65.414062 147.539062 65.414062 L 259.953125 65.414062 C 261.46875 65.414062 262.765625 66.0625 263.632812 67.144531 L 293.523438 111.980469 C 296.125 115.445312 293.308594 119.128906 290.273438 119.128906 Z M 122.628906 110.464844 L 282.042969 110.464844 L 257.785156 74.078125 L 149.703125 74.078125 Z M 122.628906 110.464844 " fill-opacity="1" fill-rule="evenodd"/><path fill="#e2e419" d="M 202.121094 207.285156 C 201.039062 207.285156 199.953125 206.851562 199.089844 205.984375 L 110.933594 117.828125 C 108.332031 115.230469 110.28125 110.464844 114.183594 110.464844 L 290.058594 110.464844 C 293.957031 110.464844 295.90625 115.230469 293.308594 117.828125 L 205.152344 205.984375 C 204.285156 206.851562 203.203125 207.285156 202.121094 207.285156 Z M 124.578125 119.128906 L 202.121094 196.886719 L 279.660156 119.128906 Z M 124.578125 119.128906 " fill-opacity="1" fill-rule="evenodd"/><path fill="#e2e419" d="M 237.640625 119.128906 C 214.03125 119.128906 190.425781 119.128906 166.597656 119.128906 C 163.78125 119.128906 161.617188 116.3125 162.484375 113.496094 L 175.910156 68.445312 C 176.5625 66.496094 178.292969 65.414062 180.242188 65.414062 L 225.511719 65.414062 C 227.460938 65.414062 229.195312 66.710938 229.628906 68.445312 L 241.972656 114.796875 C 241.972656 117.179688 240.023438 119.128906 237.640625 119.128906 Z M 172.445312 110.464844 L 232.011719 110.464844 L 222.046875 74.078125 L 183.277344 74.078125 Z M 172.445312 110.464844 " fill-opacity="1" fill-rule="evenodd"/><path fill="#e2e419" d="M 202.121094 207.285156 C 200.386719 207.285156 198.871094 206.203125 198.003906 204.683594 L 162.699219 116.53125 C 161.617188 113.496094 163.566406 110.464844 166.597656 110.464844 L 237.640625 110.464844 C 240.675781 110.464844 242.839844 113.496094 241.539062 116.53125 L 206.234375 204.683594 C 205.585938 206.203125 203.851562 207.285156 202.121094 207.285156 Z M 173.097656 119.128906 L 202.121094 191.472656 L 231.144531 119.128906 Z M 173.097656 119.128906 " fill-opacity="1" fill-rule="evenodd"/><path fill="#e2e419" d="M 202.121094 44.621094 C 199.738281 44.621094 197.789062 42.671875 197.789062 40.289062 L 197.789062 18.628906 C 197.789062 12.996094 206.453125 12.996094 206.453125 18.628906 L 206.453125 40.289062 C 206.453125 42.671875 204.503906 44.621094 202.121094 44.621094 Z M 202.121094 44.621094 " fill-opacity="1" fill-rule="evenodd"/><path fill="#e2e419" d="M 251.503906 56.53125 C 248.039062 56.53125 246.089844 52.851562 247.605469 50.035156 L 258.652344 31.191406 C 261.46875 26.210938 268.832031 30.542969 266.015625 35.523438 L 255.1875 54.367188 C 254.320312 55.667969 253.019531 56.53125 251.503906 56.53125 Z M 251.503906 56.53125 " fill-opacity="1" fill-rule="evenodd"/><path fill="#e2e419" d="M 152.734375 56.53125 C 151.4375 56.53125 149.921875 55.667969 149.054688 54.367188 L 138.222656 35.523438 C 135.410156 30.542969 142.773438 26.210938 145.804688 31.191406 L 156.636719 50.035156 C 158.152344 52.851562 156.203125 56.53125 152.734375 56.53125 Z M 152.734375 56.53125 " fill-opacity="1" fill-rule="evenodd"/></svg>