<svg xmlns="http://www.w3.org/2000/svg" xmlns:xlink="http://www.w3.org/1999/xlink" width="500" zoomAndPan="magnify" viewBox="0 0 375 374.999991" height="500" preserveAspectRatio="xMidYMid meet" version="1.0"><defs><clipPath id="ad74249010"><path d="M 301 120 L 336.75 120 L 336.75 133 L 301 133 Z M 301 120 " clip-rule="nonzero"/></clipPath></defs><path fill="#e2e419" d="M 46.839844 279.300781 L 85.664062 261.785156 L 85.953125 261.785156 L 122.148438 345.558594 L 83.035156 363.074219 C 80.117188 364.53125 78.65625 367.742188 80.117188 370.664062 C 80.992188 372.707031 83.328125 374.164062 85.371094 374.164062 C 86.246094 374.164062 87.121094 373.875 87.707031 373.582031 L 126.820312 356.066406 C 132.65625 353.441406 135.285156 346.4375 132.949219 340.597656 L 129.15625 332.132812 C 130.613281 332.425781 132.074219 332.714844 133.53125 333.007812 L 216.136719 352.855469 C 216.136719 352.855469 216.429688 352.855469 216.429688 352.855469 C 217.304688 352.855469 218.183594 353.148438 219.058594 353.148438 C 223.144531 353.148438 227.230469 351.398438 230.148438 348.480469 L 318.007812 271.417969 C 318.300781 271.417969 318.300781 271.128906 318.59375 271.128906 C 326.472656 262.664062 326.472656 248.945312 318.300781 240.769531 C 314.214844 236.390625 308.667969 234.347656 302.832031 234.347656 C 297.285156 234.347656 292.03125 236.683594 288.234375 240.769531 L 246.203125 275.796875 C 247.664062 279.007812 248.832031 282.21875 249.414062 285.722656 C 249.414062 286.597656 249.414062 287.472656 249.707031 288.347656 L 296.117188 249.527344 C 296.410156 249.234375 296.410156 249.234375 296.699219 248.945312 C 298.453125 247.191406 300.496094 246.023438 303.121094 246.023438 C 305.457031 246.023438 308.085938 247.191406 310.128906 248.945312 C 313.628906 252.738281 313.921875 259.160156 310.417969 262.953125 L 222.851562 339.722656 C 222.558594 339.722656 222.558594 340.015625 222.269531 340.015625 C 221.390625 340.890625 220.226562 341.472656 218.765625 341.183594 L 137.035156 321.332031 L 136.160156 321.042969 C 132.65625 320.457031 128.570312 319.582031 124.484375 320.164062 L 106.679688 278.714844 L 129.445312 260.621094 C 132.074219 259.160156 133.242188 259.160156 134.699219 259.160156 L 211.761719 276.089844 C 212.050781 276.089844 212.050781 276.089844 212.34375 276.089844 C 219.347656 276.964844 226.0625 282.21875 226.648438 287.472656 C 227.230469 290.976562 226.0625 294.1875 223.726562 296.8125 C 221.683594 299.148438 219.058594 300.316406 216.136719 300.316406 L 168.558594 290.976562 C 165.347656 290.390625 162.429688 292.433594 161.847656 295.644531 C 161.261719 298.855469 163.304688 301.777344 166.515625 302.359375 L 214.386719 311.699219 C 214.679688 311.699219 214.972656 311.699219 215.261719 311.699219 C 215.554688 311.699219 215.554688 311.699219 215.847656 311.699219 C 221.976562 311.699219 228.105469 309.074219 232.191406 304.402344 C 236.570312 299.441406 238.90625 292.726562 238.03125 285.722656 C 236.570312 274.046875 224.601562 265.582031 213.804688 264.414062 L 136.453125 247.191406 C 136.160156 247.191406 135.867188 247.191406 135.574219 247.191406 C 132.363281 246.898438 128.570312 247.191406 123.023438 250.402344 C 122.734375 250.402344 122.734375 250.695312 122.441406 250.695312 L 101.714844 267.039062 L 96.753906 255.65625 C 95.585938 252.738281 93.25 250.402344 90.039062 249.234375 C 87.121094 248.066406 83.617188 248.066406 80.699219 249.527344 L 41.878906 267.039062 C 38.960938 268.5 37.5 271.710938 38.960938 274.628906 C 40.417969 279.300781 43.921875 280.46875 46.839844 279.300781 Z M 46.839844 279.300781 " fill-opacity="1" fill-rule="nonzero"/><path fill="#e2e419" d="M 141.414062 107.960938 C 140.246094 112.046875 141.707031 116.425781 145.207031 119.050781 L 175.855469 140.066406 L 164.179688 174.511719 C 162.722656 178.597656 164.179688 182.976562 167.683594 185.601562 C 171.1875 188.230469 175.855469 188.230469 179.359375 185.894531 L 210.882812 164.003906 L 242.699219 185.894531 C 244.453125 187.0625 246.496094 187.644531 248.246094 187.644531 C 250.289062 187.644531 252.625 187.0625 254.375 185.601562 C 257.878906 182.976562 259.046875 178.597656 257.878906 174.511719 L 245.910156 140.066406 L 276.851562 118.757812 C 280.355469 116.425781 282.105469 111.753906 280.648438 107.667969 C 279.480469 103.582031 275.394531 100.660156 271.015625 100.660156 L 232.191406 100.660156 L 220.226562 65.632812 C 218.765625 61.839844 215.261719 59.214844 210.882812 59.214844 C 206.507812 59.214844 203.003906 61.839844 201.542969 65.925781 L 189.578125 100.953125 L 150.753906 100.953125 C 146.375 100.953125 142.582031 103.582031 141.414062 107.960938 Z M 190.742188 112.628906 C 195.121094 112.628906 198.917969 110.003906 200.085938 105.914062 L 210.882812 74.390625 L 221.683594 105.914062 C 223.144531 110.003906 226.9375 112.628906 231.023438 112.628906 L 265.175781 112.628906 L 238.03125 131.3125 C 234.234375 133.9375 232.777344 138.609375 234.234375 142.695312 L 244.742188 173.34375 L 216.429688 153.785156 C 214.679688 152.617188 212.636719 152.035156 210.882812 152.035156 C 209.132812 152.035156 206.796875 152.617188 205.339844 153.785156 L 177.023438 173.34375 L 187.53125 142.695312 C 188.992188 138.609375 187.53125 133.9375 183.738281 131.3125 L 156.59375 112.628906 Z M 190.742188 112.628906 " fill-opacity="1" fill-rule="nonzero"/><path fill="#e2e419" d="M 210.882812 35.863281 C 214.09375 35.863281 216.722656 33.234375 216.722656 30.023438 L 216.722656 6.671875 C 216.722656 3.460938 214.09375 0.835938 210.882812 0.835938 C 207.671875 0.835938 205.046875 3.460938 205.046875 6.671875 L 205.046875 30.023438 C 205.046875 33.234375 207.671875 35.863281 210.882812 35.863281 Z M 210.882812 35.863281 " fill-opacity="1" fill-rule="nonzero"/><path fill="#e2e419" d="M 138.785156 62.425781 C 139.953125 63.589844 141.414062 64.175781 142.875 64.175781 C 144.332031 64.175781 145.792969 63.589844 146.960938 62.425781 C 149.296875 60.089844 149.296875 56.585938 146.960938 54.25 L 130.320312 37.613281 C 127.988281 35.277344 124.484375 35.277344 122.148438 37.613281 C 119.8125 39.949219 119.8125 43.449219 122.148438 45.785156 Z M 138.785156 62.425781 " fill-opacity="1" fill-rule="nonzero"/><path fill="#e2e419" d="M 91.207031 132.1875 L 114.558594 132.1875 C 117.769531 132.1875 120.398438 129.558594 120.398438 126.347656 C 120.398438 123.136719 117.769531 120.511719 114.558594 120.511719 L 91.207031 120.511719 C 87.996094 120.511719 85.371094 123.136719 85.371094 126.347656 C 85.371094 129.558594 87.996094 132.1875 91.207031 132.1875 Z M 91.207031 132.1875 " fill-opacity="1" fill-rule="nonzero"/><path fill="#e2e419" d="M 126.234375 216.835938 C 127.695312 216.835938 129.15625 216.25 130.320312 215.082031 L 146.960938 198.445312 C 149.296875 196.109375 149.296875 192.609375 146.960938 190.273438 C 144.625 187.9375 141.121094 187.9375 138.785156 190.273438 L 122.148438 206.910156 C 119.8125 209.246094 119.8125 212.75 122.148438 215.082031 C 123.316406 216.25 124.777344 216.835938 126.234375 216.835938 Z M 126.234375 216.835938 " fill-opacity="1" fill-rule="nonzero"/><path fill="#e2e419" d="M 205.046875 222.671875 L 205.046875 246.023438 C 205.046875 249.234375 207.671875 251.863281 210.882812 251.863281 C 214.09375 251.863281 216.722656 249.234375 216.722656 246.023438 L 216.722656 222.671875 C 216.722656 219.460938 214.09375 216.835938 210.882812 216.835938 C 207.671875 216.835938 205.046875 219.460938 205.046875 222.671875 Z M 205.046875 222.671875 " fill-opacity="1" fill-rule="nonzero"/><path fill="#e2e419" d="M 282.980469 190.273438 C 280.648438 187.9375 277.144531 187.9375 274.808594 190.273438 C 272.472656 192.609375 272.472656 196.109375 274.808594 198.445312 L 291.445312 215.082031 C 292.613281 216.25 294.074219 216.835938 295.535156 216.835938 C 296.992188 216.835938 298.453125 216.25 299.621094 215.082031 C 301.953125 212.75 301.953125 209.246094 299.621094 206.910156 Z M 282.980469 190.273438 " fill-opacity="1" fill-rule="nonzero"/><g clip-path="url(#ad74249010)"><path fill="#e2e419" d="M 301.371094 126.347656 C 301.371094 129.558594 304 132.1875 307.210938 132.1875 L 330.5625 132.1875 C 333.769531 132.1875 336.398438 129.558594 336.398438 126.347656 C 336.398438 123.136719 333.769531 120.511719 330.5625 120.511719 L 307.210938 120.511719 C 304 120.511719 301.371094 123.136719 301.371094 126.347656 Z M 301.371094 126.347656 " fill-opacity="1" fill-rule="nonzero"/></g><path fill="#e2e419" d="M 278.894531 64.175781 C 280.355469 64.175781 281.8125 63.589844 282.980469 62.425781 L 299.621094 45.785156 C 301.953125 43.449219 301.953125 39.949219 299.621094 37.613281 C 297.285156 35.277344 293.78125 35.277344 291.445312 37.613281 L 274.808594 54.25 C 272.472656 56.585938 272.472656 60.089844 274.808594 62.425781 C 275.976562 63.589844 277.4375 64.175781 278.894531 64.175781 Z M 278.894531 64.175781 " fill-opacity="1" fill-rule="nonzero"/><path fill="#e2e419" d="M 167.101562 37.90625 C 167.976562 39.949219 170.3125 41.40625 172.355469 41.40625 C 173.230469 41.40625 174.105469 41.117188 174.691406 40.824219 C 177.609375 39.363281 178.777344 35.863281 177.609375 32.941406 L 172.9375 22.144531 C 171.480469 19.222656 167.976562 18.054688 165.058594 19.222656 C 162.136719 20.683594 160.972656 24.1875 162.136719 27.105469 Z M 167.101562 37.90625 " fill-opacity="1" fill-rule="nonzero"/><path fill="#e2e419" d="M 106.386719 90.738281 L 117.480469 94.824219 C 118.0625 95.117188 118.9375 95.117188 119.523438 95.117188 C 121.855469 95.117188 124.191406 93.65625 125.066406 91.320312 C 126.234375 88.402344 124.777344 84.898438 121.566406 83.730469 L 110.472656 79.644531 C 107.554688 78.476562 104.050781 79.9375 102.882812 83.148438 C 101.714844 86.066406 103.46875 89.570312 106.386719 90.738281 Z M 106.386719 90.738281 " fill-opacity="1" fill-rule="nonzero"/><path fill="#e2e419" d="M 125.066406 162.25 C 123.609375 159.332031 120.105469 158.164062 117.1875 159.332031 L 106.679688 164.292969 C 103.757812 165.753906 102.59375 169.257812 103.757812 172.175781 C 104.636719 174.21875 106.96875 175.679688 109.015625 175.679688 C 109.890625 175.679688 110.765625 175.386719 111.347656 175.09375 L 121.855469 170.132812 C 125.359375 168.671875 126.527344 165.171875 125.066406 162.25 Z M 125.066406 162.25 " fill-opacity="1" fill-rule="nonzero"/><path fill="#e2e419" d="M 175.566406 212.457031 C 172.644531 211.289062 169.144531 212.75 167.976562 215.960938 L 164.179688 226.757812 C 163.015625 229.679688 164.472656 233.179688 167.683594 234.347656 C 168.269531 234.640625 169.144531 234.640625 169.726562 234.640625 C 172.0625 234.640625 174.398438 233.179688 175.273438 230.847656 L 179.359375 219.753906 C 180.234375 216.835938 178.777344 213.625 175.566406 212.457031 Z M 175.566406 212.457031 " fill-opacity="1" fill-rule="nonzero"/><path fill="#e2e419" d="M 246.789062 212.164062 C 243.867188 213.625 242.699219 217.128906 243.867188 220.046875 L 248.832031 230.554688 C 249.707031 232.597656 252.042969 234.058594 254.085938 234.058594 C 254.960938 234.058594 255.835938 233.765625 256.417969 233.472656 C 259.339844 232.011719 260.507812 228.511719 259.339844 225.59375 L 254.667969 214.792969 C 253.207031 211.875 249.707031 210.707031 246.789062 212.164062 Z M 246.789062 212.164062 " fill-opacity="1" fill-rule="nonzero"/><path fill="#e2e419" d="M 313.339844 173.34375 C 315.675781 173.34375 318.007812 171.882812 318.886719 169.546875 C 320.050781 166.628906 318.59375 163.125 315.382812 161.960938 L 304.289062 157.871094 C 301.371094 156.707031 297.867188 158.164062 296.699219 161.375 C 295.535156 164.585938 296.992188 167.796875 300.203125 168.964844 L 311.296875 173.050781 C 311.878906 173.34375 312.753906 173.34375 313.339844 173.34375 Z M 313.339844 173.34375 " fill-opacity="1" fill-rule="nonzero"/><path fill="#e2e419" d="M 296.699219 90.445312 C 297.578125 92.488281 299.910156 93.949219 301.953125 93.949219 C 302.832031 93.949219 303.707031 93.65625 304.289062 93.363281 L 314.796875 88.402344 C 317.71875 86.941406 318.886719 83.441406 317.71875 80.519531 C 316.257812 77.601562 312.753906 76.433594 309.835938 77.601562 L 299.328125 82.566406 C 296.410156 84.023438 295.242188 87.527344 296.699219 90.445312 Z M 296.699219 90.445312 " fill-opacity="1" fill-rule="nonzero"/><path fill="#e2e419" d="M 246.203125 40.238281 C 246.789062 40.53125 247.664062 40.53125 248.246094 40.53125 C 250.582031 40.53125 252.917969 39.074219 253.792969 36.738281 L 257.585938 25.9375 C 258.753906 23.019531 257.296875 19.515625 254.085938 18.347656 C 251.164062 17.179688 247.664062 18.640625 246.496094 21.851562 L 242.699219 32.941406 C 241.53125 35.863281 242.992188 39.074219 246.203125 40.238281 Z M 246.203125 40.238281 " fill-opacity="1" fill-rule="nonzero"/><path stroke-linecap="round" transform="matrix(-0.308469, -0.683628, 0.683628, -0.308469, 80.768284, 377.311089)" fill="none" stroke-linejoin="miter" d="M 7.499082 7.499667 L 145.007184 7.498209 " stroke="#e2e419" stroke-width="15" stroke-opacity="1" stroke-miterlimit="4"/></svg>