<svg xmlns="http://www.w3.org/2000/svg" xmlns:xlink="http://www.w3.org/1999/xlink" width="500" zoomAndPan="magnify" viewBox="0 0 375 374.999991" height="500" preserveAspectRatio="xMidYMid meet" version="1.0"><defs><clipPath id="eaa8d90550"><path d="M 2 16.25 L 372 16.25 L 372 359 L 2 359 Z M 2 16.25 " clip-rule="nonzero"/></clipPath></defs><g clip-path="url(#eaa8d90550)"><path fill="#e2e419" d="M 367.691406 213.859375 C 364.179688 207.996094 349.757812 190.582031 311.699219 212.75 L 244.589844 251.835938 C 241.222656 253.796875 237.800781 255.179688 234.230469 256.003906 C 235.554688 253.882812 236.589844 251.484375 237.300781 248.824219 C 240.734375 236.023438 233.121094 222.652344 219.976562 218.390625 C 219.722656 218.308594 219.460938 218.246094 219.199219 218.195312 C 199.910156 214.714844 180.871094 207.835938 165.574219 202.304688 C 160.261719 200.382812 155.242188 198.566406 150.976562 197.183594 C 133.792969 191.613281 118.261719 198.511719 105.335938 205.996094 L 55.40625 234.902344 L 50.699219 226.585938 C 46.398438 218.988281 36.71875 216.300781 29.117188 220.605469 L 10.285156 231.261719 C 2.6875 235.5625 0.00390625 245.242188 4.304688 252.839844 L 59.664062 350.65625 C 61.742188 354.328125 65.136719 356.972656 69.21875 358.105469 C 70.628906 358.496094 72.066406 358.691406 73.488281 358.691406 C 76.183594 358.691406 78.84375 357.996094 81.246094 356.636719 L 100.074219 345.980469 C 107.671875 341.679688 110.355469 332 106.058594 324.398438 L 100.347656 314.3125 L 111.730469 307.742188 L 197.683594 330.773438 C 202.539062 332.074219 207.304688 332.726562 211.964844 332.726562 C 221.261719 332.726562 230.148438 330.140625 238.511719 324.992188 L 360.300781 250.003906 C 371.40625 243.167969 374.925781 225.941406 367.691406 213.859375 Z M 96.046875 333.246094 C 95.765625 334.261719 95.113281 335.105469 94.210938 335.617188 L 75.378906 346.273438 C 73.527344 347.320312 71.078125 346.640625 70.03125 344.789062 L 14.671875 246.976562 C 13.625 245.125 14.304688 242.671875 16.152344 241.625 L 34.984375 230.96875 C 35.574219 230.632812 36.230469 230.476562 36.878906 230.476562 C 38.257812 230.476562 39.621094 231.191406 40.335938 232.453125 L 95.691406 330.265625 C 96.203125 331.167969 96.328125 332.226562 96.046875 333.246094 Z M 354.058594 239.859375 L 232.269531 314.851562 C 222.609375 320.796875 212.011719 322.285156 200.769531 319.273438 L 112.429688 295.601562 C 110.90625 295.191406 109.28125 295.40625 107.914062 296.199219 L 94.484375 303.949219 L 61.273438 245.269531 L 111.304688 216.304688 C 122.496094 209.824219 134.601562 204.394531 147.300781 208.511719 C 151.382812 209.835938 156.082031 211.535156 161.527344 213.503906 C 177.132812 219.148438 196.53125 226.160156 216.65625 229.839844 C 223.667969 232.289062 227.589844 239.0625 225.800781 245.742188 C 223.445312 254.53125 216.125 255.625 210.300781 254.953125 C 200.414062 252.921875 191.019531 250.242188 181.082031 247.402344 C 176.367188 246.054688 171.492188 244.664062 166.484375 243.320312 C 163.308594 242.472656 160.042969 244.355469 159.191406 247.53125 C 158.339844 250.710938 160.222656 253.972656 163.402344 254.824219 C 168.316406 256.144531 173.140625 257.519531 177.808594 258.855469 C 188.054688 261.78125 197.726562 264.542969 208.144531 266.671875 C 208.183594 266.679688 208.222656 266.683594 208.261719 266.691406 C 208.300781 266.699219 208.339844 266.710938 208.382812 266.714844 L 216.730469 268.074219 C 229.210938 270.070312 240.285156 268.125 250.582031 262.125 L 317.691406 223.039062 C 337.011719 211.785156 351.882812 210.644531 357.472656 219.976562 C 361.324219 226.414062 359.601562 236.445312 354.058594 239.859375 Z M 40.445312 249.859375 C 40.984375 253.535156 38.441406 256.949219 34.765625 257.484375 C 31.09375 258.023438 27.679688 255.480469 27.144531 251.804688 C 26.605469 248.132812 29.148438 244.71875 32.824219 244.179688 C 36.496094 243.644531 39.910156 246.1875 40.445312 249.859375 Z M 256.734375 214.621094 C 311.429688 214.621094 355.929688 170.121094 355.929688 115.425781 C 355.929688 100.300781 352.441406 85.3125 345.835938 71.816406 C 353.84375 62.351562 360.742188 54.449219 365.238281 49.910156 C 372.898438 42.179688 372.855469 29.652344 365.144531 21.984375 C 361.414062 18.273438 356.46875 16.230469 351.207031 16.230469 C 351.183594 16.230469 351.15625 16.230469 351.128906 16.230469 C 345.851562 16.253906 340.898438 18.328125 337.1875 22.078125 C 337.078125 22.191406 336.96875 22.308594 336.867188 22.429688 L 321.679688 40.453125 C 303.648438 24.792969 280.828125 16.234375 256.734375 16.234375 C 202.039062 16.234375 157.539062 60.730469 157.539062 115.425781 C 157.539062 170.125 202.039062 214.621094 256.734375 214.621094 Z M 345.800781 30.3125 C 347.25 28.917969 349.152344 28.152344 351.175781 28.144531 C 351.1875 28.144531 351.195312 28.144531 351.207031 28.144531 C 353.296875 28.144531 355.265625 28.953125 356.746094 30.429688 C 359.808594 33.472656 359.824219 38.453125 356.777344 41.527344 C 347.507812 50.882812 329.882812 72.203125 311.21875 94.78125 C 292.984375 116.84375 274.125 139.65625 264.972656 148.808594 C 261.902344 151.875 256.90625 151.878906 253.839844 148.804688 L 213.265625 108.234375 C 211.777344 106.746094 210.960938 104.769531 210.960938 102.664062 C 210.960938 100.5625 211.777344 98.585938 213.265625 97.097656 C 214.75 95.609375 216.730469 94.792969 218.832031 94.792969 C 220.9375 94.792969 222.914062 95.609375 224.402344 97.097656 L 255.164062 127.863281 C 256.34375 129.042969 257.972656 129.679688 259.628906 129.601562 C 261.296875 129.53125 262.855469 128.761719 263.929688 127.488281 Z M 256.734375 28.144531 C 277.988281 28.144531 298.121094 35.714844 314.007812 49.5625 L 259 114.855469 L 232.824219 88.675781 C 229.085938 84.941406 224.117188 82.882812 218.832031 82.882812 C 213.546875 82.882812 208.578125 84.941406 204.84375 88.675781 C 201.105469 92.414062 199.050781 97.378906 199.050781 102.664062 C 199.050781 107.953125 201.105469 112.917969 204.84375 116.65625 L 245.417969 157.230469 C 249.273438 161.085938 254.339844 163.015625 259.40625 163.015625 C 264.472656 163.015625 269.539062 161.085938 273.394531 157.230469 C 282.945312 147.679688 301.984375 124.644531 320.402344 102.367188 C 326.097656 95.476562 331.855469 88.511719 337.34375 81.933594 C 341.722656 92.488281 344.015625 103.910156 344.015625 115.425781 C 344.015625 163.554688 304.863281 202.710938 256.734375 202.710938 C 208.605469 202.710938 169.449219 163.554688 169.449219 115.425781 C 169.449219 67.300781 208.605469 28.144531 256.734375 28.144531 Z M 256.734375 28.144531 " fill-opacity="1" fill-rule="nonzero"/></g></svg>