<svg xmlns="http://www.w3.org/2000/svg" xmlns:xlink="http://www.w3.org/1999/xlink" width="500" zoomAndPan="magnify" viewBox="0 0 375 374.999991" height="500" preserveAspectRatio="xMidYMid meet" version="1.0"><defs><clipPath id="8aaebdea8c"><path d="M 1 205 L 354 205 L 354 350.800781 L 1 350.800781 Z M 1 205 " clip-rule="nonzero"/></clipPath></defs><g clip-path="url(#8aaebdea8c)"><path fill="#e2e419" d="M 316.40625 265.75 L 242.746094 288.839844 L 230.101562 287.738281 C 229.550781 277.84375 226.253906 268.5 219.109375 260.804688 C 211.410156 252.007812 199.867188 247.0625 188.324219 247.0625 L 156.441406 247.0625 C 116.863281 218.476562 78.382812 225.625 69.039062 224.523438 L 69.039062 211.332031 C 69.039062 208.03125 66.839844 205.832031 63.542969 205.832031 L 7.472656 205.832031 C 4.175781 205.832031 1.976562 208.03125 1.976562 211.332031 L 1.976562 325.667969 C 1.976562 328.96875 4.175781 331.164062 7.472656 331.164062 L 63.542969 331.164062 C 66.839844 331.164062 69.039062 328.96875 69.039062 325.667969 L 69.039062 316.324219 L 177.878906 349.304688 C 182.277344 350.40625 186.125 350.953125 190.523438 350.953125 C 195.46875 350.953125 200.417969 350.40625 204.816406 348.757812 L 349.9375 298.183594 C 352.136719 297.632812 353.785156 295.433594 353.785156 293.238281 C 353.785156 273.445312 335.09375 259.703125 316.40625 265.75 Z M 58.046875 320.722656 L 12.96875 320.722656 L 12.96875 217.925781 L 58.046875 217.925781 C 58.046875 243.214844 58.046875 295.433594 58.046875 320.722656 Z M 200.96875 338.3125 C 194.371094 340.511719 187.226562 340.511719 180.628906 338.863281 L 69.039062 305.328125 L 69.039062 236.066406 C 78.382812 237.167969 115.214844 230.019531 151.496094 257.503906 C 152.59375 258.054688 153.695312 258.605469 154.792969 258.605469 L 188.324219 258.605469 C 197.121094 258.605469 205.367188 262.453125 211.410156 268.5 C 215.808594 273.445312 218.558594 280.042969 219.109375 286.640625 L 154.792969 281.691406 C 152.042969 281.691406 149.296875 283.890625 148.746094 286.640625 C 148.746094 289.386719 150.945312 292.136719 153.695312 292.6875 L 243.292969 299.832031 C 245.492188 299.832031 241.097656 300.933594 319.703125 276.195312 C 330.148438 272.898438 340.59375 279.492188 342.789062 289.386719 Z M 200.96875 338.3125 " fill-opacity="1" fill-rule="nonzero"/></g><path fill="#e2e419" d="M 211.410156 244.863281 C 213.0625 244.863281 214.160156 244.3125 215.261719 243.214844 C 215.808594 242.664062 307.609375 151.414062 308.160156 150.863281 C 373.023438 86 278.476562 -12.398438 211.410156 46.96875 C 144.898438 -12.949219 49.800781 86 114.664062 150.863281 L 207.5625 243.761719 C 208.664062 244.3125 209.761719 244.863281 211.410156 244.863281 Z M 207.5625 57.964844 C 209.761719 60.164062 213.609375 60.164062 215.808594 57.964844 C 271.328125 2.445312 356.53125 87.097656 300.464844 143.167969 C 299.914062 143.71875 229.003906 214.078125 211.410156 231.667969 L 122.359375 143.167969 C 66.289062 86.546875 150.945312 1.894531 207.5625 57.964844 Z M 207.5625 57.964844 " fill-opacity="1" fill-rule="nonzero"/><path fill="#e2e419" d="M 215.261719 183.847656 C 218.007812 181.097656 257.039062 142.070312 266.382812 132.722656 C 274.628906 124.476562 277.925781 113.484375 275.175781 103.039062 C 269.128906 79.953125 240.546875 68.410156 221.304688 87.648438 L 211.960938 96.992188 L 202.066406 87.097656 C 171.832031 56.863281 127.308594 102.488281 156.992188 132.171875 L 208.113281 183.296875 C 209.214844 184.394531 210.863281 184.945312 211.960938 184.945312 C 212.511719 185.496094 214.160156 184.945312 215.261719 183.847656 Z M 164.136719 125.027344 C 144.898438 105.789062 174.03125 75.554688 193.820312 95.34375 L 207.5625 109.085938 C 209.761719 111.285156 213.0625 111.285156 215.261719 109.085938 L 228.453125 95.894531 C 241.097656 83.25 259.785156 91.496094 264.183594 106.335938 C 265.28125 111.285156 265.28125 118.429688 258.136719 125.578125 C 227.351562 155.8125 215.808594 167.90625 210.863281 172.300781 Z M 164.136719 125.027344 " fill-opacity="1" fill-rule="nonzero"/></svg>