<svg xmlns="http://www.w3.org/2000/svg" xmlns:xlink="http://www.w3.org/1999/xlink" width="1080" zoomAndPan="magnify" viewBox="0 0 810 809.999993" height="1080" preserveAspectRatio="xMidYMid meet" version="1.0"><defs><clipPath id="44542a0ab9"><path d="M 405 0 C 181.324219 0 0 181.324219 0 405 C 0 628.675781 181.324219 810 405 810 C 628.675781 810 810 628.675781 810 405 C 810 181.324219 628.675781 0 405 0 Z M 405 0 " clip-rule="nonzero"/></clipPath><radialGradient gradientTransform="matrix(1, 0, 0, 1, 0.0000035, 0.00002)" gradientUnits="userSpaceOnUse" r="1145.514014" cx="0" id="7638268686" cy="0" fx="0" fy="0"><stop stop-opacity="1" stop-color="rgb(0%, 63.88855%, 0.952148%)" offset="0"/><stop stop-opacity="1" stop-color="rgb(0%, 63.867188%, 1.257324%)" offset="0.00390625"/><stop stop-opacity="1" stop-color="rgb(0%, 63.845825%, 1.564026%)" offset="0.0078125"/><stop stop-opacity="1" stop-color="rgb(0%, 63.825989%, 1.870728%)" offset="0.0117188"/><stop stop-opacity="1" stop-color="rgb(0%, 63.804626%, 2.177429%)" offset="0.015625"/><stop stop-opacity="1" stop-color="rgb(0%, 63.783264%, 2.482605%)" offset="0.0195312"/><stop stop-opacity="1" stop-color="rgb(0%, 63.761902%, 2.789307%)" offset="0.0234375"/><stop stop-opacity="1" stop-color="rgb(0%, 63.74054%, 3.096008%)" offset="0.0273438"/><stop stop-opacity="1" stop-color="rgb(0%, 63.719177%, 3.401184%)" offset="0.03125"/><stop stop-opacity="1" stop-color="rgb(0%, 63.699341%, 3.707886%)" offset="0.0351562"/><stop stop-opacity="1" stop-color="rgb(0%, 63.677979%, 4.014587%)" offset="0.0390625"/><stop stop-opacity="1" stop-color="rgb(0%, 63.656616%, 4.321289%)" offset="0.0429688"/><stop stop-opacity="1" stop-color="rgb(0%, 63.635254%, 4.626465%)" offset="0.046875"/><stop stop-opacity="1" stop-color="rgb(0%, 63.613892%, 4.933167%)" offset="0.0507812"/><stop stop-opacity="1" stop-color="rgb(0%, 63.592529%, 5.239868%)" offset="0.0546875"/><stop stop-opacity="1" stop-color="rgb(0%, 63.572693%, 5.545044%)" offset="0.0585938"/><stop stop-opacity="1" stop-color="rgb(0%, 63.551331%, 5.851746%)" offset="0.0625"/><stop stop-opacity="1" stop-color="rgb(0%, 63.529968%, 6.158447%)" offset="0.0664062"/><stop stop-opacity="1" stop-color="rgb(0%, 63.508606%, 6.463623%)" offset="0.0703125"/><stop stop-opacity="1" stop-color="rgb(0%, 63.487244%, 6.770325%)" offset="0.0742188"/><stop stop-opacity="1" stop-color="rgb(0%, 63.467407%, 7.077026%)" offset="0.078125"/><stop stop-opacity="1" stop-color="rgb(0%, 63.446045%, 7.383728%)" offset="0.0820312"/><stop stop-opacity="1" stop-color="rgb(0%, 63.424683%, 7.688904%)" offset="0.0859375"/><stop stop-opacity="1" stop-color="rgb(0%, 63.40332%, 7.995605%)" offset="0.0898438"/><stop stop-opacity="1" stop-color="rgb(0%, 63.381958%, 8.302307%)" offset="0.09375"/><stop stop-opacity="1" stop-color="rgb(0%, 63.360596%, 8.607483%)" offset="0.0976562"/><stop stop-opacity="1" stop-color="rgb(0%, 63.340759%, 8.914185%)" offset="0.101562"/><stop stop-opacity="1" stop-color="rgb(0%, 63.319397%, 9.220886%)" offset="0.105469"/><stop stop-opacity="1" stop-color="rgb(0%, 63.298035%, 9.527588%)" offset="0.109375"/><stop stop-opacity="1" stop-color="rgb(0%, 63.276672%, 9.832764%)" offset="0.113281"/><stop stop-opacity="1" stop-color="rgb(0%, 63.25531%, 10.139465%)" offset="0.117188"/><stop stop-opacity="1" stop-color="rgb(0%, 63.233948%, 10.446167%)" offset="0.121094"/><stop stop-opacity="1" stop-color="rgb(0%, 63.214111%, 10.751343%)" offset="0.125"/><stop stop-opacity="1" stop-color="rgb(0%, 63.192749%, 11.058044%)" offset="0.128906"/><stop stop-opacity="1" stop-color="rgb(0%, 63.171387%, 11.364746%)" offset="0.132812"/><stop stop-opacity="1" stop-color="rgb(0%, 63.150024%, 11.669922%)" offset="0.136719"/><stop stop-opacity="1" stop-color="rgb(0%, 63.128662%, 11.976624%)" offset="0.140625"/><stop stop-opacity="1" stop-color="rgb(0%, 63.108826%, 12.283325%)" offset="0.144531"/><stop stop-opacity="1" stop-color="rgb(0%, 63.087463%, 12.590027%)" offset="0.148438"/><stop stop-opacity="1" stop-color="rgb(0%, 63.066101%, 12.895203%)" offset="0.152344"/><stop stop-opacity="1" stop-color="rgb(0%, 63.044739%, 13.201904%)" offset="0.15625"/><stop stop-opacity="1" stop-color="rgb(0%, 63.023376%, 13.508606%)" offset="0.160156"/><stop stop-opacity="1" stop-color="rgb(0%, 63.002014%, 13.813782%)" offset="0.164062"/><stop stop-opacity="1" stop-color="rgb(0%, 62.982178%, 14.120483%)" offset="0.167969"/><stop stop-opacity="1" stop-color="rgb(0%, 62.960815%, 14.427185%)" offset="0.171875"/><stop stop-opacity="1" stop-color="rgb(0%, 62.939453%, 14.732361%)" offset="0.175781"/><stop stop-opacity="1" stop-color="rgb(0%, 62.918091%, 15.039062%)" offset="0.179688"/><stop stop-opacity="1" stop-color="rgb(0%, 62.896729%, 15.345764%)" offset="0.183594"/><stop stop-opacity="1" stop-color="rgb(0%, 62.875366%, 15.652466%)" offset="0.1875"/><stop stop-opacity="1" stop-color="rgb(0%, 62.85553%, 15.957642%)" offset="0.191406"/><stop stop-opacity="1" stop-color="rgb(0%, 62.834167%, 16.264343%)" offset="0.195312"/><stop stop-opacity="1" stop-color="rgb(0%, 62.812805%, 16.571045%)" offset="0.199219"/><stop stop-opacity="1" stop-color="rgb(0%, 62.791443%, 16.876221%)" offset="0.203125"/><stop stop-opacity="1" stop-color="rgb(0%, 62.770081%, 17.182922%)" offset="0.207031"/><stop stop-opacity="1" stop-color="rgb(0%, 62.750244%, 17.489624%)" offset="0.210938"/><stop stop-opacity="1" stop-color="rgb(0%, 62.728882%, 17.796326%)" offset="0.214844"/><stop stop-opacity="1" stop-color="rgb(0%, 62.70752%, 18.101501%)" offset="0.21875"/><stop stop-opacity="1" stop-color="rgb(0%, 62.686157%, 18.408203%)" offset="0.222656"/><stop stop-opacity="1" stop-color="rgb(0%, 62.664795%, 18.714905%)" offset="0.226562"/><stop stop-opacity="1" stop-color="rgb(0%, 62.643433%, 19.020081%)" offset="0.230469"/><stop stop-opacity="1" stop-color="rgb(0%, 62.623596%, 19.326782%)" offset="0.234375"/><stop stop-opacity="1" stop-color="rgb(0%, 62.602234%, 19.633484%)" offset="0.238281"/><stop stop-opacity="1" stop-color="rgb(0%, 62.580872%, 19.93866%)" offset="0.242188"/><stop stop-opacity="1" stop-color="rgb(0%, 62.559509%, 20.245361%)" offset="0.246094"/><stop stop-opacity="1" stop-color="rgb(0%, 62.538147%, 20.552063%)" offset="0.25"/><stop stop-opacity="1" stop-color="rgb(0%, 62.516785%, 20.858765%)" offset="0.253906"/><stop stop-opacity="1" stop-color="rgb(0%, 62.496948%, 21.16394%)" offset="0.257812"/><stop stop-opacity="1" stop-color="rgb(0%, 62.475586%, 21.470642%)" offset="0.261719"/><stop stop-opacity="1" stop-color="rgb(0%, 62.454224%, 21.777344%)" offset="0.265625"/><stop stop-opacity="1" stop-color="rgb(0%, 62.432861%, 22.08252%)" offset="0.269531"/><stop stop-opacity="1" stop-color="rgb(0%, 62.411499%, 22.389221%)" offset="0.273438"/><stop stop-opacity="1" stop-color="rgb(0%, 62.391663%, 22.695923%)" offset="0.277344"/><stop stop-opacity="1" stop-color="rgb(0%, 62.3703%, 23.001099%)" offset="0.28125"/><stop stop-opacity="1" stop-color="rgb(0%, 62.348938%, 23.3078%)" offset="0.285156"/><stop stop-opacity="1" stop-color="rgb(0%, 62.327576%, 23.614502%)" offset="0.289062"/><stop stop-opacity="1" stop-color="rgb(0%, 62.306213%, 23.921204%)" offset="0.292969"/><stop stop-opacity="1" stop-color="rgb(0%, 62.284851%, 24.226379%)" offset="0.296875"/><stop stop-opacity="1" stop-color="rgb(0%, 62.265015%, 24.533081%)" offset="0.300781"/><stop stop-opacity="1" stop-color="rgb(0%, 62.243652%, 24.839783%)" offset="0.304688"/><stop stop-opacity="1" stop-color="rgb(0%, 62.22229%, 25.144958%)" offset="0.308594"/><stop stop-opacity="1" stop-color="rgb(0%, 62.200928%, 25.45166%)" offset="0.3125"/><stop stop-opacity="1" stop-color="rgb(0%, 62.179565%, 25.758362%)" offset="0.316406"/><stop stop-opacity="1" stop-color="rgb(0%, 62.158203%, 26.065063%)" offset="0.320312"/><stop stop-opacity="1" stop-color="rgb(0%, 62.138367%, 26.370239%)" offset="0.324219"/><stop stop-opacity="1" stop-color="rgb(0%, 62.117004%, 26.676941%)" offset="0.328125"/><stop stop-opacity="1" stop-color="rgb(0%, 62.095642%, 26.983643%)" offset="0.332031"/><stop stop-opacity="1" stop-color="rgb(0%, 62.07428%, 27.288818%)" offset="0.335938"/><stop stop-opacity="1" stop-color="rgb(0%, 62.052917%, 27.59552%)" offset="0.339844"/><stop stop-opacity="1" stop-color="rgb(0%, 62.031555%, 27.902222%)" offset="0.34375"/><stop stop-opacity="1" stop-color="rgb(0%, 62.011719%, 28.207397%)" offset="0.347656"/><stop stop-opacity="1" stop-color="rgb(0%, 61.990356%, 28.514099%)" offset="0.351562"/><stop stop-opacity="1" stop-color="rgb(0%, 61.968994%, 28.820801%)" offset="0.355469"/><stop stop-opacity="1" stop-color="rgb(0%, 61.947632%, 29.127502%)" offset="0.359375"/><stop stop-opacity="1" stop-color="rgb(0%, 61.92627%, 29.432678%)" offset="0.363281"/><stop stop-opacity="1" stop-color="rgb(0%, 61.906433%, 29.73938%)" offset="0.367188"/><stop stop-opacity="1" stop-color="rgb(0%, 61.885071%, 30.046082%)" offset="0.371094"/><stop stop-opacity="1" stop-color="rgb(0%, 61.863708%, 30.351257%)" offset="0.375"/><stop stop-opacity="1" stop-color="rgb(0%, 61.842346%, 30.657959%)" offset="0.378906"/><stop stop-opacity="1" stop-color="rgb(0%, 61.820984%, 30.964661%)" offset="0.382812"/><stop stop-opacity="1" stop-color="rgb(0%, 61.799622%, 31.269836%)" offset="0.386719"/><stop stop-opacity="1" stop-color="rgb(0%, 61.779785%, 31.576538%)" offset="0.390625"/><stop stop-opacity="1" stop-color="rgb(0%, 61.758423%, 31.88324%)" offset="0.394531"/><stop stop-opacity="1" stop-color="rgb(0%, 61.737061%, 32.189941%)" offset="0.398438"/><stop stop-opacity="1" stop-color="rgb(0%, 61.715698%, 32.495117%)" offset="0.402344"/><stop stop-opacity="1" stop-color="rgb(0%, 61.694336%, 32.801819%)" offset="0.40625"/><stop stop-opacity="1" stop-color="rgb(0%, 61.672974%, 33.108521%)" offset="0.410156"/><stop stop-opacity="1" stop-color="rgb(0%, 61.653137%, 33.413696%)" offset="0.414062"/><stop stop-opacity="1" stop-color="rgb(0%, 61.631775%, 33.720398%)" offset="0.417969"/><stop stop-opacity="1" stop-color="rgb(0%, 61.610413%, 34.0271%)" offset="0.421875"/><stop stop-opacity="1" stop-color="rgb(0%, 61.58905%, 34.333801%)" offset="0.425781"/><stop stop-opacity="1" stop-color="rgb(0%, 61.567688%, 34.638977%)" offset="0.429688"/><stop stop-opacity="1" stop-color="rgb(0%, 61.547852%, 34.945679%)" offset="0.433594"/><stop stop-opacity="1" stop-color="rgb(0%, 61.526489%, 35.25238%)" offset="0.4375"/><stop stop-opacity="1" stop-color="rgb(0%, 61.505127%, 35.557556%)" offset="0.441406"/><stop stop-opacity="1" stop-color="rgb(0%, 61.483765%, 35.864258%)" offset="0.445312"/><stop stop-opacity="1" stop-color="rgb(0%, 61.462402%, 36.170959%)" offset="0.449219"/><stop stop-opacity="1" stop-color="rgb(0%, 61.44104%, 36.476135%)" offset="0.453125"/><stop stop-opacity="1" stop-color="rgb(0%, 61.421204%, 36.782837%)" offset="0.457031"/><stop stop-opacity="1" stop-color="rgb(0%, 61.399841%, 37.089539%)" offset="0.460938"/><stop stop-opacity="1" stop-color="rgb(0%, 61.378479%, 37.39624%)" offset="0.464844"/><stop stop-opacity="1" stop-color="rgb(0%, 61.357117%, 37.701416%)" offset="0.46875"/><stop stop-opacity="1" stop-color="rgb(0%, 61.335754%, 38.008118%)" offset="0.472656"/><stop stop-opacity="1" stop-color="rgb(0%, 61.314392%, 38.314819%)" offset="0.476562"/><stop stop-opacity="1" stop-color="rgb(0%, 61.294556%, 38.619995%)" offset="0.480469"/><stop stop-opacity="1" stop-color="rgb(0%, 61.273193%, 38.926697%)" offset="0.484375"/><stop stop-opacity="1" stop-color="rgb(0%, 61.251831%, 39.233398%)" offset="0.488281"/><stop stop-opacity="1" stop-color="rgb(0%, 61.230469%, 39.538574%)" offset="0.492188"/><stop stop-opacity="1" stop-color="rgb(0.0350952%, 61.123657%, 39.691162%)" offset="0.496094"/><stop stop-opacity="1" stop-color="rgb(0.105286%, 60.940552%, 39.533997%)" offset="0.503906"/><stop stop-opacity="1" stop-color="rgb(0.175476%, 60.769653%, 39.225769%)" offset="0.507812"/><stop stop-opacity="1" stop-color="rgb(0.245667%, 60.597229%, 38.916016%)" offset="0.511719"/><stop stop-opacity="1" stop-color="rgb(0.315857%, 60.424805%, 38.606262%)" offset="0.515625"/><stop stop-opacity="1" stop-color="rgb(0.386047%, 60.253906%, 38.296509%)" offset="0.519531"/><stop stop-opacity="1" stop-color="rgb(0.456238%, 60.081482%, 37.988281%)" offset="0.523438"/><stop stop-opacity="1" stop-color="rgb(0.526428%, 59.909058%, 37.678528%)" offset="0.527344"/><stop stop-opacity="1" stop-color="rgb(0.596619%, 59.738159%, 37.368774%)" offset="0.53125"/><stop stop-opacity="1" stop-color="rgb(0.666809%, 59.565735%, 37.059021%)" offset="0.535156"/><stop stop-opacity="1" stop-color="rgb(0.737%, 59.393311%, 36.750793%)" offset="0.539062"/><stop stop-opacity="1" stop-color="rgb(0.80719%, 59.222412%, 36.44104%)" offset="0.542969"/><stop stop-opacity="1" stop-color="rgb(0.87738%, 59.049988%, 36.131287%)" offset="0.546875"/><stop stop-opacity="1" stop-color="rgb(0.949097%, 58.879089%, 35.821533%)" offset="0.550781"/><stop stop-opacity="1" stop-color="rgb(1.019287%, 58.706665%, 35.513306%)" offset="0.554688"/><stop stop-opacity="1" stop-color="rgb(1.089478%, 58.534241%, 35.203552%)" offset="0.558594"/><stop stop-opacity="1" stop-color="rgb(1.159668%, 58.363342%, 34.893799%)" offset="0.5625"/><stop stop-opacity="1" stop-color="rgb(1.229858%, 58.190918%, 34.584045%)" offset="0.566406"/><stop stop-opacity="1" stop-color="rgb(1.300049%, 58.018494%, 34.275818%)" offset="0.570312"/><stop stop-opacity="1" stop-color="rgb(1.370239%, 57.847595%, 33.966064%)" offset="0.574219"/><stop stop-opacity="1" stop-color="rgb(1.44043%, 57.675171%, 33.656311%)" offset="0.578125"/><stop stop-opacity="1" stop-color="rgb(1.51062%, 57.502747%, 33.346558%)" offset="0.582031"/><stop stop-opacity="1" stop-color="rgb(1.580811%, 57.331848%, 33.03833%)" offset="0.585938"/><stop stop-opacity="1" stop-color="rgb(1.651001%, 57.159424%, 32.728577%)" offset="0.589844"/><stop stop-opacity="1" stop-color="rgb(1.721191%, 56.988525%, 32.418823%)" offset="0.59375"/><stop stop-opacity="1" stop-color="rgb(1.792908%, 56.816101%, 32.10907%)" offset="0.597656"/><stop stop-opacity="1" stop-color="rgb(1.863098%, 56.643677%, 31.800842%)" offset="0.601562"/><stop stop-opacity="1" stop-color="rgb(1.933289%, 56.472778%, 31.491089%)" offset="0.605469"/><stop stop-opacity="1" stop-color="rgb(2.003479%, 56.300354%, 31.181335%)" offset="0.609375"/><stop stop-opacity="1" stop-color="rgb(2.073669%, 56.12793%, 30.871582%)" offset="0.613281"/><stop stop-opacity="1" stop-color="rgb(2.14386%, 55.957031%, 30.563354%)" offset="0.617188"/><stop stop-opacity="1" stop-color="rgb(2.21405%, 55.784607%, 30.253601%)" offset="0.621094"/><stop stop-opacity="1" stop-color="rgb(2.284241%, 55.612183%, 29.943848%)" offset="0.625"/><stop stop-opacity="1" stop-color="rgb(2.354431%, 55.441284%, 29.634094%)" offset="0.628906"/><stop stop-opacity="1" stop-color="rgb(2.424622%, 55.26886%, 29.325867%)" offset="0.632812"/><stop stop-opacity="1" stop-color="rgb(2.494812%, 55.096436%, 29.016113%)" offset="0.636719"/><stop stop-opacity="1" stop-color="rgb(2.565002%, 54.925537%, 28.70636%)" offset="0.640625"/><stop stop-opacity="1" stop-color="rgb(2.635193%, 54.753113%, 28.396606%)" offset="0.644531"/><stop stop-opacity="1" stop-color="rgb(2.706909%, 54.582214%, 28.088379%)" offset="0.648438"/><stop stop-opacity="1" stop-color="rgb(2.7771%, 54.40979%, 27.778625%)" offset="0.652344"/><stop stop-opacity="1" stop-color="rgb(2.84729%, 54.237366%, 27.468872%)" offset="0.65625"/><stop stop-opacity="1" stop-color="rgb(2.91748%, 54.066467%, 27.159119%)" offset="0.660156"/><stop stop-opacity="1" stop-color="rgb(2.987671%, 53.894043%, 26.850891%)" offset="0.664062"/><stop stop-opacity="1" stop-color="rgb(3.057861%, 53.721619%, 26.541138%)" offset="0.667969"/><stop stop-opacity="1" stop-color="rgb(3.128052%, 53.55072%, 26.231384%)" offset="0.671875"/><stop stop-opacity="1" stop-color="rgb(3.198242%, 53.378296%, 25.921631%)" offset="0.675781"/><stop stop-opacity="1" stop-color="rgb(3.268433%, 53.205872%, 25.613403%)" offset="0.679688"/><stop stop-opacity="1" stop-color="rgb(3.338623%, 53.034973%, 25.30365%)" offset="0.683594"/><stop stop-opacity="1" stop-color="rgb(3.408813%, 52.862549%, 24.993896%)" offset="0.6875"/><stop stop-opacity="1" stop-color="rgb(3.479004%, 52.69165%, 24.684143%)" offset="0.691406"/><stop stop-opacity="1" stop-color="rgb(3.55072%, 52.519226%, 24.375916%)" offset="0.695312"/><stop stop-opacity="1" stop-color="rgb(3.620911%, 52.346802%, 24.066162%)" offset="0.699219"/><stop stop-opacity="1" stop-color="rgb(3.691101%, 52.175903%, 23.756409%)" offset="0.703125"/><stop stop-opacity="1" stop-color="rgb(3.761292%, 52.003479%, 23.446655%)" offset="0.707031"/><stop stop-opacity="1" stop-color="rgb(3.831482%, 51.831055%, 23.138428%)" offset="0.710938"/><stop stop-opacity="1" stop-color="rgb(3.901672%, 51.660156%, 22.828674%)" offset="0.714844"/><stop stop-opacity="1" stop-color="rgb(3.971863%, 51.487732%, 22.518921%)" offset="0.71875"/><stop stop-opacity="1" stop-color="rgb(4.042053%, 51.315308%, 22.209167%)" offset="0.722656"/><stop stop-opacity="1" stop-color="rgb(4.112244%, 51.144409%, 21.90094%)" offset="0.726562"/><stop stop-opacity="1" stop-color="rgb(4.182434%, 50.971985%, 21.591187%)" offset="0.730469"/><stop stop-opacity="1" stop-color="rgb(4.252625%, 50.799561%, 21.281433%)" offset="0.734375"/><stop stop-opacity="1" stop-color="rgb(4.322815%, 50.628662%, 20.97168%)" offset="0.738281"/><stop stop-opacity="1" stop-color="rgb(4.393005%, 50.456238%, 20.663452%)" offset="0.742188"/><stop stop-opacity="1" stop-color="rgb(4.464722%, 50.285339%, 20.353699%)" offset="0.746094"/><stop stop-opacity="1" stop-color="rgb(4.534912%, 50.112915%, 20.043945%)" offset="0.75"/><stop stop-opacity="1" stop-color="rgb(4.605103%, 49.940491%, 19.734192%)" offset="0.753906"/><stop stop-opacity="1" stop-color="rgb(4.675293%, 49.769592%, 19.425964%)" offset="0.757812"/><stop stop-opacity="1" stop-color="rgb(4.745483%, 49.597168%, 19.116211%)" offset="0.761719"/><stop stop-opacity="1" stop-color="rgb(4.815674%, 49.424744%, 18.806458%)" offset="0.765625"/><stop stop-opacity="1" stop-color="rgb(4.885864%, 49.253845%, 18.496704%)" offset="0.769531"/><stop stop-opacity="1" stop-color="rgb(4.956055%, 49.081421%, 18.188477%)" offset="0.773438"/><stop stop-opacity="1" stop-color="rgb(5.026245%, 48.908997%, 17.878723%)" offset="0.777344"/><stop stop-opacity="1" stop-color="rgb(5.096436%, 48.738098%, 17.56897%)" offset="0.78125"/><stop stop-opacity="1" stop-color="rgb(5.166626%, 48.565674%, 17.259216%)" offset="0.785156"/><stop stop-opacity="1" stop-color="rgb(5.236816%, 48.394775%, 16.950989%)" offset="0.789062"/><stop stop-opacity="1" stop-color="rgb(5.308533%, 48.222351%, 16.641235%)" offset="0.792969"/><stop stop-opacity="1" stop-color="rgb(5.378723%, 48.049927%, 16.331482%)" offset="0.796875"/><stop stop-opacity="1" stop-color="rgb(5.448914%, 47.879028%, 16.021729%)" offset="0.800781"/><stop stop-opacity="1" stop-color="rgb(5.519104%, 47.706604%, 15.711975%)" offset="0.804688"/><stop stop-opacity="1" stop-color="rgb(5.589294%, 47.53418%, 15.403748%)" offset="0.808594"/><stop stop-opacity="1" stop-color="rgb(5.659485%, 47.363281%, 15.093994%)" offset="0.8125"/><stop stop-opacity="1" stop-color="rgb(5.729675%, 47.190857%, 14.784241%)" offset="0.816406"/><stop stop-opacity="1" stop-color="rgb(5.799866%, 47.018433%, 14.474487%)" offset="0.820312"/><stop stop-opacity="1" stop-color="rgb(5.870056%, 46.847534%, 14.16626%)" offset="0.824219"/><stop stop-opacity="1" stop-color="rgb(5.940247%, 46.67511%, 13.856506%)" offset="0.828125"/><stop stop-opacity="1" stop-color="rgb(6.010437%, 46.502686%, 13.546753%)" offset="0.832031"/><stop stop-opacity="1" stop-color="rgb(6.080627%, 46.331787%, 13.237%)" offset="0.835938"/><stop stop-opacity="1" stop-color="rgb(6.150818%, 46.159363%, 12.928772%)" offset="0.839844"/><stop stop-opacity="1" stop-color="rgb(6.222534%, 45.988464%, 12.619019%)" offset="0.84375"/><stop stop-opacity="1" stop-color="rgb(6.292725%, 45.81604%, 12.309265%)" offset="0.847656"/><stop stop-opacity="1" stop-color="rgb(6.362915%, 45.643616%, 11.999512%)" offset="0.851562"/><stop stop-opacity="1" stop-color="rgb(6.433105%, 45.472717%, 11.691284%)" offset="0.855469"/><stop stop-opacity="1" stop-color="rgb(6.503296%, 45.300293%, 11.381531%)" offset="0.859375"/><stop stop-opacity="1" stop-color="rgb(6.573486%, 45.127869%, 11.071777%)" offset="0.863281"/><stop stop-opacity="1" stop-color="rgb(6.643677%, 44.95697%, 10.762024%)" offset="0.867188"/><stop stop-opacity="1" stop-color="rgb(6.713867%, 44.784546%, 10.453796%)" offset="0.871094"/><stop stop-opacity="1" stop-color="rgb(6.784058%, 44.612122%, 10.144043%)" offset="0.875"/><stop stop-opacity="1" stop-color="rgb(6.854248%, 44.441223%, 9.83429%)" offset="0.878906"/><stop stop-opacity="1" stop-color="rgb(6.924438%, 44.268799%, 9.524536%)" offset="0.882812"/><stop stop-opacity="1" stop-color="rgb(6.994629%, 44.0979%, 9.216309%)" offset="0.886719"/><stop stop-opacity="1" stop-color="rgb(7.066345%, 43.925476%, 8.906555%)" offset="0.890625"/><stop stop-opacity="1" stop-color="rgb(7.136536%, 43.753052%, 8.596802%)" offset="0.894531"/><stop stop-opacity="1" stop-color="rgb(7.206726%, 43.582153%, 8.287048%)" offset="0.898438"/><stop stop-opacity="1" stop-color="rgb(7.276917%, 43.409729%, 7.978821%)" offset="0.902344"/><stop stop-opacity="1" stop-color="rgb(7.347107%, 43.237305%, 7.669067%)" offset="0.90625"/><stop stop-opacity="1" stop-color="rgb(7.417297%, 43.066406%, 7.359314%)" offset="0.910156"/><stop stop-opacity="1" stop-color="rgb(7.487488%, 42.893982%, 7.049561%)" offset="0.914062"/><stop stop-opacity="1" stop-color="rgb(7.557678%, 42.721558%, 6.741333%)" offset="0.917969"/><stop stop-opacity="1" stop-color="rgb(7.627869%, 42.550659%, 6.43158%)" offset="0.921875"/><stop stop-opacity="1" stop-color="rgb(7.698059%, 42.378235%, 6.121826%)" offset="0.925781"/><stop stop-opacity="1" stop-color="rgb(7.76825%, 42.205811%, 5.812073%)" offset="0.929688"/><stop stop-opacity="1" stop-color="rgb(7.83844%, 42.034912%, 5.503845%)" offset="0.933594"/><stop stop-opacity="1" stop-color="rgb(7.90863%, 41.862488%, 5.194092%)" offset="0.9375"/><stop stop-opacity="1" stop-color="rgb(7.980347%, 41.691589%, 4.884338%)" offset="0.941406"/><stop stop-opacity="1" stop-color="rgb(8.050537%, 41.519165%, 4.574585%)" offset="0.945312"/><stop stop-opacity="1" stop-color="rgb(8.120728%, 41.346741%, 4.266357%)" offset="0.949219"/><stop stop-opacity="1" stop-color="rgb(8.190918%, 41.175842%, 3.956604%)" offset="0.953125"/><stop stop-opacity="1" stop-color="rgb(8.261108%, 41.003418%, 3.646851%)" offset="0.957031"/><stop stop-opacity="1" stop-color="rgb(8.331299%, 40.830994%, 3.337097%)" offset="0.960938"/><stop stop-opacity="1" stop-color="rgb(8.401489%, 40.660095%, 3.02887%)" offset="0.964844"/><stop stop-opacity="1" stop-color="rgb(8.47168%, 40.487671%, 2.719116%)" offset="0.96875"/><stop stop-opacity="1" stop-color="rgb(8.54187%, 40.315247%, 2.409363%)" offset="0.972656"/><stop stop-opacity="1" stop-color="rgb(8.612061%, 40.144348%, 2.099609%)" offset="0.976562"/><stop stop-opacity="1" stop-color="rgb(8.682251%, 39.971924%, 1.791382%)" offset="0.980469"/><stop stop-opacity="1" stop-color="rgb(8.752441%, 39.801025%, 1.481628%)" offset="0.984375"/><stop stop-opacity="1" stop-color="rgb(8.824158%, 39.628601%, 1.171875%)" offset="0.988281"/><stop stop-opacity="1" stop-color="rgb(8.894348%, 39.456177%, 0.862122%)" offset="0.992188"/><stop stop-opacity="1" stop-color="rgb(8.964539%, 39.285278%, 0.553894%)" offset="0.996094"/><stop stop-opacity="1" stop-color="rgb(8.999634%, 39.199829%, 0.39978%)" offset="1"/></radialGradient><clipPath id="b9d3984efc"><path d="M 460 125.203125 L 684.304688 125.203125 L 684.304688 350 L 460 350 Z M 460 125.203125 " clip-rule="nonzero"/></clipPath><clipPath id="d1525a362b"><path d="M 236 460 L 554 460 L 554 684.703125 L 236 684.703125 Z M 236 460 " clip-rule="nonzero"/></clipPath></defs><g clip-path="url(#44542a0ab9)"><rect x="-81" fill="url(#7638268686)" width="972" y="-80.999999" height="971.999992"/></g><path fill="#ffffff" d="M 180.402344 404.996094 C 180.402344 373.871094 186.667969 343.746094 199.023438 315.464844 L 181.929688 308 C 168.539062 338.652344 161.75 371.285156 161.75 404.996094 C 161.75 468.097656 185.863281 527.859375 229.648438 573.277344 L 243.074219 560.328125 C 202.664062 518.410156 180.402344 463.246094 180.402344 404.996094 " fill-opacity="1" fill-rule="nonzero"/><g clip-path="url(#b9d3984efc)"><path fill="#ffffff" d="M 644.289062 296.109375 L 634.664062 286.484375 L 621.476562 299.671875 L 631.097656 309.300781 C 617.28125 320.613281 600.167969 328.050781 581.4375 329.917969 L 581.4375 311.730469 L 562.785156 311.730469 L 562.785156 329.917969 C 544.054688 328.050781 526.941406 320.613281 513.125 309.300781 L 522.746094 299.671875 L 509.558594 286.484375 L 499.933594 296.109375 C 488.621094 282.292969 481.183594 265.179688 479.316406 246.449219 L 497.5 246.449219 L 497.5 227.796875 L 479.316406 227.796875 C 481.183594 209.066406 488.621094 191.953125 499.933594 178.136719 L 509.558594 187.757812 L 522.746094 174.570312 L 513.125 164.941406 C 526.941406 153.628906 544.054688 146.195312 562.785156 144.328125 L 562.785156 162.511719 L 581.4375 162.511719 L 581.4375 144.328125 C 600.167969 146.195312 617.28125 153.628906 631.097656 164.941406 L 621.476562 174.570312 L 634.664062 187.757812 L 644.289062 178.136719 C 655.601562 191.953125 663.039062 209.066406 664.90625 227.796875 L 646.722656 227.796875 L 646.722656 246.449219 L 664.90625 246.449219 C 663.039062 265.179688 655.601562 282.292969 644.289062 296.109375 Z M 572.109375 125.203125 C 510.402344 125.203125 460.195312 175.410156 460.195312 237.121094 C 460.195312 298.832031 510.402344 349.039062 572.109375 349.039062 C 633.820312 349.039062 684.027344 298.832031 684.027344 237.121094 C 684.027344 175.410156 633.820312 125.203125 572.109375 125.203125 " fill-opacity="1" fill-rule="nonzero"/></g><path fill="#ffffff" d="M 562.785156 233.261719 L 537.539062 258.507812 L 550.726562 271.695312 L 578.707031 243.714844 C 580.453125 241.96875 581.4375 239.59375 581.4375 237.121094 L 581.4375 181.164062 L 562.785156 181.164062 L 562.785156 233.261719 " fill-opacity="1" fill-rule="nonzero"/><path fill="#ffffff" d="M 150.527344 266.128906 L 145.34375 219.496094 C 145.046875 216.824219 145.871094 214.25 147.660156 212.25 C 149.457031 210.246094 151.921875 209.140625 154.609375 209.140625 L 180.402344 209.140625 C 183.5 209.140625 186.390625 207.609375 188.128906 205.042969 C 189.863281 202.480469 190.210938 199.222656 189.0625 196.351562 L 180.640625 175.300781 C 179.476562 172.378906 179.816406 169.214844 181.578125 166.609375 C 183.339844 164.003906 186.15625 162.511719 189.300781 162.511719 L 193.773438 162.511719 L 219.039062 204.617188 C 220.722656 207.421875 223.761719 209.140625 227.035156 209.140625 L 255.015625 209.140625 L 255.015625 255.773438 L 227.035156 255.773438 C 224.5625 255.773438 222.191406 256.757812 220.441406 258.507812 L 207.253906 271.695312 C 205.492188 273.457031 203.144531 274.425781 200.65625 274.425781 L 159.792969 274.425781 C 155.035156 274.425781 151.050781 270.859375 150.527344 266.128906 Z M 273.667969 199.816406 L 310.972656 199.816406 L 310.972656 274.425781 L 273.667969 274.425781 Z M 220.441406 284.882812 L 230.898438 274.425781 L 255.015625 274.425781 L 255.015625 283.753906 C 255.015625 288.902344 259.191406 293.078125 264.339844 293.078125 L 320.300781 293.078125 C 325.449219 293.078125 329.625 288.902344 329.625 283.753906 L 329.625 190.488281 C 329.625 185.339844 325.449219 181.164062 320.300781 181.164062 L 264.339844 181.164062 C 259.191406 181.164062 255.015625 185.339844 255.015625 190.488281 L 232.3125 190.488281 L 207.054688 148.382812 C 205.367188 145.578125 202.332031 143.859375 199.054688 143.859375 L 189.300781 143.859375 C 180.007812 143.859375 171.347656 148.453125 166.132812 156.152344 C 160.921875 163.847656 159.871094 173.597656 163.320312 182.230469 L 166.628906 190.488281 L 154.609375 190.488281 C 146.664062 190.488281 139.0625 193.886719 133.761719 199.808594 C 128.460938 205.730469 125.925781 213.660156 126.804688 221.554688 L 131.988281 268.1875 C 133.5625 282.378906 145.515625 293.078125 159.792969 293.078125 L 200.65625 293.078125 C 208.128906 293.078125 215.15625 290.167969 220.441406 284.882812 " fill-opacity="1" fill-rule="nonzero"/><g clip-path="url(#d1525a362b)"><path fill="#ffffff" d="M 366.929688 535.566406 C 361.78125 535.566406 357.605469 539.742188 357.605469 544.890625 C 357.605469 569.355469 376.539062 589.480469 400.519531 591.378906 L 382.960938 608.9375 L 294.335938 581.667969 C 286.90625 570.832031 282.992188 558.214844 282.992188 544.890625 C 282.992188 508.894531 312.28125 479.605469 348.277344 479.605469 C 381.105469 479.605469 408.34375 503.96875 412.882812 535.566406 Z M 438.808594 538.296875 C 437.0625 536.550781 434.6875 535.566406 432.214844 535.566406 L 431.6875 535.566406 C 427.027344 493.65625 391.40625 460.953125 348.277344 460.953125 C 301.996094 460.953125 264.339844 498.609375 264.339844 544.890625 C 264.339844 555.671875 266.445312 566.328125 270.429688 576.234375 C 261.886719 576.792969 253.78125 581.226562 248.867188 588.59375 L 237.929688 605.003906 C 236.378906 607.328125 235.953125 610.226562 236.765625 612.898438 C 237.582031 615.574219 239.554688 617.734375 242.136719 618.800781 L 400.683594 684.085938 C 401.828125 684.554688 403.03125 684.785156 404.238281 684.785156 C 405.667969 684.785156 407.097656 684.460938 408.40625 683.804688 L 462.398438 656.808594 L 553.457031 656.808594 L 553.457031 638.15625 L 460.195312 638.15625 C 458.746094 638.15625 457.316406 638.492188 456.023438 639.140625 L 403.863281 665.21875 L 259.757812 605.882812 L 264.386719 598.941406 C 266.660156 595.535156 270.976562 593.996094 274.890625 595.199219 L 382.84375 628.414062 C 386.144531 629.433594 389.738281 628.542969 392.179688 626.097656 L 429.484375 588.792969 C 432.152344 586.121094 432.949219 582.113281 431.503906 578.625 C 430.0625 575.144531 426.660156 572.871094 422.890625 572.871094 L 404.238281 572.871094 C 392.078125 572.871094 381.703125 565.074219 377.855469 554.21875 L 428.355469 554.21875 L 453.601562 579.464844 C 455.347656 581.214844 457.722656 582.195312 460.195312 582.195312 L 553.457031 582.195312 L 553.457031 563.542969 L 464.054688 563.542969 L 438.808594 538.296875 " fill-opacity="1" fill-rule="nonzero"/></g><path fill="#ffffff" d="M 356.980469 356.960938 L 363.222656 341.886719 C 364.367188 339.128906 364.121094 335.992188 362.5625 333.445312 L 356.296875 323.222656 L 359.769531 319.75 L 369.992188 326.019531 C 372.535156 327.574219 375.675781 327.820312 378.433594 326.679688 L 393.507812 320.433594 C 396.265625 319.292969 398.3125 316.898438 399.007812 313.992188 L 401.785156 302.40625 L 406.6875 302.40625 L 409.464844 313.992188 C 410.160156 316.898438 412.207031 319.292969 414.964844 320.433594 L 430.039062 326.679688 C 432.796875 327.820312 435.9375 327.574219 438.480469 326.019531 L 448.707031 319.75 L 452.175781 323.222656 L 445.910156 333.445312 C 444.351562 335.992188 444.105469 339.128906 445.25 341.886719 L 451.492188 356.960938 C 452.636719 359.722656 455.03125 361.765625 457.9375 362.460938 L 469.519531 365.242188 L 469.519531 370.140625 L 457.9375 372.917969 C 455.03125 373.613281 452.636719 375.660156 451.492188 378.417969 L 445.25 393.492188 C 444.105469 396.253906 444.351562 399.390625 445.910156 401.9375 L 452.175781 412.160156 L 448.707031 415.628906 L 438.480469 409.363281 C 435.9375 407.804688 432.796875 407.558594 430.039062 408.703125 L 414.964844 414.945312 C 412.207031 416.089844 410.160156 418.484375 409.464844 421.390625 L 406.6875 432.976562 L 401.785156 432.976562 L 399.007812 421.390625 C 398.3125 418.484375 396.265625 416.089844 393.507812 414.945312 L 378.433594 408.703125 C 375.675781 407.558594 372.535156 407.804688 369.992188 409.363281 L 359.769531 415.628906 L 356.296875 412.160156 L 362.5625 401.9375 C 364.121094 399.390625 364.367188 396.253906 363.222656 393.492188 L 356.980469 378.417969 C 355.835938 375.660156 353.441406 373.613281 350.535156 372.917969 L 338.953125 370.140625 L 338.953125 365.242188 L 350.535156 362.460938 C 353.441406 361.765625 355.835938 359.722656 356.980469 356.960938 Z M 344.175781 339.136719 L 341.566406 345.429688 L 327.453125 348.816406 C 323.253906 349.820312 320.300781 353.574219 320.300781 357.886719 L 320.300781 377.496094 C 320.300781 381.808594 323.253906 385.558594 327.453125 386.566406 L 341.566406 389.949219 L 344.175781 396.242188 L 336.550781 408.683594 C 334.296875 412.359375 334.859375 417.101562 337.910156 420.152344 L 351.777344 434.019531 C 354.828125 437.066406 359.566406 437.625 363.242188 435.375 L 375.683594 427.75 L 381.976562 430.359375 L 385.359375 444.472656 C 386.367188 448.671875 390.121094 451.628906 394.433594 451.628906 L 414.039062 451.628906 C 418.355469 451.628906 422.105469 448.671875 423.113281 444.472656 L 426.496094 430.359375 L 432.789062 427.75 L 445.230469 435.375 C 448.90625 437.628906 453.644531 437.066406 456.699219 434.019531 L 470.5625 420.152344 C 473.609375 417.101562 474.175781 412.359375 471.921875 408.683594 L 464.296875 396.242188 L 466.90625 389.949219 L 481.019531 386.566406 C 485.21875 385.558594 488.171875 381.808594 488.171875 377.496094 L 488.171875 357.886719 C 488.171875 353.574219 485.21875 349.820312 481.019531 348.816406 L 466.90625 345.429688 L 464.296875 339.136719 L 471.921875 326.695312 C 474.175781 323.023438 473.613281 318.28125 470.5625 315.230469 L 456.699219 301.363281 C 453.644531 298.3125 448.90625 297.753906 445.230469 300.007812 L 432.789062 307.628906 L 426.496094 305.019531 L 423.113281 290.90625 C 422.105469 286.707031 418.355469 283.753906 414.039062 283.753906 L 394.433594 283.753906 C 390.121094 283.753906 386.367188 286.707031 385.359375 290.90625 L 381.976562 305.019531 L 375.683594 307.628906 L 363.242188 300.007812 C 359.566406 297.753906 354.828125 298.3125 351.777344 301.363281 L 337.910156 315.230469 C 334.863281 318.28125 334.296875 323.023438 336.550781 326.695312 L 344.175781 339.136719 " fill-opacity="1" fill-rule="nonzero"/><path fill="#ffffff" d="M 404.238281 358.363281 C 409.378906 358.363281 413.5625 362.550781 413.5625 367.691406 C 413.5625 372.832031 409.378906 377.015625 404.238281 377.015625 C 399.09375 377.015625 394.910156 372.832031 394.910156 367.691406 C 394.910156 362.550781 399.09375 358.363281 404.238281 358.363281 Z M 404.238281 395.667969 C 419.664062 395.667969 432.214844 383.121094 432.214844 367.691406 C 432.214844 352.261719 419.664062 339.710938 404.238281 339.710938 C 388.808594 339.710938 376.257812 352.261719 376.257812 367.691406 C 376.257812 383.121094 388.808594 395.667969 404.238281 395.667969 " fill-opacity="1" fill-rule="nonzero"/><path fill="#ffffff" d="M 623.59375 360.21875 C 626.5625 374.859375 628.070312 389.921875 628.070312 404.996094 C 628.070312 461.644531 606.863281 515.699219 568.355469 557.199219 L 582.03125 569.886719 C 623.746094 524.925781 646.722656 466.367188 646.722656 404.996094 C 646.722656 388.679688 645.089844 372.367188 641.871094 356.511719 L 623.59375 360.21875 " fill-opacity="1" fill-rule="nonzero"/><path fill="#ffffff" d="M 404.238281 181.164062 C 419.308594 181.164062 434.375 182.671875 449.015625 185.640625 L 452.722656 167.359375 C 436.863281 164.140625 420.554688 162.511719 404.238281 162.511719 C 384.558594 162.511719 364.980469 164.875 346.046875 169.542969 L 350.507812 187.652344 C 367.984375 183.34375 386.0625 181.164062 404.238281 181.164062 " fill-opacity="1" fill-rule="nonzero"/><path fill="#ffffff" d="M 237.765625 301.769531 C 218.542969 332.703125 208.382812 368.402344 208.382812 404.996094 C 208.382812 441.589844 218.542969 477.289062 237.765625 508.222656 L 253.609375 498.382812 C 236.226562 470.402344 227.035156 438.105469 227.035156 404.996094 C 227.035156 371.882812 236.226562 339.589844 253.609375 311.609375 L 237.765625 301.769531 " fill-opacity="1" fill-rule="nonzero"/><path fill="#ffffff" d="M 541.335938 544.863281 C 579.222656 507.71875 600.089844 458.050781 600.089844 404.996094 C 600.089844 391.816406 598.769531 378.636719 596.171875 365.832031 L 577.894531 369.546875 C 580.246094 381.132812 581.4375 393.058594 581.4375 404.996094 C 581.4375 452.992188 562.558594 497.9375 528.273438 531.542969 L 541.335938 544.863281 " fill-opacity="1" fill-rule="nonzero"/><path fill="#ffffff" d="M 404.238281 227.796875 C 416.171875 227.796875 428.097656 228.988281 439.683594 231.339844 L 443.398438 213.058594 C 430.59375 210.464844 417.414062 209.140625 404.238281 209.140625 C 384.195312 209.140625 364.429688 212.160156 345.480469 218.109375 L 351.074219 235.90625 C 368.207031 230.523438 386.09375 227.796875 404.238281 227.796875 " fill-opacity="1" fill-rule="nonzero"/><path fill="#ffffff" d="M 301.644531 544.890625 C 301.644531 556.261719 305.785156 567.21875 313.304688 575.738281 L 327.289062 563.394531 C 322.78125 558.289062 320.300781 551.71875 320.300781 544.890625 C 320.300781 529.464844 332.851562 516.914062 348.277344 516.914062 C 353.199219 516.914062 358.03125 518.207031 362.257812 520.652344 L 371.601562 504.503906 C 364.539062 500.417969 356.476562 498.257812 348.277344 498.257812 C 322.566406 498.257812 301.644531 519.179688 301.644531 544.890625 " fill-opacity="1" fill-rule="nonzero"/></svg>